<?plantuml 1.2026.1beta2?>
<svg xmlns="http://www.w3.org/2000/svg" xmlns:xlink="http://www.w3.org/1999/xlink" contentStyleType="text/css" data-diagram-type="DESCRIPTION" height="327px" preserveAspectRatio="none" style="width:753px;height:327px;background:#FFFFFF;" version="1.1" viewBox="0 0 753 327" width="753px" zoomAndPan="magnify"><defs/><g><!--entity U--><g class="entity" data-qualified-name="U" data-source-line="11" id="ent0002"><ellipse cx="432.64" cy="22" fill="#F1F1F1" rx="16" ry="16" style="stroke:#181818;stroke-width:0.5;"/><path d="M432.64,42 C436.64,42 439.64,42 443.64,38 C451.64,38 459.64,46 459.64,54 L459.64,58 C459.64,62 455.64,66 451.64,66 L413.64,66 C409.64,66 405.64,62 405.64,58 L405.64,54 C405.64,46 413.64,38 421.64,38 C425.64,42 428.64,42 432.64,42" fill="#F1F1F1" style="stroke:#181818;stroke-width:0.5;"/><text fill="#000000" font-family="sans-serif" font-size="14" lengthAdjust="spacing" textLength="53.2041" x="406.0379" y="79.4951">Usuario</text></g><!--entity UC_Acceso_A11y--><g class="entity" data-qualified-name="UC_Acceso_A11y" data-source-line="15" id="ent0003"><ellipse cx="174.6398" cy="168.79" fill="#FFFFFF" rx="112.9498" ry="24.99" style="stroke:#000000;stroke-width:0.5;"/><text fill="#000000" font-family="sans-serif" font-size="14" lengthAdjust="spacing" textLength="171.4727" x="88.9035" y="167.8199">Acceder a Configuración</text><text fill="#000000" font-family="sans-serif" font-size="14" lengthAdjust="spacing" textLength="113.627" x="117.8263" y="184.1167">de Accesibilidad</text></g><!--entity UC_Daltonismo--><g class="entity" data-qualified-name="UC_Daltonismo" data-source-line="16" id="ent0004"><ellipse cx="78.6416" cy="296.1403" fill="#FFFFFF" rx="72.6416" ry="25.3603" style="stroke:#000000;stroke-width:0.5;"/><text fill="#000000" font-family="sans-serif" font-size="14" lengthAdjust="spacing" textLength="88.3682" x="34.4575" y="291.6535">Aplicar Filtro</text><text fill="#000000" font-family="sans-serif" font-size="14" lengthAdjust="spacing" textLength="101.5137" x="27.8847" y="307.9504">de Daltonismo</text></g><!--entity UC_Modo_Noche--><g class="entity" data-qualified-name="UC_Modo_Noche" data-source-line="17" id="ent0005"><ellipse cx="270.6362" cy="296.1412" fill="#FFFFFF" rx="84.2062" ry="19.2412" style="stroke:#000000;stroke-width:0.5;"/><text fill="#000000" font-family="sans-serif" font-size="14" lengthAdjust="spacing" textLength="140.4922" x="200.3901" y="300.7897">Activar Modo Noche</text></g><!--entity UC_Cambiar_Tema--><g class="entity" data-qualified-name="UC_Cambiar_Tema" data-source-line="19" id="ent0006"><ellipse cx="432.6427" cy="168.7918" fill="#FFFFFF" rx="109.6627" ry="24.3918" style="stroke:#000000;stroke-width:0.5;"/><text fill="#000000" font-family="sans-serif" font-size="14" lengthAdjust="spacing" textLength="102.9355" x="381.175" y="162.852">Cambiar Tema</text><text fill="#000000" font-family="sans-serif" font-size="14" lengthAdjust="spacing" textLength="162.5176" x="351.3839" y="179.1489">(Claro/Oscuro/Sistema)</text></g><!--entity UC_Color_Acento--><g class="entity" data-qualified-name="UC_Color_Acento" data-source-line="20" id="ent0007"><ellipse cx="662.6397" cy="168.7896" fill="#FFFFFF" rx="85.1797" ry="24.1596" style="stroke:#000000;stroke-width:0.5;"/><text fill="#000000" font-family="sans-serif" font-size="14" lengthAdjust="spacing" textLength="126.5879" x="599.3457" y="168.0906">Personalizar Color</text><text fill="#000000" font-family="sans-serif" font-size="14" lengthAdjust="spacing" textLength="70.7656" x="627.2569" y="184.3874">de Acento</text></g><!--link U to UC_Acceso_A11y--><g class="link" data-entity-1="ent0002" data-entity-2="ent0003" data-link-type="dependency" data-source-line="24" id="lnk8"><path d="M405.03,58.28 C361.09,79.16 280.1789,117.624 226.5789,143.104" fill="none" id="U-to-UC_Acceso_A11y" style="stroke:#000000;stroke-width:1;"/><polygon fill="#000000" points="221.16,145.68,231.0056,145.4286,225.6757,143.5333,227.571,138.2034,221.16,145.68" style="stroke:#000000;stroke-width:1;"/></g><!--link U to UC_Cambiar_Tema--><g class="link" data-entity-1="ent0002" data-entity-2="ent0006" data-link-type="dependency" data-source-line="25" id="lnk9"><path d="M432.64,83.28 C432.64,103.11 432.64,120.73 432.64,137.95" fill="none" id="U-to-UC_Cambiar_Tema" style="stroke:#000000;stroke-width:1;"/><polygon fill="#000000" points="432.64,143.95,436.64,134.95,432.64,138.95,428.64,134.95,432.64,143.95" style="stroke:#000000;stroke-width:1;"/></g><!--link U to UC_Color_Acento--><g class="link" data-entity-1="ent0002" data-entity-2="ent0007" data-link-type="dependency" data-source-line="26" id="lnk10"><path d="M460.38,59.94 C501.13,81.67 572.0261,119.466 618.3661,144.186" fill="none" id="U-to-UC_Color_Acento" style="stroke:#000000;stroke-width:1;"/><polygon fill="#000000" points="623.66,147.01,617.6019,139.2448,619.2484,144.6567,613.8365,146.3032,623.66,147.01" style="stroke:#000000;stroke-width:1;"/></g><!--link UC_Acceso_A11y to UC_Daltonismo--><g class="link" data-entity-1="ent0003" data-entity-2="ent0004" data-link-type="dependency" data-source-line="30" id="lnk11"><path d="M156.36,193.66 C139.28,215.97 117.5677,244.3162 100.5077,266.5962" fill="none" id="UC_Acceso_A11y-to-UC_Daltonismo" style="stroke:#000000;stroke-width:1;stroke-dasharray:7,7;"/><polygon fill="#000000" points="96.86,271.36,105.5075,266.6461,99.8998,267.3901,99.1557,261.7824,96.86,271.36" style="stroke:#000000;stroke-width:1;"/><text fill="#000000" font-family="sans-serif" font-size="13" lengthAdjust="spacing" textLength="63.0068" x="133.64" y="236.8469">«include»</text></g><!--link UC_Acceso_A11y to UC_Modo_Noche--><g class="link" data-entity-1="ent0003" data-entity-2="ent0005" data-link-type="dependency" data-source-line="31" id="lnk12"><path d="M192.92,193.66 C211.53,217.96 236.3126,250.3059 253.1326,272.2759" fill="none" id="UC_Acceso_A11y-to-UC_Modo_Noche" style="stroke:#000000;stroke-width:1;stroke-dasharray:7,7;"/><polygon fill="#000000" points="256.78,277.04,254.485,267.4623,253.7405,273.0699,248.1329,272.3254,256.78,277.04" style="stroke:#000000;stroke-width:1;"/><text fill="#000000" font-family="sans-serif" font-size="13" lengthAdjust="spacing" textLength="63.0068" x="229.64" y="236.8469">«include»</text></g><?plantuml-src TLF1Rfj04Btp5ICkJWv9bMkLMYBObImvTcM2Ueba3SiscMRPGRjBehJgn-G3UkgjL_zO1t0LR1au06zcP-QzDqmWPVkD7Xg7YdP_B3oJRz20fwesEWfSGs0eE0Ike2IdLI2saNyYMwF32b05TbbuDHhmHNkkz23OUAtGQ_WPWLmtg9uU73UsJDcmWw-F57GVOLTgrwCtHj8wD76ENuRWhoYQmASJ5oJftNfpCXHr0qAS2or770Dwo4Vhf4cspc0sXpnRdoutWKoO6h8QBM0ZikpU0Ycij0qQIeavHmM2t0L-v-Y_17cwJPGIWRR9rTLhEqNSVWjjIJtquDvAcIwP2Z9KOXaFoypG1BRaA-whr4RQE_XC9ZZkphvd71oyvPAtArQFUjy-qBCSR67eu3WQfgTO5OHkUwShx0xi0MY1UtkM6dJyOUrL8u-CV13u_A1XvvtG5cdwMRzevzcAUZ-aJ1VTSsqpub5NDlDbaYxMgtaclkJ9PZ7gpTp8pdL60uaV8cZO_KLGRC6mXxgHFhvrIHewB15gHrPHZKRxA8UBY-cHKU_WK8u1Eg0uElzYbIxph2TmDfD_IPVGRf0_7-En5BLaCDDu-TjqEt6XBNXP5hFxBQlNKz72GDvalRKFkpTRYghvxJ8wshNBo-dHtdo4w-kkVAcdqv7qmROSfFy3?></g></svg>