<?plantuml 1.2026.1beta2?><svg xmlns="http://www.w3.org/2000/svg" xmlns:xlink="http://www.w3.org/1999/xlink" contentStyleType="text/css" data-diagram-type="DESCRIPTION" height="530px" preserveAspectRatio="none" style="width:2397px;height:530px;background:#FFFFFF;" version="1.1" viewBox="0 0 2397 530" width="2397px" zoomAndPan="magnify"><defs/><g><!--entity core--><g class="entity" data-qualified-name="core" data-source-line="8" id="ent0002"><rect fill="#F1F1F1" height="36.2969" rx="2.5" ry="2.5" style="stroke:#181818;stroke-width:0.5;" width="121.8828" x="1329.08" y="7"/><text fill="#000000" font-family="sans-serif" font-size="14" lengthAdjust="spacing" textLength="101.8828" x="1339.08" y="29.9951">HabitApp Core</text></g><!--entity habitFeature--><g class="entity" data-qualified-name="habitFeature" data-source-line="13" id="ent0003"><rect fill="#F1F1F1" height="36.2969" rx="2.5" ry="2.5" style="stroke:#181818;stroke-width:0.5;" width="65.9375" x="1217.06" y="103.3"/><text fill="#000000" font-family="sans-serif" font-size="14" lengthAdjust="spacing" textLength="45.9375" x="1227.06" y="126.2951">H&#225;bito</text></g><!--entity statsFeature--><g class="entity" data-qualified-name="statsFeature" data-source-line="14" id="ent0004"><rect fill="#F1F1F1" height="36.2969" rx="2.5" ry="2.5" style="stroke:#181818;stroke-width:0.5;" width="103.2275" x="1338.41" y="199.59"/><text fill="#000000" font-family="sans-serif" font-size="14" lengthAdjust="spacing" textLength="83.2275" x="1348.41" y="222.5851">Estad&#237;sticas</text></g><!--entity achievementsFeature--><g class="entity" data-qualified-name="achievementsFeature" data-source-line="15" id="ent0005"><rect fill="#F1F1F1" height="36.2969" rx="2.5" ry="2.5" style="stroke:#181818;stroke-width:0.5;" width="66.8672" x="1356.59" y="295.89"/><text fill="#000000" font-family="sans-serif" font-size="14" lengthAdjust="spacing" textLength="46.8672" x="1366.59" y="318.8851">Logros</text></g><!--entity achievementsData--><g class="entity" data-qualified-name="achievementsData" data-source-line="24" id="ent0008"><rect fill="#F1F1F1" height="36.2969" rx="2.5" ry="2.5" style="stroke:#181818;stroke-width:0.5;" width="142.2813" x="512.88" y="392.19"/><text fill="#000000" font-family="sans-serif" font-size="14" lengthAdjust="spacing" textLength="122.2813" x="522.88" y="415.1851">LogrosPersistidos</text></g><!--entity achievementsCatalog--><g class="entity" data-qualified-name="achievementsCatalog" data-source-line="25" id="ent0009"><rect fill="#F1F1F1" height="36.2969" rx="2.5" ry="2.5" style="stroke:#181818;stroke-width:0.5;" width="148.5908" x="1478.73" y="392.19"/><text fill="#000000" font-family="sans-serif" font-size="14" lengthAdjust="spacing" textLength="128.5908" x="1488.73" y="415.1851">CatalogoDeLogros</text></g><!--entity scoreAndLevel--><g class="entity" data-qualified-name="scoreAndLevel" data-source-line="26" id="ent0010"><rect fill="#F1F1F1" height="36.2969" rx="2.5" ry="2.5" style="stroke:#181818;stroke-width:0.5;" width="141.8574" x="1985.1" y="392.19"/><text fill="#000000" font-family="sans-serif" font-size="14" lengthAdjust="spacing" textLength="121.8574" x="1995.1" y="415.1851">PuntuacionYNivel</text></g><!--entity unlockRules--><g class="entity" data-qualified-name="unlockRules" data-source-line="27" id="ent0011"><rect fill="#F1F1F1" height="36.2969" rx="2.5" ry="2.5" style="stroke:#181818;stroke-width:0.5;" width="169.3516" x="1270.35" y="392.19"/><text fill="#000000" font-family="sans-serif" font-size="14" lengthAdjust="spacing" textLength="149.3516" x="1280.35" y="415.1851">ReglasDeDesbloqueo</text></g><!--entity achId--><g class="entity" data-qualified-name="achId" data-source-line="32" id="ent0012"><rect fill="#F1F1F1" height="36.2969" rx="2.5" ry="2.5" style="stroke:#181818;stroke-width:0.5;" width="32.7764" x="628.64" y="488.48"/><text fill="#000000" font-family="sans-serif" font-size="14" lengthAdjust="spacing" textLength="12.7764" x="638.64" y="511.4751">id</text></g><!--entity achAchievementId--><g class="entity" data-qualified-name="achAchievementId" data-source-line="33" id="ent0013"><rect fill="#F1F1F1" height="36.2969" rx="2.5" ry="2.5" style="stroke:#181818;stroke-width:0.5;" width="124.1797" x="695.93" y="488.48"/><text fill="#000000" font-family="sans-serif" font-size="14" lengthAdjust="spacing" textLength="104.1797" x="705.93" y="511.4751">achievementId</text></g><!--entity achTitle--><g class="entity" data-qualified-name="achTitle" data-source-line="34" id="ent0014"><rect fill="#F1F1F1" height="36.2969" rx="2.5" ry="2.5" style="stroke:#181818;stroke-width:0.5;" width="56.1963" x="854.93" y="488.48"/><text fill="#000000" font-family="sans-serif" font-size="14" lengthAdjust="spacing" textLength="36.1963" x="864.93" y="511.4751">titulo</text></g><!--entity achDescription--><g class="entity" data-qualified-name="achDescription" data-source-line="35" id="ent0015"><rect fill="#F1F1F1" height="36.2969" rx="2.5" ry="2.5" style="stroke:#181818;stroke-width:0.5;" width="100.0488" x="7" y="488.48"/><text fill="#000000" font-family="sans-serif" font-size="14" lengthAdjust="spacing" textLength="80.0488" x="17" y="511.4751">descripcion</text></g><!--entity achIconName--><g class="entity" data-qualified-name="achIconName" data-source-line="36" id="ent0016"><rect fill="#F1F1F1" height="36.2969" rx="2.5" ry="2.5" style="stroke:#181818;stroke-width:0.5;" width="90.3281" x="141.86" y="488.48"/><text fill="#000000" font-family="sans-serif" font-size="14" lengthAdjust="spacing" textLength="70.3281" x="151.86" y="511.4751">iconName</text></g><!--entity achIsUnlocked--><g class="entity" data-qualified-name="achIsUnlocked" data-source-line="37" id="ent0017"><rect fill="#F1F1F1" height="36.2969" rx="2.5" ry="2.5" style="stroke:#181818;stroke-width:0.5;" width="150.4092" x="266.82" y="488.48"/><text fill="#000000" font-family="sans-serif" font-size="14" lengthAdjust="spacing" textLength="130.4092" x="276.82" y="511.4751">estaDesbloqueado</text></g><!--entity achUnlockedAt--><g class="entity" data-qualified-name="achUnlockedAt" data-source-line="38" id="ent0018"><rect fill="#F1F1F1" height="36.2969" rx="2.5" ry="2.5" style="stroke:#181818;stroke-width:0.5;" width="141.6592" x="452.19" y="488.48"/><text fill="#000000" font-family="sans-serif" font-size="14" lengthAdjust="spacing" textLength="121.6592" x="462.19" y="511.4751">fechaDesbloqueo</text></g><!--entity defId--><g class="entity" data-qualified-name="defId" data-source-line="43" id="ent0019"><rect fill="#F1F1F1" height="36.2969" rx="2.5" ry="2.5" style="stroke:#181818;stroke-width:0.5;" width="32.7764" x="1441.64" y="488.48"/><text fill="#000000" font-family="sans-serif" font-size="14" lengthAdjust="spacing" textLength="12.7764" x="1451.64" y="511.4751">id</text></g><!--entity defTitle--><g class="entity" data-qualified-name="defTitle" data-source-line="44" id="ent0020"><rect fill="#F1F1F1" height="36.2969" rx="2.5" ry="2.5" style="stroke:#181818;stroke-width:0.5;" width="47.3711" x="1635.34" y="488.48"/><text fill="#000000" font-family="sans-serif" font-size="14" lengthAdjust="spacing" textLength="27.3711" x="1645.34" y="511.4751">title</text></g><!--entity defDescription--><g class="entity" data-qualified-name="defDescription" data-source-line="45" id="ent0021"><rect fill="#F1F1F1" height="36.2969" rx="2.5" ry="2.5" style="stroke:#181818;stroke-width:0.5;" width="97.8408" x="1718.1" y="488.48"/><text fill="#000000" font-family="sans-serif" font-size="14" lengthAdjust="spacing" textLength="77.8408" x="1728.1" y="511.4751">description</text></g><!--entity defIconName--><g class="entity" data-qualified-name="defIconName" data-source-line="46" id="ent0022"><rect fill="#F1F1F1" height="36.2969" rx="2.5" ry="2.5" style="stroke:#181818;stroke-width:0.5;" width="90.3281" x="1509.86" y="488.48"/><text fill="#000000" font-family="sans-serif" font-size="14" lengthAdjust="spacing" textLength="70.3281" x="1519.86" y="511.4751">iconName</text></g><!--entity defPoints--><g class="entity" data-qualified-name="defPoints" data-source-line="47" id="ent0023"><rect fill="#F1F1F1" height="36.2969" rx="2.5" ry="2.5" style="stroke:#181818;stroke-width:0.5;" width="62.998" x="1343.53" y="488.48"/><text fill="#000000" font-family="sans-serif" font-size="14" lengthAdjust="spacing" textLength="42.998" x="1353.53" y="511.4751">points</text></g><!--entity totalScore--><g class="entity" data-qualified-name="totalScore" data-source-line="52" id="ent0024"><rect fill="#F1F1F1" height="36.2969" rx="2.5" ry="2.5" style="stroke:#181818;stroke-width:0.5;" width="91.5313" x="1851.26" y="488.48"/><text fill="#000000" font-family="sans-serif" font-size="14" lengthAdjust="spacing" textLength="71.5313" x="1861.26" y="511.4751">totalScore</text></g><!--entity level--><g class="entity" data-qualified-name="level" data-source-line="53" id="ent0025"><rect fill="#F1F1F1" height="36.2969" rx="2.5" ry="2.5" style="stroke:#181818;stroke-width:0.5;" width="53.291" x="1977.38" y="488.48"/><text fill="#000000" font-family="sans-serif" font-size="14" lengthAdjust="spacing" textLength="33.291" x="1987.38" y="511.4751">level</text></g><!--entity levelTitle--><g class="entity" data-qualified-name="levelTitle" data-source-line="54" id="ent0026"><rect fill="#F1F1F1" height="36.2969" rx="2.5" ry="2.5" style="stroke:#181818;stroke-width:0.5;" width="83.7246" x="2066.16" y="488.48"/><text fill="#000000" font-family="sans-serif" font-size="14" lengthAdjust="spacing" textLength="63.7246" x="2076.16" y="511.4751">levelTitle</text></g><!--entity levelIcon--><g class="entity" data-qualified-name="levelIcon" data-source-line="55" id="ent0027"><rect fill="#F1F1F1" height="36.2969" rx="2.5" ry="2.5" style="stroke:#181818;stroke-width:0.5;" width="82.5557" x="2184.75" y="488.48"/><text fill="#000000" font-family="sans-serif" font-size="14" lengthAdjust="spacing" textLength="62.5557" x="2194.75" y="511.4751">levelIcon</text></g><!--entity levelColor--><g class="entity" data-qualified-name="levelColor" data-source-line="56" id="ent0028"><rect fill="#F1F1F1" height="36.2969" rx="2.5" ry="2.5" style="stroke:#181818;stroke-width:0.5;" width="89.8428" x="2302.1" y="488.48"/><text fill="#000000" font-family="sans-serif" font-size="14" lengthAdjust="spacing" textLength="69.8428" x="2312.1" y="511.4751">levelColor</text></g><!--entity habitDoneDates--><g class="entity" data-qualified-name="habitDoneDates" data-source-line="61" id="ent0029"><rect fill="#F1F1F1" height="36.2969" rx="2.5" ry="2.5" style="stroke:#181818;stroke-width:0.5;" width="95.6943" x="1213.18" y="488.48"/><text fill="#000000" font-family="sans-serif" font-size="14" lengthAdjust="spacing" textLength="75.6943" x="1223.18" y="511.4751">doneDates</text></g><!--entity habitScheduledDays--><g class="entity" data-qualified-name="habitScheduledDays" data-source-line="62" id="ent0030"><rect fill="#F1F1F1" height="36.2969" rx="2.5" ry="2.5" style="stroke:#181818;stroke-width:0.5;" width="126.5654" x="945.74" y="488.48"/><text fill="#000000" font-family="sans-serif" font-size="14" lengthAdjust="spacing" textLength="106.5654" x="955.74" y="511.4751">scheduledDays</text></g><!--entity habitPriority--><g class="entity" data-qualified-name="habitPriority" data-source-line="63" id="ent0031"><rect fill="#F1F1F1" height="36.2969" rx="2.5" ry="2.5" style="stroke:#181818;stroke-width:0.5;" width="70.5176" x="1107.77" y="488.48"/><text fill="#000000" font-family="sans-serif" font-size="14" lengthAdjust="spacing" textLength="50.5176" x="1117.77" y="511.4751">priority</text></g><!--link habitFeature to statsFeature--><!--link statsFeature to achievementsFeature--><!--link core to habitFeature--><g class="link" data-entity-1="ent0002" data-entity-2="ent0003" data-link-type="composition" data-source-line="68" id="lnk32"><path d="M1333.75,43.78 C1333.75,71.86 1333.75,121.78 1333.75,121.78 C1333.75,121.78 1318.52,121.78 1295.11,121.78" fill="none" id="core-to-habitFeature" style="stroke:#181818;stroke-width:1;"/><polygon fill="#181818" points="1283.11,121.78,1289.11,125.78,1295.11,121.78,1289.11,117.78,1283.11,121.78" style="stroke:#181818;stroke-width:1;"/></g><!--link core to statsFeature--><g class="link" data-entity-1="ent0002" data-entity-2="ent0004" data-link-type="composition" data-source-line="69" id="lnk33"><path d="M1390.02,43.61 C1390.02,80.43 1390.02,150.56 1390.02,187.33" fill="none" id="core-to-statsFeature" style="stroke:#181818;stroke-width:1;"/><polygon fill="#181818" points="1390.02,199.33,1394.02,193.33,1390.02,187.33,1386.02,193.33,1390.02,199.33" style="stroke:#181818;stroke-width:1;"/></g><!--link core to achievementsFeature--><g class="link" data-entity-1="ent0002" data-entity-2="ent0005" data-link-type="aggregation" data-source-line="70" id="lnk34"><path d="M1444.75,43.56 C1444.75,105.99 1444.75,305.78 1444.75,305.78 C1444.75,305.78 1447.01,305.78 1435.75,305.78" fill="none" id="core-to-achievementsFeature" style="stroke:#181818;stroke-width:1;"/><polygon fill="none" points="1423.75,305.78,1429.75,309.78,1435.75,305.78,1429.75,301.78,1423.75,305.78" style="stroke:#181818;stroke-width:1;"/></g><!--link achievementsFeature to achievementsData--><g class="link" data-entity-1="ent0005" data-entity-2="ent0008" data-link-type="composition" data-source-line="75" id="lnk35"><path d="M1356.16,320.78 C1203.19,320.78 584.02,320.78 584.02,320.78 C584.02,320.78 584.02,353.55 584.02,379.78" fill="none" id="achievementsFeature-to-achievementsData" style="stroke:#181818;stroke-width:1;"/><polygon fill="#181818" points="584.02,391.78,588.02,385.78,584.02,379.78,580.02,385.78,584.02,391.78" style="stroke:#181818;stroke-width:1;"/></g><!--link achievementsFeature to achievementsCatalog--><g class="link" data-entity-1="ent0005" data-entity-2="ent0009" data-link-type="composition" data-source-line="76" id="lnk36"><path d="M1423.8,323.78 C1471.54,323.78 1553.02,323.78 1553.02,323.78 C1553.02,323.78 1553.02,354.57 1553.02,379.98" fill="none" id="achievementsFeature-to-achievementsCatalog" style="stroke:#181818;stroke-width:1;"/><polygon fill="#181818" points="1553.02,391.98,1557.02,385.98,1553.02,379.98,1549.02,385.98,1553.02,391.98" style="stroke:#181818;stroke-width:1;"/></g><!--link achievementsFeature to scoreAndLevel--><g class="link" data-entity-1="ent0005" data-entity-2="ent0010" data-link-type="composition" data-source-line="77" id="lnk37"><path d="M1423.51,314.78 C1558.56,314.78 2056.02,314.78 2056.02,314.78 C2056.02,314.78 2056.02,352.14 2056.02,379.91" fill="none" id="achievementsFeature-to-scoreAndLevel" style="stroke:#181818;stroke-width:1;"/><polygon fill="#181818" points="2056.02,391.91,2060.02,385.91,2056.02,379.91,2052.02,385.91,2056.02,391.91" style="stroke:#181818;stroke-width:1;"/></g><!--link achievementsFeature to unlockRules--><g class="link" data-entity-1="ent0005" data-entity-2="ent0011" data-link-type="composition" data-source-line="78" id="lnk38"><path d="M1390.02,332.6 C1390.02,349.66 1390.02,362.79 1390.02,379.82" fill="none" id="achievementsFeature-to-unlockRules" style="stroke:#181818;stroke-width:1;"/><polygon fill="#181818" points="1390.02,391.82,1394.02,385.82,1390.02,379.82,1386.02,385.82,1390.02,391.82" style="stroke:#181818;stroke-width:1;"/></g><!--link achievementsData to achId--><g class="link" data-entity-1="ent0008" data-entity-2="ent0012" data-link-type="composition" data-source-line="83" id="lnk39"><path d="M641.9,428.9 C641.9,445.95 641.9,459.09 641.9,476.12" fill="none" id="achievementsData-to-achId" style="stroke:#181818;stroke-width:1;"/><polygon fill="#181818" points="641.9,488.12,645.9,482.12,641.9,476.12,637.9,482.12,641.9,488.12" style="stroke:#181818;stroke-width:1;"/></g><!--link achievementsData to achAchievementId--><g class="link" data-entity-1="ent0008" data-entity-2="ent0013" data-link-type="composition" data-source-line="84" id="lnk40"><path d="M655.55,421.78 C703.54,421.78 758.02,421.78 758.02,421.78 C758.02,421.78 758.02,451.26 758.02,476.22" fill="none" id="achievementsData-to-achAchievementId" style="stroke:#181818;stroke-width:1;"/><polygon fill="#181818" points="758.02,488.22,762.02,482.22,758.02,476.22,754.02,482.22,758.02,488.22" style="stroke:#181818;stroke-width:1;"/></g><!--link achievementsData to achTitle--><g class="link" data-entity-1="ent0008" data-entity-2="ent0014" data-link-type="composition" data-source-line="85" id="lnk41"><path d="M655.64,406.78 C744.1,406.78 883.02,406.78 883.02,406.78 C883.02,406.78 883.02,447.49 883.02,476.32" fill="none" id="achievementsData-to-achTitle" style="stroke:#181818;stroke-width:1;"/><polygon fill="#181818" points="883.02,488.32,887.02,482.32,883.02,476.32,879.02,482.32,883.02,488.32" style="stroke:#181818;stroke-width:1;"/></g><!--link achievementsData to achDescription--><g class="link" data-entity-1="ent0008" data-entity-2="ent0015" data-link-type="composition" data-source-line="86" id="lnk42"><path d="M512.4,401.78 C368.31,401.78 57.02,401.78 57.02,401.78 C57.02,401.78 57.02,446.33 57.02,476.37" fill="none" id="achievementsData-to-achDescription" style="stroke:#181818;stroke-width:1;"/><polygon fill="#181818" points="57.02,488.37,61.02,482.37,57.02,476.37,53.02,482.37,57.02,488.37" style="stroke:#181818;stroke-width:1;"/></g><!--link achievementsData to achIconName--><g class="link" data-entity-1="ent0008" data-entity-2="ent0016" data-link-type="composition" data-source-line="87" id="lnk43"><path d="M512.59,410.78 C398.29,410.78 187.02,410.78 187.02,410.78 C187.02,410.78 187.02,448.3 187.02,476.15" fill="none" id="achievementsData-to-achIconName" style="stroke:#181818;stroke-width:1;"/><polygon fill="#181818" points="187.02,488.15,191.02,482.15,187.02,476.15,183.02,482.15,187.02,488.15" style="stroke:#181818;stroke-width:1;"/></g><!--link achievementsData to achIsUnlocked--><g class="link" data-entity-1="ent0008" data-entity-2="ent0017" data-link-type="composition" data-source-line="88" id="lnk44"><path d="M512.4,419.78 C441.04,419.78 342.02,419.78 342.02,419.78 C342.02,419.78 342.02,450.72 342.02,476.21" fill="none" id="achievementsData-to-achIsUnlocked" style="stroke:#181818;stroke-width:1;"/><polygon fill="#181818" points="342.02,488.21,346.02,482.21,342.02,476.21,338.02,482.21,342.02,488.21" style="stroke:#181818;stroke-width:1;"/></g><!--link achievementsData to achUnlockedAt--><g class="link" data-entity-1="ent0008" data-entity-2="ent0018" data-link-type="composition" data-source-line="89" id="lnk45"><path d="M553.37,428.9 C553.37,445.95 553.37,459.09 553.37,476.12" fill="none" id="achievementsData-to-achUnlockedAt" style="stroke:#181818;stroke-width:1;"/><polygon fill="#181818" points="553.37,488.12,557.37,482.12,553.37,476.12,549.37,482.12,553.37,488.12" style="stroke:#181818;stroke-width:1;"/></g><!--link achievementsCatalog to defId--><g class="link" data-entity-1="ent0009" data-entity-2="ent0019" data-link-type="composition" data-source-line="94" id="lnk46"><path d="M1478.42,416.78 C1469.06,416.78 1462.69,416.78 1462.69,416.78 C1462.69,416.78 1462.69,449.7 1462.69,476.01" fill="none" id="achievementsCatalog-to-defId" style="stroke:#181818;stroke-width:1;"/><polygon fill="#181818" points="1462.69,488.01,1466.69,482.01,1462.69,476.01,1458.69,482.01,1462.69,488.01" style="stroke:#181818;stroke-width:1;"/></g><!--link achievementsCatalog to defTitle--><g class="link" data-entity-1="ent0009" data-entity-2="ent0020" data-link-type="composition" data-source-line="95" id="lnk47"><path d="M1613.75,428.93 C1613.75,456.96 1613.75,506.78 1613.75,506.78 C1613.75,506.78 1612.2,506.78 1623.06,506.78" fill="none" id="achievementsCatalog-to-defTitle" style="stroke:#181818;stroke-width:1;"/><polygon fill="#181818" points="1635.06,506.78,1629.06,502.78,1623.06,506.78,1629.06,510.78,1635.06,506.78" style="stroke:#181818;stroke-width:1;"/></g><!--link achievementsCatalog to defDescription--><g class="link" data-entity-1="ent0009" data-entity-2="ent0021" data-link-type="composition" data-source-line="96" id="lnk48"><path d="M1627.57,404.78 C1689.33,404.78 1767.02,404.78 1767.02,404.78 C1767.02,404.78 1767.02,447.13 1767.02,476.42" fill="none" id="achievementsCatalog-to-defDescription" style="stroke:#181818;stroke-width:1;"/><polygon fill="#181818" points="1767.02,488.42,1771.02,482.42,1767.02,476.42,1763.02,482.42,1767.02,488.42" style="stroke:#181818;stroke-width:1;"/></g><!--link achievementsCatalog to defIconName--><g class="link" data-entity-1="ent0009" data-entity-2="ent0022" data-link-type="composition" data-source-line="97" id="lnk49"><path d="M1555.02,428.9 C1555.02,445.95 1555.02,459.09 1555.02,476.12" fill="none" id="achievementsCatalog-to-defIconName" style="stroke:#181818;stroke-width:1;"/><polygon fill="#181818" points="1555.02,488.12,1559.02,482.12,1555.02,476.12,1551.02,482.12,1555.02,488.12" style="stroke:#181818;stroke-width:1;"/></g><!--link achievementsCatalog to defPoints--><g class="link" data-entity-1="ent0009" data-entity-2="ent0023" data-link-type="composition" data-source-line="98" id="lnk50"><path d="M1494.29,428.93 C1494.29,442.59 1494.29,458.78 1494.29,458.78 C1494.29,458.78 1385.52,458.78 1385.52,458.78 C1385.52,458.78 1385.52,462.56 1385.52,475.99" fill="none" id="achievementsCatalog-to-defPoints" style="stroke:#181818;stroke-width:1;"/><polygon fill="#181818" points="1385.52,487.99,1389.52,481.99,1385.52,475.99,1381.52,481.99,1385.52,487.99" style="stroke:#181818;stroke-width:1;"/></g><!--link scoreAndLevel to totalScore--><g class="link" data-entity-1="ent0010" data-entity-2="ent0024" data-link-type="composition" data-source-line="103" id="lnk51"><path d="M1984.9,416.78 C1942.56,416.78 1897.02,416.78 1897.02,416.78 C1897.02,416.78 1897.02,449.7 1897.02,476.01" fill="none" id="scoreAndLevel-to-totalScore" style="stroke:#181818;stroke-width:1;"/><polygon fill="#181818" points="1897.02,488.01,1901.02,482.01,1897.02,476.01,1893.02,482.01,1897.02,488.01" style="stroke:#181818;stroke-width:1;"/></g><!--link scoreAndLevel to level--><g class="link" data-entity-1="ent0010" data-entity-2="ent0025" data-link-type="composition" data-source-line="104" id="lnk52"><path d="M2007.88,428.9 C2007.88,445.95 2007.88,459.09 2007.88,476.12" fill="none" id="scoreAndLevel-to-level" style="stroke:#181818;stroke-width:1;"/><polygon fill="#181818" points="2007.88,488.12,2011.88,482.12,2007.88,476.12,2003.88,482.12,2007.88,488.12" style="stroke:#181818;stroke-width:1;"/></g><!--link scoreAndLevel to levelTitle--><g class="link" data-entity-1="ent0010" data-entity-2="ent0026" data-link-type="composition" data-source-line="105" id="lnk53"><path d="M2096.56,428.9 C2096.56,445.95 2096.56,459.09 2096.56,476.12" fill="none" id="scoreAndLevel-to-levelTitle" style="stroke:#181818;stroke-width:1;"/><polygon fill="#181818" points="2096.56,488.12,2100.56,482.12,2096.56,476.12,2092.56,482.12,2096.56,488.12" style="stroke:#181818;stroke-width:1;"/></g><!--link scoreAndLevel to levelIcon--><g class="link" data-entity-1="ent0010" data-entity-2="ent0027" data-link-type="composition" data-source-line="106" id="lnk54"><path d="M2127.13,416.78 C2173.72,416.78 2226.02,416.78 2226.02,416.78 C2226.02,416.78 2226.02,449.7 2226.02,476.01" fill="none" id="scoreAndLevel-to-levelIcon" style="stroke:#181818;stroke-width:1;"/><polygon fill="#181818" points="2226.02,488.01,2230.02,482.01,2226.02,476.01,2222.02,482.01,2226.02,488.01" style="stroke:#181818;stroke-width:1;"/></g><!--link scoreAndLevel to levelColor--><g class="link" data-entity-1="ent0010" data-entity-2="ent0028" data-link-type="composition" data-source-line="107" id="lnk55"><path d="M2127.21,404.78 C2213.36,404.78 2347.02,404.78 2347.02,404.78 C2347.02,404.78 2347.02,447.13 2347.02,476.42" fill="none" id="scoreAndLevel-to-levelColor" style="stroke:#181818;stroke-width:1;"/><polygon fill="#181818" points="2347.02,488.42,2351.02,482.42,2347.02,476.42,2343.02,482.42,2347.02,488.42" style="stroke:#181818;stroke-width:1;"/></g><!--link habitFeature to habitDoneDates--><g class="link" data-entity-1="ent0003" data-entity-2="ent0029" data-link-type="composition" data-source-line="112" id="lnk56"><path d="M1243.7,140.02 C1243.7,205.24 1243.7,411.31 1243.7,476.24" fill="none" id="habitFeature-to-habitDoneDates" style="stroke:#181818;stroke-width:1;"/><polygon fill="#181818" points="1243.7,488.24,1247.7,482.24,1243.7,476.24,1239.7,482.24,1243.7,488.24" style="stroke:#181818;stroke-width:1;"/></g><!--link habitFeature to habitScheduledDays--><g class="link" data-entity-1="ent0003" data-entity-2="ent0030" data-link-type="composition" data-source-line="113" id="lnk57"><path d="M1216.56,115.78 C1145.91,115.78 987.93,115.78 987.93,115.78 C987.93,115.78 987.93,398.37 987.93,476.04" fill="none" id="habitFeature-to-habitScheduledDays" style="stroke:#181818;stroke-width:1;"/><polygon fill="#181818" points="987.93,488.04,991.93,482.04,987.93,476.04,983.93,482.04,987.93,488.04" style="stroke:#181818;stroke-width:1;"/></g><!--link habitFeature to habitPriority--><g class="link" data-entity-1="ent0003" data-entity-2="ent0031" data-link-type="composition" data-source-line="114" id="lnk58"><path d="M1216.63,127.78 C1181.5,127.78 1131.27,127.78 1131.27,127.78 C1131.27,127.78 1131.27,400.04 1131.27,476.1" fill="none" id="habitFeature-to-habitPriority" style="stroke:#181818;stroke-width:1;"/><polygon fill="#181818" points="1131.27,488.1,1135.27,482.1,1131.27,476.1,1127.27,482.1,1131.27,488.1" style="stroke:#181818;stroke-width:1;"/></g><!--link achievementsFeature to habitFeature--><g class="link" data-entity-1="ent0005" data-entity-2="ent0003" data-link-type="dependency" data-source-line="119" id="lnk59"><path d="M1356.32,308.78 C1322.24,308.78 1274.56,308.78 1274.56,308.78 C1274.56,308.78 1274.56,193.48 1274.56,146.09" fill="none" id="achievementsFeature-to-habitFeature" style="stroke:#181818;stroke-width:1;stroke-dasharray:7,7;"/><polygon fill="#181818" points="1274.56,140.09,1270.56,149.09,1274.56,145.09,1278.56,149.09,1274.56,140.09" style="stroke:#181818;stroke-width:1;"/><text fill="#000000" font-family="sans-serif" font-size="13" lengthAdjust="spacing" textLength="35.5532" x="1238.56" y="261.3769">exige</text></g><!--link unlockRules to habitDoneDates--><g class="link" data-entity-1="ent0011" data-entity-2="ent0029" data-link-type="dependency" data-source-line="121" id="lnk60"><path d="M1289.61,428.9 C1289.61,445.95 1289.61,465.09 1289.61,482.12" fill="none" id="unlockRules-to-habitDoneDates" style="stroke:#181818;stroke-width:1;stroke-dasharray:7,7;"/><polygon fill="#181818" points="1289.61,488.12,1293.61,479.12,1289.61,483.12,1285.61,479.12,1289.61,488.12" style="stroke:#181818;stroke-width:1;"/><text fill="#000000" font-family="sans-serif" font-size="13" lengthAdjust="spacing" textLength="35.5532" x="1253.61" y="454.5769">exige</text></g><!--link unlockRules to habitScheduledDays--><g class="link" data-entity-1="ent0011" data-entity-2="ent0030" data-link-type="dependency" data-source-line="122" id="lnk61"><path d="M1270.08,399.78 C1173.82,399.78 1030.12,399.78 1030.12,399.78 C1030.12,399.78 1030.12,451.41 1030.12,482.02" fill="none" id="unlockRules-to-habitScheduledDays" style="stroke:#181818;stroke-width:1;stroke-dasharray:7,7;"/><polygon fill="#181818" points="1030.12,488.02,1034.12,479.02,1030.12,483.02,1026.12,479.02,1030.12,488.02" style="stroke:#181818;stroke-width:1;"/><text fill="#000000" font-family="sans-serif" font-size="13" lengthAdjust="spacing" textLength="35.5532" x="1069.98" y="395.8469">exige</text></g><!--link unlockRules to habitPriority--><g class="link" data-entity-1="ent0011" data-entity-2="ent0031" data-link-type="dependency" data-source-line="123" id="lnk62"><path d="M1270.1,414.78 C1215.52,414.78 1154.78,414.78 1154.78,414.78 C1154.78,414.78 1154.78,455.2 1154.78,482.04" fill="none" id="unlockRules-to-habitPriority" style="stroke:#181818;stroke-width:1;stroke-dasharray:7,7;"/><polygon fill="#181818" points="1154.78,488.04,1158.78,479.04,1154.78,483.04,1150.78,479.04,1154.78,488.04" style="stroke:#181818;stroke-width:1;"/><text fill="#000000" font-family="sans-serif" font-size="13" lengthAdjust="spacing" textLength="35.5532" x="1139.81" y="410.8469">exige</text></g><!--link unlockRules to defId--><g class="link" data-entity-1="ent0011" data-entity-2="ent0019" data-link-type="dependency" data-source-line="124" id="lnk63"><path d="M1439.94,404.78 C1444.86,404.78 1447.86,404.78 1447.86,404.78 C1447.86,404.78 1447.86,453.13 1447.86,482.42" fill="none" id="unlockRules-to-defId" style="stroke:#181818;stroke-width:1;stroke-dasharray:7,7;"/><polygon fill="#181818" points="1447.86,488.42,1451.86,479.42,1447.86,483.42,1443.86,479.42,1447.86,488.42" style="stroke:#181818;stroke-width:1;"/><text fill="#000000" font-family="sans-serif" font-size="13" lengthAdjust="spacing" textLength="35.5532" x="1411.86" y="455.7069">exige</text></g><!--link unlockRules to defPoints--><g class="link" data-entity-1="ent0011" data-entity-2="ent0023" data-link-type="dependency" data-source-line="125" id="lnk64"><path d="M1364.52,428.9 C1364.52,445.95 1364.52,465.09 1364.52,482.12" fill="none" id="unlockRules-to-defPoints" style="stroke:#181818;stroke-width:1;stroke-dasharray:7,7;"/><polygon fill="#181818" points="1364.52,488.12,1368.52,479.12,1364.52,483.12,1360.52,479.12,1364.52,488.12" style="stroke:#181818;stroke-width:1;"/><text fill="#000000" font-family="sans-serif" font-size="13" lengthAdjust="spacing" textLength="35.5532" x="1328.52" y="454.5769">exige</text></g><?plantuml-src dPPHRfim6CVVSmghBsidfNklj4a4t1Of1GIaMXNrmGKtiUfW1gPQBh03x0Oxm4xHc-maCmQCQUA4j0zf_Ns_vlF_Z_rFECi1P-29SSus82K5JZXXsQHy8LcE2hG12TlaBCCPZ_YMOb03A5jHh26KP9XlSmnOmTTiCla4lff-HC_sxmBVWruCmSoAu45wUOkU2BVo7DYim8y0bM8_1JusuXfQyIA44GX2rxFTm9h3wCYSjpzY49CJrlNCQunu9IOjOSbH-lQtv2H1fUoB0YzLVyvM1MiQA5aJ_8etmYpL5sFdQCigVWLGxHCgm7FJAW7E04LWGyeD0i-4eea-6KoNQvAcE7kS3YVg2nqoJ3_aKxIOJPLN3WHp_oRqZpZLw0rmKHBXIRf7keCucYnjyKhPYZdOu50BJ9P1bV4A9UBOFNZa5TF6vFevMraw5pYTB4EyegXqi8FB9yf-LBXvL5L6MV8ILXINnxHQSUZE5h4VWIcmx5iNtiCxSGZ1UQwaN1ny2tKHm1b9prerRghNDNckGYozgDESy8go3ei95vTAQwUuJ0gIrxvqZDEKv0tLjvEmp4CRh3RLhdK6YsEZp4Ef6kkM2-aX7cpj6IVh7bTmXrhy5BSTUErwRkpw7ZXF47_xKn-BKxrEyVEEUnHtBPDvl3DFC6FCgwViCIzdH1pOZWZawXG7WeKNBooxTk0ByDnxE1-hdZDnIQBwBiZf_LA7Q7r7P5_-jTEAbLNzSWUgTVTClTf1R4PPqJDoETu6aI-trioD_R7QK_5RP0bkZ9VPw7GbdIkJDKv51AGEscfif9S7JxCWh21yswD1Mpac9eHp-HH5Mjf-2C6_Nx_LPyqHLNLMJpyFFrjKTP3lRPLz9D2R09VxqhFzu7_j6ICtjHFfOy0kr4tiCDPDr0cntYeEO1YvKUmwhNfrx4PBhoLsSaJIc5h3D3THpHKpTVKaCcwXYo4Zq0Ut2HaVrxOLMy99_uFUjKzTpcs2-a1trvjtWCcUzrFsEVIE6HVLMZm_DF5yWW-34otdQY6zssmIsb1lh34qPIGRUgEYk4dV4wGDluvswTLdyFx-C7VtCsC3ru41z1meliDR4JY7tzqRU75oc5rUVXlaBhW2-2TPYJ3LSgQdb3x5xSK6CW-ZdLeZ9U_CeMvpZZlYFm00?></g></svg>