<?plantuml 1.2026.1beta2?><svg xmlns="http://www.w3.org/2000/svg" xmlns:xlink="http://www.w3.org/1999/xlink" contentStyleType="text/css" data-diagram-type="DESCRIPTION" height="723px" preserveAspectRatio="none" style="width:2134px;height:723px;background:#FFFFFF;" version="1.1" viewBox="0 0 2134 723" width="2134px" zoomAndPan="magnify"><defs/><g><!--entity core--><g class="entity" data-qualified-name="core" data-source-line="6" id="ent0002"><rect fill="#F1F1F1" height="36.2969" rx="2.5" ry="2.5" style="stroke:#181818;stroke-width:0.5;" width="121.8828" x="226.52" y="7"/><text fill="#000000" font-family="sans-serif" font-size="14" lengthAdjust="spacing" textLength="101.8828" x="236.52" y="29.9951">HabitApp Core</text></g><!--entity habit--><g class="entity" data-qualified-name="habit" data-source-line="9" id="ent0003"><rect fill="#F1F1F1" height="36.2969" rx="2.5" ry="2.5" style="stroke:#181818;stroke-width:0.5;" width="65.9375" x="211.5" y="103.29"/><text fill="#000000" font-family="sans-serif" font-size="14" lengthAdjust="spacing" textLength="45.9375" x="221.5" y="126.2851">H&#225;bito</text></g><!--entity stats--><g class="entity" data-qualified-name="stats" data-source-line="10" id="ent0004"><rect fill="#F1F1F1" height="36.2969" rx="2.5" ry="2.5" style="stroke:#181818;stroke-width:0.5;" width="103.2275" x="288.85" y="199.59"/><text fill="#000000" font-family="sans-serif" font-size="14" lengthAdjust="spacing" textLength="83.2275" x="298.85" y="222.5851">Estad&#237;sticas</text></g><!--entity habitId--><g class="entity" data-qualified-name="habitId" data-source-line="16" id="ent0006"><rect fill="#F1F1F1" height="36.2969" rx="2.5" ry="2.5" style="stroke:#181818;stroke-width:0.5;" width="32.7764" x="9.08" y="295.89"/><text fill="#000000" font-family="sans-serif" font-size="14" lengthAdjust="spacing" textLength="12.7764" x="19.08" y="318.8851">id</text></g><!--entity habitTitle--><g class="entity" data-qualified-name="habitTitle" data-source-line="17" id="ent0007"><rect fill="#F1F1F1" height="36.2969" rx="2.5" ry="2.5" style="stroke:#181818;stroke-width:0.5;" width="56.1963" x="76.37" y="295.89"/><text fill="#000000" font-family="sans-serif" font-size="14" lengthAdjust="spacing" textLength="36.1963" x="86.37" y="318.8851">t&#237;tulo</text></g><!--entity habitIsCompleted--><g class="entity" data-qualified-name="habitIsCompleted" data-source-line="18" id="ent0008"><rect fill="#F1F1F1" height="36.2969" rx="2.5" ry="2.5" style="stroke:#181818;stroke-width:0.5;" width="134.8643" x="168.03" y="295.89"/><text fill="#000000" font-family="sans-serif" font-size="14" lengthAdjust="spacing" textLength="114.8643" x="178.03" y="318.8851">estaCompletado</text></g><!--entity habitCompletionDates--><g class="entity" data-qualified-name="habitCompletionDates" data-source-line="19" id="ent0009"><rect fill="#F1F1F1" height="36.2969" rx="2.5" ry="2.5" style="stroke:#181818;stroke-width:0.5;" width="148.3789" x="810.28" y="295.89"/><text fill="#000000" font-family="sans-serif" font-size="14" lengthAdjust="spacing" textLength="128.3789" x="820.28" y="318.8851">fechasCompleci&#243;n</text></g><!--entity statsDiarias--><g class="entity" data-qualified-name="statsDiarias" data-source-line="22" id="ent0010"><rect fill="#F1F1F1" height="36.2969" rx="2.5" ry="2.5" style="stroke:#181818;stroke-width:0.5;" width="151.9951" x="337.47" y="295.89"/><text fill="#000000" font-family="sans-serif" font-size="14" lengthAdjust="spacing" textLength="131.9951" x="347.47" y="318.8851">Estad&#237;sticasDiarias</text></g><!--entity statsSemanales--><g class="entity" data-qualified-name="statsSemanales" data-source-line="23" id="ent0011"><rect fill="#F1F1F1" height="36.2969" rx="2.5" ry="2.5" style="stroke:#181818;stroke-width:0.5;" width="180.1934" x="595.37" y="295.89"/><text fill="#000000" font-family="sans-serif" font-size="14" lengthAdjust="spacing" textLength="160.1934" x="605.37" y="318.8851">Estad&#237;sticasSemanales</text></g><!--entity statsSemanalesGenerales--><g class="entity" data-qualified-name="statsSemanalesGenerales" data-source-line="26" id="ent0012"><rect fill="#F1F1F1" height="36.2969" rx="2.5" ry="2.5" style="stroke:#181818;stroke-width:0.5;" width="251.2734" x="1556.83" y="392.18"/><text fill="#000000" font-family="sans-serif" font-size="14" lengthAdjust="spacing" textLength="231.2734" x="1566.83" y="415.1751">Estad&#237;sticasSemanalesGenerales</text></g><!--entity statsSemanalesPorHabito--><g class="entity" data-qualified-name="statsSemanalesPorHabito" data-source-line="27" id="ent0013"><rect fill="#F1F1F1" height="36.2969" rx="2.5" ry="2.5" style="stroke:#181818;stroke-width:0.5;" width="248.8945" x="733.02" y="392.18"/><text fill="#000000" font-family="sans-serif" font-size="14" lengthAdjust="spacing" textLength="228.8945" x="743.02" y="415.1751">Estad&#237;sticasSemanalesPorH&#225;bito</text></g><!--entity datosPeriodo--><g class="entity" data-qualified-name="datosPeriodo" data-source-line="30" id="ent0014"><rect fill="#F1F1F1" height="36.2969" rx="2.5" ry="2.5" style="stroke:#181818;stroke-width:0.5;" width="113.4268" x="578.75" y="584.78"/><text fill="#000000" font-family="sans-serif" font-size="14" lengthAdjust="spacing" textLength="93.4268" x="588.75" y="607.7751">DatosPeriodo</text></g><!--entity sdFecha--><g class="entity" data-qualified-name="sdFecha" data-source-line="33" id="ent0015"><rect fill="#F1F1F1" height="36.2969" rx="2.5" ry="2.5" style="stroke:#181818;stroke-width:0.5;" width="58.6914" x="8.12" y="392.18"/><text fill="#000000" font-family="sans-serif" font-size="14" lengthAdjust="spacing" textLength="38.6914" x="18.12" y="415.1751">fecha</text></g><!--entity sdTotalCompletados--><g class="entity" data-qualified-name="sdTotalCompletados" data-source-line="34" id="ent0016"><rect fill="#F1F1F1" height="36.2969" rx="2.5" ry="2.5" style="stroke:#181818;stroke-width:0.5;" width="144.1953" x="101.37" y="392.18"/><text fill="#000000" font-family="sans-serif" font-size="14" lengthAdjust="spacing" textLength="124.1953" x="111.37" y="415.1751">totalCompletados</text></g><!--entity sdTotalEsperados--><g class="entity" data-qualified-name="sdTotalEsperados" data-source-line="35" id="ent0017"><rect fill="#F1F1F1" height="36.2969" rx="2.5" ry="2.5" style="stroke:#181818;stroke-width:0.5;" width="124.7334" x="280.1" y="392.18"/><text fill="#000000" font-family="sans-serif" font-size="14" lengthAdjust="spacing" textLength="104.7334" x="290.1" y="415.1751">totalEsperados</text></g><!--entity sdTasa--><g class="entity" data-qualified-name="sdTasa" data-source-line="36" id="ent0018"><rect fill="#F1F1F1" height="36.2969" rx="2.5" ry="2.5" style="stroke:#181818;stroke-width:0.5;" width="49.9414" x="439.49" y="392.18"/><text fill="#000000" font-family="sans-serif" font-size="14" lengthAdjust="spacing" textLength="29.9414" x="449.49" y="415.1751">tasa</text></g><!--entity esgSemana--><g class="entity" data-qualified-name="esgSemana" data-source-line="39" id="ent0019"><rect fill="#F1F1F1" height="36.2969" rx="2.5" ry="2.5" style="stroke:#181818;stroke-width:0.5;" width="75.5762" x="1458.68" y="488.48"/><text fill="#000000" font-family="sans-serif" font-size="14" lengthAdjust="spacing" textLength="55.5762" x="1468.68" y="511.4751">semana</text></g><!--entity esgPeriodos--><g class="entity" data-qualified-name="esgPeriodos" data-source-line="40" id="ent0020"><rect fill="#F1F1F1" height="36.2969" rx="2.5" ry="2.5" style="stroke:#181818;stroke-width:0.5;" width="80.457" x="1569.24" y="488.48"/><text fill="#000000" font-family="sans-serif" font-size="14" lengthAdjust="spacing" textLength="60.457" x="1579.24" y="511.4751">periodos</text></g><!--entity esgTotalCompletados--><g class="entity" data-qualified-name="esgTotalCompletados" data-source-line="41" id="ent0021"><rect fill="#F1F1F1" height="36.2969" rx="2.5" ry="2.5" style="stroke:#181818;stroke-width:0.5;" width="144.1953" x="1684.37" y="488.48"/><text fill="#000000" font-family="sans-serif" font-size="14" lengthAdjust="spacing" textLength="124.1953" x="1694.37" y="511.4751">totalCompletados</text></g><!--entity esgTotalEsperados--><g class="entity" data-qualified-name="esgTotalEsperados" data-source-line="42" id="ent0022"><rect fill="#F1F1F1" height="36.2969" rx="2.5" ry="2.5" style="stroke:#181818;stroke-width:0.5;" width="124.7334" x="1863.1" y="488.48"/><text fill="#000000" font-family="sans-serif" font-size="14" lengthAdjust="spacing" textLength="104.7334" x="1873.1" y="511.4751">totalEsperados</text></g><!--entity esgTasaGeneral--><g class="entity" data-qualified-name="esgTasaGeneral" data-source-line="43" id="ent0023"><rect fill="#F1F1F1" height="36.2969" rx="2.5" ry="2.5" style="stroke:#181818;stroke-width:0.5;" width="105.1143" x="2022.91" y="488.48"/><text fill="#000000" font-family="sans-serif" font-size="14" lengthAdjust="spacing" textLength="85.1143" x="2032.91" y="511.4751">tasaGeneral</text></g><!--entity eshId--><g class="entity" data-qualified-name="eshId" data-source-line="46" id="ent0024"><rect fill="#F1F1F1" height="36.2969" rx="2.5" ry="2.5" style="stroke:#181818;stroke-width:0.5;" width="32.7764" x="711.08" y="488.48"/><text fill="#000000" font-family="sans-serif" font-size="14" lengthAdjust="spacing" textLength="12.7764" x="721.08" y="511.4751">id</text></g><!--entity eshTitulo--><g class="entity" data-qualified-name="eshTitulo" data-source-line="47" id="ent0025"><rect fill="#F1F1F1" height="36.2969" rx="2.5" ry="2.5" style="stroke:#181818;stroke-width:0.5;" width="56.1963" x="778.37" y="488.48"/><text fill="#000000" font-family="sans-serif" font-size="14" lengthAdjust="spacing" textLength="36.1963" x="788.37" y="511.4751">t&#237;tulo</text></g><!--entity eshSemana--><g class="entity" data-qualified-name="eshSemana" data-source-line="48" id="ent0026"><rect fill="#F1F1F1" height="36.2969" rx="2.5" ry="2.5" style="stroke:#181818;stroke-width:0.5;" width="75.5762" x="869.68" y="488.48"/><text fill="#000000" font-family="sans-serif" font-size="14" lengthAdjust="spacing" textLength="55.5762" x="879.68" y="511.4751">semana</text></g><!--entity eshPeriodos--><g class="entity" data-qualified-name="eshPeriodos" data-source-line="49" id="ent0027"><rect fill="#F1F1F1" height="36.2969" rx="2.5" ry="2.5" style="stroke:#181818;stroke-width:0.5;" width="80.457" x="595.24" y="488.48"/><text fill="#000000" font-family="sans-serif" font-size="14" lengthAdjust="spacing" textLength="60.457" x="605.24" y="511.4751">periodos</text></g><!--entity eshTotalCompletados--><g class="entity" data-qualified-name="eshTotalCompletados" data-source-line="50" id="ent0028"><rect fill="#F1F1F1" height="36.2969" rx="2.5" ry="2.5" style="stroke:#181818;stroke-width:0.5;" width="144.1953" x="980.37" y="488.48"/><text fill="#000000" font-family="sans-serif" font-size="14" lengthAdjust="spacing" textLength="124.1953" x="990.37" y="511.4751">totalCompletados</text></g><!--entity eshTotalEsperados--><g class="entity" data-qualified-name="eshTotalEsperados" data-source-line="51" id="ent0029"><rect fill="#F1F1F1" height="36.2969" rx="2.5" ry="2.5" style="stroke:#181818;stroke-width:0.5;" width="124.7334" x="1159.1" y="488.48"/><text fill="#000000" font-family="sans-serif" font-size="14" lengthAdjust="spacing" textLength="104.7334" x="1169.1" y="511.4751">totalEsperados</text></g><!--entity eshTasaGeneral--><g class="entity" data-qualified-name="eshTasaGeneral" data-source-line="52" id="ent0030"><rect fill="#F1F1F1" height="36.2969" rx="2.5" ry="2.5" style="stroke:#181818;stroke-width:0.5;" width="105.1143" x="1318.91" y="488.48"/><text fill="#000000" font-family="sans-serif" font-size="14" lengthAdjust="spacing" textLength="85.1143" x="1328.91" y="511.4751">tasaGeneral</text></g><!--entity dpId--><g class="entity" data-qualified-name="dpId" data-source-line="55" id="ent0031"><rect fill="#F1F1F1" height="36.2969" rx="2.5" ry="2.5" style="stroke:#181818;stroke-width:0.5;" width="32.7764" x="365.08" y="681.07"/><text fill="#000000" font-family="sans-serif" font-size="14" lengthAdjust="spacing" textLength="12.7764" x="375.08" y="704.0651">id</text></g><!--entity dpEtiqueta--><g class="entity" data-qualified-name="dpEtiqueta" data-source-line="56" id="ent0032"><rect fill="#F1F1F1" height="36.2969" rx="2.5" ry="2.5" style="stroke:#181818;stroke-width:0.5;" width="78.4336" x="433.25" y="681.07"/><text fill="#000000" font-family="sans-serif" font-size="14" lengthAdjust="spacing" textLength="58.4336" x="443.25" y="704.0651">etiqueta</text></g><!--entity dpFecha--><g class="entity" data-qualified-name="dpFecha" data-source-line="57" id="ent0033"><rect fill="#F1F1F1" height="36.2969" rx="2.5" ry="2.5" style="stroke:#181818;stroke-width:0.5;" width="58.6914" x="547.12" y="681.07"/><text fill="#000000" font-family="sans-serif" font-size="14" lengthAdjust="spacing" textLength="38.6914" x="557.12" y="704.0651">fecha</text></g><!--entity dpCompletados--><g class="entity" data-qualified-name="dpCompletados" data-source-line="58" id="ent0034"><rect fill="#F1F1F1" height="36.2969" rx="2.5" ry="2.5" style="stroke:#181818;stroke-width:0.5;" width="110.1045" x="640.41" y="681.07"/><text fill="#000000" font-family="sans-serif" font-size="14" lengthAdjust="spacing" textLength="90.1045" x="650.41" y="704.0651">completados</text></g><!--entity dpEsperados--><g class="entity" data-qualified-name="dpEsperados" data-source-line="59" id="ent0035"><rect fill="#F1F1F1" height="36.2969" rx="2.5" ry="2.5" style="stroke:#181818;stroke-width:0.5;" width="92.4883" x="785.22" y="681.07"/><text fill="#000000" font-family="sans-serif" font-size="14" lengthAdjust="spacing" textLength="72.4883" x="795.22" y="704.0651">esperados</text></g><!--entity dpTasa--><g class="entity" data-qualified-name="dpTasa" data-source-line="60" id="ent0036"><rect fill="#F1F1F1" height="36.2969" rx="2.5" ry="2.5" style="stroke:#181818;stroke-width:0.5;" width="49.9414" x="912.49" y="681.07"/><text fill="#000000" font-family="sans-serif" font-size="14" lengthAdjust="spacing" textLength="29.9414" x="922.49" y="704.0651">tasa</text></g><!--link habit to stats--><!--link core to habit--><g class="link" data-entity-1="ent0002" data-entity-2="ent0003" data-link-type="composition" data-source-line="63" id="lnk37"><path d="M251.98,43.71 C251.98,60.76 251.98,73.9 251.98,90.93" fill="none" id="core-to-habit" style="stroke:#181818;stroke-width:1;"/><polygon fill="#181818" points="251.98,102.93,255.98,96.93,251.98,90.93,247.98,96.93,251.98,102.93" style="stroke:#181818;stroke-width:1;"/></g><!--link core to stats--><g class="link" data-entity-1="ent0002" data-entity-2="ent0004" data-link-type="composition" data-source-line="64" id="lnk38"><path d="M328.56,43.61 C328.56,80.42 328.56,150.56 328.56,187.33" fill="none" id="core-to-stats" style="stroke:#181818;stroke-width:1;"/><polygon fill="#181818" points="328.56,199.33,332.56,193.33,328.56,187.33,324.56,193.33,328.56,199.33" style="stroke:#181818;stroke-width:1;"/></g><!--link habit to habitId--><g class="link" data-entity-1="ent0003" data-entity-2="ent0006" data-link-type="composition" data-source-line="67" id="lnk39"><path d="M211.35,116.37 C148.91,116.37 20,116.37 20,116.37 C20,116.37 20,234.23 20,283.44" fill="none" id="habit-to-habitId" style="stroke:#181818;stroke-width:1;"/><polygon fill="#181818" points="20,295.44,24,289.44,20,283.44,16,289.44,20,295.44" style="stroke:#181818;stroke-width:1;"/></g><!--link habit to habitTitle--><g class="link" data-entity-1="ent0003" data-entity-2="ent0007" data-link-type="composition" data-source-line="68" id="lnk40"><path d="M211.32,128.37 C167.31,128.37 95.1,128.37 95.1,128.37 C95.1,128.37 95.1,236.59 95.1,283.55" fill="none" id="habit-to-habitTitle" style="stroke:#181818;stroke-width:1;"/><polygon fill="#181818" points="95.1,295.55,99.1,289.55,95.1,283.55,91.1,289.55,95.1,295.55" style="stroke:#181818;stroke-width:1;"/></g><!--link habit to habitIsCompleted--><g class="link" data-entity-1="ent0003" data-entity-2="ent0008" data-link-type="composition" data-source-line="69" id="lnk41"><path d="M244.47,139.91 C244.47,176.72 244.47,246.86 244.47,283.62" fill="none" id="habit-to-habitIsCompleted" style="stroke:#181818;stroke-width:1;"/><polygon fill="#181818" points="244.47,295.62,248.47,289.62,244.47,283.62,240.47,289.62,244.47,295.62" style="stroke:#181818;stroke-width:1;"/></g><!--link habit to habitCompletionDates--><g class="link" data-entity-1="ent0003" data-entity-2="ent0009" data-link-type="composition" data-source-line="70" id="lnk42"><path d="M277.89,116.37 C412.68,116.37 909.2,116.37 909.2,116.37 C909.2,116.37 909.2,234.23 909.2,283.44" fill="none" id="habit-to-habitCompletionDates" style="stroke:#181818;stroke-width:1;"/><polygon fill="#181818" points="909.2,295.44,913.2,289.44,909.2,283.44,905.2,289.44,909.2,295.44" style="stroke:#181818;stroke-width:1;"/></g><!--link stats to statsDiarias--><g class="link" data-entity-1="ent0004" data-entity-2="ent0010" data-link-type="composition" data-source-line="73" id="lnk43"><path d="M364.77,236.3 C364.77,253.36 364.77,266.49 364.77,283.52" fill="none" id="stats-to-statsDiarias" style="stroke:#181818;stroke-width:1;"/><polygon fill="#181818" points="364.77,295.52,368.77,289.52,364.77,283.52,360.77,289.52,364.77,295.52" style="stroke:#181818;stroke-width:1;"/></g><!--link stats to statsSemanales--><g class="link" data-entity-1="ent0004" data-entity-2="ent0011" data-link-type="composition" data-source-line="74" id="lnk44"><path d="M392.49,218.37 C488.87,218.37 685.47,218.37 685.47,218.37 C685.47,218.37 685.47,255.79 685.47,283.59" fill="none" id="stats-to-statsSemanales" style="stroke:#181818;stroke-width:1;"/><polygon fill="#181818" points="685.47,295.59,689.47,289.59,685.47,283.59,681.47,289.59,685.47,295.59" style="stroke:#181818;stroke-width:1;"/></g><!--link stats to datosPeriodo--><g class="link" data-entity-1="ent0004" data-entity-2="ent0014" data-link-type="composition" data-source-line="75" id="lnk45"><path d="M392.45,227.37 C464.78,227.37 586.99,227.37 586.99,227.37 C586.99,227.37 586.99,496.52 586.99,572.3" fill="none" id="stats-to-datosPeriodo" style="stroke:#181818;stroke-width:1;"/><polygon fill="#181818" points="586.99,584.3,590.99,578.3,586.99,572.3,582.99,578.3,586.99,584.3" style="stroke:#181818;stroke-width:1;"/></g><!--link statsSemanales to statsSemanalesGenerales--><g class="link" data-entity-1="ent0011" data-entity-2="ent0012" data-link-type="composition" data-source-line="78" id="lnk46"><path d="M761.38,332.65 C761.38,340.29 761.38,347.37 761.38,347.37 C761.38,347.37 1682.47,347.37 1682.47,347.37 C1682.47,347.37 1682.47,361.21 1682.47,379.78" fill="none" id="statsSemanales-to-statsSemanalesGenerales" style="stroke:#181818;stroke-width:1;"/><polygon fill="#181818" points="1682.47,391.78,1686.47,385.78,1682.47,379.78,1678.47,385.78,1682.47,391.78" style="stroke:#181818;stroke-width:1;"/></g><!--link statsSemanales to statsSemanalesPorHabito--><g class="link" data-entity-1="ent0011" data-entity-2="ent0013" data-link-type="composition" data-source-line="79" id="lnk47"><path d="M747.2,332.6 C747.2,349.65 747.2,362.79 747.2,379.82" fill="none" id="statsSemanales-to-statsSemanalesPorHabito" style="stroke:#181818;stroke-width:1;"/><polygon fill="#181818" points="747.2,391.82,751.2,385.82,747.2,379.82,743.2,385.82,747.2,391.82" style="stroke:#181818;stroke-width:1;"/></g><!--link statsDiarias to sdFecha--><g class="link" data-entity-1="ent0010" data-entity-2="ent0015" data-link-type="composition" data-source-line="82" id="lnk48"><path d="M354.31,332.58 C354.31,346.21 354.31,362.37 354.31,362.37 C354.31,362.37 54.33,362.37 54.33,362.37 C54.33,362.37 54.33,366.4 54.33,379.93" fill="none" id="statsDiarias-to-sdFecha" style="stroke:#181818;stroke-width:1;"/><polygon fill="#181818" points="54.33,391.93,58.33,385.93,54.33,379.93,50.33,385.93,54.33,391.93" style="stroke:#181818;stroke-width:1;"/></g><!--link statsDiarias to sdTotalCompletados--><g class="link" data-entity-1="ent0010" data-entity-2="ent0016" data-link-type="composition" data-source-line="83" id="lnk49"><path d="M371.15,332.35 C371.15,351.06 371.15,377.37 371.15,377.37 C371.15,377.37 206.8,377.37 206.8,377.37 C206.8,377.37 206.8,372.37 206.8,379.92" fill="none" id="statsDiarias-to-sdTotalCompletados" style="stroke:#181818;stroke-width:1;"/><polygon fill="#181818" points="206.8,391.92,210.8,385.92,206.8,379.92,202.8,385.92,206.8,391.92" style="stroke:#181818;stroke-width:1;"/></g><!--link statsDiarias to sdTotalEsperados--><g class="link" data-entity-1="ent0010" data-entity-2="ent0017" data-link-type="composition" data-source-line="84" id="lnk50"><path d="M387.99,332.6 C387.99,349.65 387.99,362.79 387.99,379.82" fill="none" id="statsDiarias-to-sdTotalEsperados" style="stroke:#181818;stroke-width:1;"/><polygon fill="#181818" points="387.99,391.82,391.99,385.82,387.99,379.82,383.99,385.82,387.99,391.82" style="stroke:#181818;stroke-width:1;"/></g><!--link statsDiarias to sdTasa--><g class="link" data-entity-1="ent0010" data-entity-2="ent0018" data-link-type="composition" data-source-line="85" id="lnk51"><path d="M464.47,332.6 C464.47,349.65 464.47,362.79 464.47,379.82" fill="none" id="statsDiarias-to-sdTasa" style="stroke:#181818;stroke-width:1;"/><polygon fill="#181818" points="464.47,391.82,468.47,385.82,464.47,379.82,460.47,385.82,464.47,391.82" style="stroke:#181818;stroke-width:1;"/></g><!--link statsSemanalesGenerales to esgSemana--><g class="link" data-entity-1="ent0012" data-entity-2="ent0019" data-link-type="composition" data-source-line="88" id="lnk52"><path d="M1563.03,428.58 C1563.03,456.69 1563.03,507.37 1563.03,507.37 C1563.03,507.37 1561.37,507.37 1546.42,507.37" fill="none" id="statsSemanalesGenerales-to-esgSemana" style="stroke:#181818;stroke-width:1;"/><polygon fill="#181818" points="1534.42,507.37,1540.42,511.37,1546.42,507.37,1540.42,503.37,1534.42,507.37" style="stroke:#181818;stroke-width:1;"/></g><!--link statsSemanalesGenerales to esgPeriodos--><g class="link" data-entity-1="ent0012" data-entity-2="ent0020" data-link-type="composition" data-source-line="89" id="lnk53"><path d="M1609.47,428.9 C1609.47,445.95 1609.47,459.08 1609.47,476.12" fill="none" id="statsSemanalesGenerales-to-esgPeriodos" style="stroke:#181818;stroke-width:1;"/><polygon fill="#181818" points="1609.47,488.12,1613.47,482.12,1609.47,476.12,1605.47,482.12,1609.47,488.12" style="stroke:#181818;stroke-width:1;"/></g><!--link statsSemanalesGenerales to esgTotalCompletados--><g class="link" data-entity-1="ent0012" data-entity-2="ent0021" data-link-type="composition" data-source-line="90" id="lnk54"><path d="M1746.24,428.9 C1746.24,445.95 1746.24,459.08 1746.24,476.12" fill="none" id="statsSemanalesGenerales-to-esgTotalCompletados" style="stroke:#181818;stroke-width:1;"/><polygon fill="#181818" points="1746.24,488.12,1750.24,482.12,1746.24,476.12,1742.24,482.12,1746.24,488.12" style="stroke:#181818;stroke-width:1;"/></g><!--link statsSemanalesGenerales to esgTotalEsperados--><g class="link" data-entity-1="ent0012" data-entity-2="ent0022" data-link-type="composition" data-source-line="91" id="lnk55"><path d="M1808.59,417.37 C1867.76,417.37 1925.47,417.37 1925.47,417.37 C1925.47,417.37 1925.47,449.99 1925.47,476.13" fill="none" id="statsSemanalesGenerales-to-esgTotalEsperados" style="stroke:#181818;stroke-width:1;"/><polygon fill="#181818" points="1925.47,488.13,1929.47,482.13,1925.47,476.13,1921.47,482.13,1925.47,488.13" style="stroke:#181818;stroke-width:1;"/></g><!--link statsSemanalesGenerales to esgTasaGeneral--><g class="link" data-entity-1="ent0012" data-entity-2="ent0023" data-link-type="composition" data-source-line="92" id="lnk56"><path d="M1808.43,404.37 C1923.39,404.37 2075.47,404.37 2075.47,404.37 C2075.47,404.37 2075.47,446.93 2075.47,476.35" fill="none" id="statsSemanalesGenerales-to-esgTasaGeneral" style="stroke:#181818;stroke-width:1;"/><polygon fill="#181818" points="2075.47,488.35,2079.47,482.35,2075.47,476.35,2071.47,482.35,2075.47,488.35" style="stroke:#181818;stroke-width:1;"/></g><!--link statsSemanalesPorHabito to eshId--><g class="link" data-entity-1="ent0013" data-entity-2="ent0024" data-link-type="composition" data-source-line="95" id="lnk57"><path d="M738.44,428.9 C738.44,445.95 738.44,459.08 738.44,476.12" fill="none" id="statsSemanalesPorHabito-to-eshId" style="stroke:#181818;stroke-width:1;"/><polygon fill="#181818" points="738.44,488.12,742.44,482.12,738.44,476.12,734.44,482.12,738.44,488.12" style="stroke:#181818;stroke-width:1;"/></g><!--link statsSemanalesPorHabito to eshTitulo--><g class="link" data-entity-1="ent0013" data-entity-2="ent0025" data-link-type="composition" data-source-line="96" id="lnk58"><path d="M806.47,428.9 C806.47,445.95 806.47,459.08 806.47,476.12" fill="none" id="statsSemanalesPorHabito-to-eshTitulo" style="stroke:#181818;stroke-width:1;"/><polygon fill="#181818" points="806.47,488.12,810.47,482.12,806.47,476.12,802.47,482.12,806.47,488.12" style="stroke:#181818;stroke-width:1;"/></g><!--link statsSemanalesPorHabito to eshSemana--><g class="link" data-entity-1="ent0013" data-entity-2="ent0026" data-link-type="composition" data-source-line="97" id="lnk59"><path d="M907.47,428.9 C907.47,445.95 907.47,459.08 907.47,476.12" fill="none" id="statsSemanalesPorHabito-to-eshSemana" style="stroke:#181818;stroke-width:1;"/><polygon fill="#181818" points="907.47,488.12,911.47,482.12,907.47,476.12,903.47,482.12,907.47,488.12" style="stroke:#181818;stroke-width:1;"/></g><!--link statsSemanalesPorHabito to eshPeriodos--><g class="link" data-entity-1="ent0013" data-entity-2="ent0027" data-link-type="composition" data-source-line="98" id="lnk60"><path d="M732.55,410.37 C682.09,410.37 635.53,410.37 635.53,410.37 C635.53,410.37 635.53,448.1 635.53,476.07" fill="none" id="statsSemanalesPorHabito-to-eshPeriodos" style="stroke:#181818;stroke-width:1;"/><polygon fill="#181818" points="635.53,488.07,639.53,482.07,635.53,476.07,631.53,482.07,635.53,488.07" style="stroke:#181818;stroke-width:1;"/></g><!--link statsSemanalesPorHabito to eshTotalCompletados--><g class="link" data-entity-1="ent0013" data-entity-2="ent0028" data-link-type="composition" data-source-line="99" id="lnk61"><path d="M971.4,428.58 C971.4,456.69 971.4,507.37 971.4,507.37 C971.4,507.37 962.75,507.37 968.08,507.37" fill="none" id="statsSemanalesPorHabito-to-eshTotalCompletados" style="stroke:#181818;stroke-width:1;"/><polygon fill="#181818" points="980.08,507.37,974.08,503.37,968.08,507.37,974.08,511.37,980.08,507.37" style="stroke:#181818;stroke-width:1;"/></g><!--link statsSemanalesPorHabito to eshTotalEsperados--><g class="link" data-entity-1="ent0013" data-entity-2="ent0029" data-link-type="composition" data-source-line="100" id="lnk62"><path d="M982.22,417.37 C1087.6,417.37 1221.47,417.37 1221.47,417.37 C1221.47,417.37 1221.47,449.99 1221.47,476.13" fill="none" id="statsSemanalesPorHabito-to-eshTotalEsperados" style="stroke:#181818;stroke-width:1;"/><polygon fill="#181818" points="1221.47,488.13,1225.47,482.13,1221.47,476.13,1217.47,482.13,1221.47,488.13" style="stroke:#181818;stroke-width:1;"/></g><!--link statsSemanalesPorHabito to eshTasaGeneral--><g class="link" data-entity-1="ent0013" data-entity-2="ent0030" data-link-type="composition" data-source-line="101" id="lnk63"><path d="M982.22,404.37 C1134.35,404.37 1371.47,404.37 1371.47,404.37 C1371.47,404.37 1371.47,446.93 1371.47,476.35" fill="none" id="statsSemanalesPorHabito-to-eshTasaGeneral" style="stroke:#181818;stroke-width:1;"/><polygon fill="#181818" points="1371.47,488.35,1375.47,482.35,1371.47,476.35,1367.47,482.35,1371.47,488.35" style="stroke:#181818;stroke-width:1;"/></g><!--link datosPeriodo to dpId--><g class="link" data-entity-1="ent0014" data-entity-2="ent0031" data-link-type="composition" data-source-line="104" id="lnk64"><path d="M578.46,597.37 C503.58,597.37 381.47,597.37 381.47,597.37 C381.47,597.37 381.47,639.72 381.47,669.01" fill="none" id="datosPeriodo-to-dpId" style="stroke:#181818;stroke-width:1;"/><polygon fill="#181818" points="381.47,681.01,385.47,675.01,381.47,669.01,377.47,675.01,381.47,681.01" style="stroke:#181818;stroke-width:1;"/></g><!--link datosPeriodo to dpEtiqueta--><g class="link" data-entity-1="ent0014" data-entity-2="ent0032" data-link-type="composition" data-source-line="105" id="lnk65"><path d="M578.26,609.37 C541.49,609.37 500.57,609.37 500.57,609.37 C500.57,609.37 500.57,642.29 500.57,668.6" fill="none" id="datosPeriodo-to-dpEtiqueta" style="stroke:#181818;stroke-width:1;"/><polygon fill="#181818" points="500.57,680.6,504.57,674.6,500.57,668.6,496.57,674.6,500.57,680.6" style="stroke:#181818;stroke-width:1;"/></g><!--link datosPeriodo to dpFecha--><g class="link" data-entity-1="ent0014" data-entity-2="ent0033" data-link-type="composition" data-source-line="106" id="lnk66"><path d="M592.28,621.49 C592.28,638.54 592.28,651.68 592.28,668.71" fill="none" id="datosPeriodo-to-dpFecha" style="stroke:#181818;stroke-width:1;"/><polygon fill="#181818" points="592.28,680.71,596.28,674.71,592.28,668.71,588.28,674.71,592.28,680.71" style="stroke:#181818;stroke-width:1;"/></g><!--link datosPeriodo to dpCompletados--><g class="link" data-entity-1="ent0014" data-entity-2="ent0034" data-link-type="composition" data-source-line="107" id="lnk67"><path d="M666.3,621.49 C666.3,638.54 666.3,651.68 666.3,668.71" fill="none" id="datosPeriodo-to-dpCompletados" style="stroke:#181818;stroke-width:1;"/><polygon fill="#181818" points="666.3,680.71,670.3,674.71,666.3,668.71,662.3,674.71,666.3,680.71" style="stroke:#181818;stroke-width:1;"/></g><!--link datosPeriodo to dpEsperados--><g class="link" data-entity-1="ent0014" data-entity-2="ent0035" data-link-type="composition" data-source-line="108" id="lnk68"><path d="M692.58,612.37 C743.45,612.37 809.89,612.37 809.89,612.37 C809.89,612.37 809.89,643.31 809.89,668.8" fill="none" id="datosPeriodo-to-dpEsperados" style="stroke:#181818;stroke-width:1;"/><polygon fill="#181818" points="809.89,680.8,813.89,674.8,809.89,668.8,805.89,674.8,809.89,680.8" style="stroke:#181818;stroke-width:1;"/></g><!--link datosPeriodo to dpTasa--><g class="link" data-entity-1="ent0014" data-entity-2="ent0036" data-link-type="composition" data-source-line="109" id="lnk69"><path d="M692.39,603.37 C777.71,603.37 928.87,603.37 928.87,603.37 C928.87,603.37 928.87,640.89 928.87,668.74" fill="none" id="datosPeriodo-to-dpTasa" style="stroke:#181818;stroke-width:1;"/><polygon fill="#181818" points="928.87,680.74,932.87,674.74,928.87,668.74,924.87,674.74,928.87,680.74" style="stroke:#181818;stroke-width:1;"/></g><!--link stats to habitId--><g class="link" data-entity-1="ent0004" data-entity-2="ent0006" data-link-type="dependency" data-source-line="112" id="lnk70"><path d="M288.66,212.37 C200.54,212.37 30.93,212.37 30.93,212.37 C30.93,212.37 30.93,260.04 30.93,289.39" fill="none" id="stats-to-habitId" style="stroke:#181818;stroke-width:1;stroke-dasharray:7,7;"/><polygon fill="#181818" points="30.93,295.39,34.93,286.39,30.93,290.39,26.93,286.39,30.93,295.39" style="stroke:#181818;stroke-width:1;"/></g><!--link stats to habitTitle--><g class="link" data-entity-1="ent0004" data-entity-2="ent0007" data-link-type="dependency" data-source-line="113" id="lnk71"><path d="M288.47,224.37 C221.56,224.37 113.83,224.37 113.83,224.37 C113.83,224.37 113.83,263.19 113.83,289.46" fill="none" id="stats-to-habitTitle" style="stroke:#181818;stroke-width:1;stroke-dasharray:7,7;"/><polygon fill="#181818" points="113.83,295.46,117.83,286.46,113.83,290.46,109.83,286.46,113.83,295.46" style="stroke:#181818;stroke-width:1;"/></g><!--link stats to habitIsCompleted--><g class="link" data-entity-1="ent0004" data-entity-2="ent0008" data-link-type="dependency" data-source-line="114" id="lnk72"><path d="M295.87,236.3 C295.87,253.36 295.87,272.49 295.87,289.52" fill="none" id="stats-to-habitIsCompleted" style="stroke:#181818;stroke-width:1;stroke-dasharray:7,7;"/><polygon fill="#181818" points="295.87,295.52,299.87,286.52,295.87,290.52,291.87,286.52,295.87,295.52" style="stroke:#181818;stroke-width:1;"/></g><!--link stats to habitCompletionDates--><g class="link" data-entity-1="ent0004" data-entity-2="ent0009" data-link-type="dependency" data-source-line="115" id="lnk73"><path d="M392.15,209.37 C523.5,209.37 859.74,209.37 859.74,209.37 C859.74,209.37 859.74,259.82 859.74,289.8" fill="none" id="stats-to-habitCompletionDates" style="stroke:#181818;stroke-width:1;stroke-dasharray:7,7;"/><polygon fill="#181818" points="859.74,295.8,863.74,286.8,859.74,290.8,855.74,286.8,859.74,295.8" style="stroke:#181818;stroke-width:1;"/></g><!--link esgPeriodos to datosPeriodo--><g class="link" data-entity-1="ent0020" data-entity-2="ent0014" data-link-type="dependency" data-source-line="118" id="lnk74"><path d="M1609.47,525.24 C1609.47,550.99 1609.47,594.37 1609.47,594.37 C1609.47,594.37 906.73,594.37 698.4,594.37" fill="none" id="esgPeriodos-to-datosPeriodo" style="stroke:#181818;stroke-width:1;stroke-dasharray:7,7;"/><polygon fill="#181818" points="692.4,594.37,701.4,598.37,697.4,594.37,701.4,590.37,692.4,594.37" style="stroke:#181818;stroke-width:1;"/></g><!--link eshPeriodos to datosPeriodo--><g class="link" data-entity-1="ent0027" data-entity-2="ent0014" data-link-type="dependency" data-source-line="119" id="lnk75"><path d="M635.47,525.19 C635.47,542.25 635.47,561.38 635.47,578.41" fill="none" id="eshPeriodos-to-datosPeriodo" style="stroke:#181818;stroke-width:1;stroke-dasharray:7,7;"/><polygon fill="#181818" points="635.47,584.41,639.47,575.41,635.47,579.41,631.47,575.41,635.47,584.41" style="stroke:#181818;stroke-width:1;"/></g><?plantuml-src bLSxRjmm4Err2i9Dx03h0wG8OCHsOY250RjRkA34yOg8bgH9Ai0U9mTmbIxjNYoaHF4dQkNjf9atCvp7-KYQ2wGvghdMV8y8bT1eobcbVb4ciCHxrF2zu0oOVjA73f05OBRh889qb84-241SwfPNrIVqRJ82L6C5g36F4XDURN_WckeR8Gn4mWl2oWIGO6tk0UjUWa92KjPGWJlpVCdhZkwmvf9oTMNCZt-CFHyCM-kgsjufZSdnNMdQO3KeZ40hw_8dFl1UVt7XvH0A7KoQIajQzrIYLnUq6foXpRQbX01xsGGdDmDMSuK881U_ygoW2qek_6aUIApHntVTTpoedwasn4K8C54iLnsO72BWWt9II1o-GjDYfsheyIyB5WvlxkuMQnWE_jJNcoa_U_Q4g8otMuebZUbpWWps17lCxCK4e1UjXWp81QVVWO5SyEvrIyQFNCR5aLfR9HukBYrEm-tn7wksXZEk7i4K6HdDIIIO5K69kTar3LUZoBrzJeg2Qzo5ErSEzvo9PoPtIe3C3RmmWMCrHNysZwUFNo0uSgK6xU0Cr6x4ndenCgGcX6DChIPii6TcF5aifkmIyE0W-Y03eO8AxGsgNMvkepIjRTuMkMjNkMlFuAuzcxls7ExQKzp5hLBWYOYK9ZEItdfpIAUySw_bTY5YrYvDbZmH2sb3ah69TB8rY9XQm-uXCq8RYlqoMDv0Q8CatzSSCTX9VbKD2sMp-UnsaN_royCLb0kWUeMm9pFRRMu3JSuCZPbat1uvBDeKcQgm4fB2TuVIL8mt2udoPDv3VY7JQGPcuZ3mWo8VhELMZFXIPgMCHypuIaCKeeQ9jWfDzaDflBi3BLvUJCFetqt-WcBMl4kOKC8bXAlVbMd-eOCNp6oGCF9NK7vqhU3AcQ_WCnPEeDEfjJRapsF6LuYBPhV12iAjX1LKaU4PQe7XUSpJ39VnImpFqId3yIfOOpFk-t4Gs4LHaFeDKT2DBLLGn1cNVFe42ygfaMv103FV_etjCG8g_qvm6KxLSodXhQTW1pw2trJRtmlPDp1L3hg-_kedUIOP9taEYoPvfYfCykIqr7pBIcQ7TgzulgIlggX31v_938wAQwRy3m00?></g></svg>