<?plantuml 1.2026.1beta2?><svg xmlns="http://www.w3.org/2000/svg" xmlns:xlink="http://www.w3.org/1999/xlink" contentStyleType="text/css" data-diagram-type="DESCRIPTION" height="449px" preserveAspectRatio="none" style="width:3266px;height:449px;background:#FFFFFF;" version="1.1" viewBox="0 0 3266 449" width="3266px" zoomAndPan="magnify"><defs/><g><!--entity core--><g class="entity" data-qualified-name="core" data-source-line="167" id="ent0002"><rect fill="#C2F0FF" height="52.9688" rx="0.5" ry="0.5" style="stroke:#181818;stroke-width:0.5;" width="140" x="1337" y="7"/><path d="M1466.76,21.639 L1451.934,21.686 A0.5001,0.5001 0 0 0 1451.4343,22.1857 L1451.4343,23.6233 L1448.9461,23.6037 A0.5001,0.5001 0 0 0 1448.4417,24.1039 L1448.4417,26.0392 A0.5001,0.5001 0 0 0 1448.942,26.5395 L1451.4225,26.5395 L1451.3987,27.5823 L1448.8991,27.5626 A0.5001,0.5001 0 0 0 1448.3952,28.0628 L1448.3952,29.9981 A0.5001,0.5001 0 0 0 1448.8949,30.4984 L1451.3873,30.4984 L1451.3873,33.5003 A0.5001,0.5001 0 0 0 1451.8876,34.0005 L1466.7606,34.047 A0.5001,0.5001 0 0 0 1467.2624,33.5473 L1467.2624,22.1393 A0.5001,0.5001 0 0 0 1466.7606,21.6391 M1466.2618,22.641 L1466.2618,33.045 L1452.3868,33.0021 L1452.3868,30.4984 L1454.8812,30.4984 A0.5001,0.5001 0 0 0 1455.381,29.9982 L1455.381,28.1099 A0.5001,0.5001 0 0 0 1454.8849,27.6096 L1452.3987,27.59 L1452.4225,26.5394 L1454.9278,26.5394 A0.5001,0.5001 0 0 0 1455.428,26.0392 L1455.428,24.1504 A0.5001,0.5001 0 0 0 1454.9319,23.6507 L1452.4339,23.631 L1452.4339,22.6838 M1449.4418,24.6078 L1454.4281,24.6466 L1454.4281,25.5395 L1449.4418,25.5395 M1449.3948,28.5667 L1454.3811,28.606 L1454.3811,29.4984 L1449.3948,29.4984" fill="#000000"/><text fill="#000000" font-family="Verdana" font-size="12" lengthAdjust="spacing" textLength="55.4766" x="1363.3359" y="47.1387">HabitApp</text><text fill="#000000" font-family="Verdana" font-size="12" lengthAdjust="spacing" textLength="3.8145" x="1418.8125" y="47.1387">&#160;</text><text fill="#000000" font-family="Verdana" font-size="12" lengthAdjust="spacing" textLength="28.0371" x="1422.627" y="47.1387">Core</text></g><!--entity habit--><g class="entity" data-qualified-name="habit" data-source-line="167" id="ent0003"><rect fill="#C2F0FF" height="52.9688" rx="0.5" ry="0.5" style="stroke:#181818;stroke-width:0.5;" width="140" x="1043" y="134.96"/><path d="M1172.76,149.599 L1157.934,149.646 A0.5001,0.5001 0 0 0 1157.4343,150.1457 L1157.4343,151.5833 L1154.9461,151.5637 A0.5001,0.5001 0 0 0 1154.4417,152.0639 L1154.4417,153.9992 A0.5001,0.5001 0 0 0 1154.942,154.4994 L1157.4225,154.4994 L1157.3987,155.5422 L1154.8991,155.5226 A0.5001,0.5001 0 0 0 1154.3952,156.0228 L1154.3952,157.9581 A0.5001,0.5001 0 0 0 1154.8949,158.4584 L1157.3873,158.4584 L1157.3873,161.4603 A0.5001,0.5001 0 0 0 1157.8876,161.9605 L1172.7606,162.007 A0.5001,0.5001 0 0 0 1173.2624,161.5073 L1173.2624,150.0993 A0.5001,0.5001 0 0 0 1172.7606,149.5991 M1172.2618,150.601 L1172.2618,161.005 L1158.3868,160.9621 L1158.3868,158.4584 L1160.8812,158.4584 A0.5001,0.5001 0 0 0 1161.381,157.9582 L1161.381,156.0699 A0.5001,0.5001 0 0 0 1160.8849,155.5696 L1158.3987,155.55 L1158.4225,154.4994 L1160.9278,154.4994 A0.5001,0.5001 0 0 0 1161.428,153.9992 L1161.428,152.1104 A0.5001,0.5001 0 0 0 1160.9319,151.6107 L1158.4339,151.591 L1158.4339,150.6438 M1155.4418,152.5678 L1160.4281,152.6066 L1160.4281,153.4995 L1155.4418,153.4995 M1155.3948,156.5267 L1160.3811,156.566 L1160.3811,157.4584 L1155.3948,157.4584" fill="#000000"/><text fill="#000000" font-family="Verdana" font-size="12" lengthAdjust="spacing" textLength="32.0332" x="1096.9834" y="175.0987">Habit</text></g><!--entity dailyNote--><g class="entity" data-qualified-name="dailyNote" data-source-line="167" id="ent0004"><rect fill="#C2F0FF" height="52.9688" rx="0.5" ry="0.5" style="stroke:#181818;stroke-width:0.5;" width="140" x="407" y="262.93"/><path d="M536.76,277.569 L521.934,277.616 A0.5001,0.5001 0 0 0 521.4343,278.1157 L521.4343,279.5533 L518.9461,279.5337 A0.5001,0.5001 0 0 0 518.4417,280.0339 L518.4417,281.9692 A0.5001,0.5001 0 0 0 518.942,282.4695 L521.4225,282.4695 L521.3987,283.5123 L518.8991,283.4926 A0.5001,0.5001 0 0 0 518.3952,283.9928 L518.3952,285.9281 A0.5001,0.5001 0 0 0 518.8949,286.4284 L521.3873,286.4284 L521.3873,289.4303 A0.5001,0.5001 0 0 0 521.8876,289.9305 L536.7606,289.977 A0.5001,0.5001 0 0 0 537.2624,289.4773 L537.2624,278.0693 A0.5001,0.5001 0 0 0 536.7606,277.5691 M536.2618,278.571 L536.2618,288.975 L522.3868,288.9321 L522.3868,286.4284 L524.8812,286.4284 A0.5001,0.5001 0 0 0 525.381,285.9282 L525.381,284.0399 A0.5001,0.5001 0 0 0 524.8849,283.5397 L522.3987,283.52 L522.4225,282.4694 L524.9278,282.4694 A0.5001,0.5001 0 0 0 525.428,281.9692 L525.428,280.0804 A0.5001,0.5001 0 0 0 524.9319,279.5807 L522.4339,279.561 L522.4339,278.6138 M519.4418,280.5378 L524.4281,280.5766 L524.4281,281.4695 L519.4418,281.4695 M519.3948,284.4967 L524.3811,284.536 L524.3811,285.4284 L519.3948,285.4284" fill="#000000"/><text fill="#000000" font-family="Verdana" font-size="12" lengthAdjust="spacing" textLength="58.7695" x="447.6152" y="303.0687">DailyNote</text></g><!--entity goals--><g class="entity" data-qualified-name="goals" data-source-line="167" id="ent0005"><rect fill="#C2F0FF" height="52.9688" rx="0.5" ry="0.5" style="stroke:#181818;stroke-width:0.5;" width="140" x="2201" y="134.96"/><path d="M2330.76,149.599 L2315.934,149.646 A0.5001,0.5001 0 0 0 2315.4343,150.1457 L2315.4343,151.5833 L2312.9461,151.5637 A0.5001,0.5001 0 0 0 2312.4417,152.0639 L2312.4417,153.9992 A0.5001,0.5001 0 0 0 2312.942,154.4994 L2315.4225,154.4994 L2315.3987,155.5422 L2312.8991,155.5226 A0.5001,0.5001 0 0 0 2312.3952,156.0228 L2312.3952,157.9581 A0.5001,0.5001 0 0 0 2312.8949,158.4584 L2315.3873,158.4584 L2315.3873,161.4603 A0.5001,0.5001 0 0 0 2315.8876,161.9605 L2330.7606,162.007 A0.5001,0.5001 0 0 0 2331.2624,161.5073 L2331.2624,150.0993 A0.5001,0.5001 0 0 0 2330.7606,149.5991 M2330.2618,150.601 L2330.2618,161.005 L2316.3868,160.9621 L2316.3868,158.4584 L2318.8812,158.4584 A0.5001,0.5001 0 0 0 2319.381,157.9582 L2319.381,156.0699 A0.5001,0.5001 0 0 0 2318.8849,155.5696 L2316.3987,155.55 L2316.4225,154.4994 L2318.9278,154.4994 A0.5001,0.5001 0 0 0 2319.428,153.9992 L2319.428,152.1104 A0.5001,0.5001 0 0 0 2318.9319,151.6107 L2316.4339,151.591 L2316.4339,150.6438 M2313.4418,152.5678 L2318.4281,152.6066 L2318.4281,153.4995 L2313.4418,153.4995 M2313.3948,156.5267 L2318.3811,156.566 L2318.3811,157.4584 L2313.3948,157.4584" fill="#000000"/><text fill="#000000" font-family="Verdana" font-size="12" lengthAdjust="spacing" textLength="33.5801" x="2254.21" y="175.0987">Goals</text></g><!--entity persistencia--><g class="entity" data-qualified-name="persistencia" data-source-line="167" id="ent0006"><rect fill="#C2F0FF" height="52.9688" rx="0.5" ry="0.5" style="stroke:#181818;stroke-width:0.5;" width="140" x="3120" y="134.96"/><path d="M3249.76,149.599 L3234.934,149.646 A0.5001,0.5001 0 0 0 3234.4343,150.1457 L3234.4343,151.5833 L3231.9461,151.5637 A0.5001,0.5001 0 0 0 3231.4417,152.0639 L3231.4417,153.9992 A0.5001,0.5001 0 0 0 3231.942,154.4994 L3234.4225,154.4994 L3234.3987,155.5422 L3231.8991,155.5226 A0.5001,0.5001 0 0 0 3231.3952,156.0228 L3231.3952,157.9581 A0.5001,0.5001 0 0 0 3231.8949,158.4584 L3234.3873,158.4584 L3234.3873,161.4603 A0.5001,0.5001 0 0 0 3234.8876,161.9605 L3249.7606,162.007 A0.5001,0.5001 0 0 0 3250.2624,161.5073 L3250.2624,150.0993 A0.5001,0.5001 0 0 0 3249.7606,149.5991 M3249.2618,150.601 L3249.2618,161.005 L3235.3868,160.9621 L3235.3868,158.4584 L3237.8812,158.4584 A0.5001,0.5001 0 0 0 3238.381,157.9582 L3238.381,156.0699 A0.5001,0.5001 0 0 0 3237.8849,155.5696 L3235.3987,155.55 L3235.4225,154.4994 L3237.9278,154.4994 A0.5001,0.5001 0 0 0 3238.428,153.9992 L3238.428,152.1104 A0.5001,0.5001 0 0 0 3237.9319,151.6107 L3235.4339,151.591 L3235.4339,150.6438 M3232.4418,152.5678 L3237.4281,152.6066 L3237.4281,153.4995 L3232.4418,153.4995 M3232.3948,156.5267 L3237.3811,156.566 L3237.3811,157.4584 L3232.3948,157.4584" fill="#000000"/><text fill="#000000" font-family="Verdana" font-size="12" lengthAdjust="spacing" textLength="72.3691" x="3153.8154" y="175.0987">Persistencia</text></g><!--entity habitId--><g class="entity" data-qualified-name="habitId" data-source-line="167" id="ent0007"><rect fill="#C2F0FF" height="52.9688" rx="0.5" ry="0.5" style="stroke:#181818;stroke-width:0.5;" width="140" x="893" y="262.93"/><path d="M1022.76,277.569 L1007.934,277.616 A0.5001,0.5001 0 0 0 1007.4343,278.1157 L1007.4343,279.5533 L1004.9461,279.5337 A0.5001,0.5001 0 0 0 1004.4417,280.0339 L1004.4417,281.9692 A0.5001,0.5001 0 0 0 1004.942,282.4695 L1007.4225,282.4695 L1007.3987,283.5123 L1004.8991,283.4926 A0.5001,0.5001 0 0 0 1004.3952,283.9928 L1004.3952,285.9281 A0.5001,0.5001 0 0 0 1004.8949,286.4284 L1007.3873,286.4284 L1007.3873,289.4303 A0.5001,0.5001 0 0 0 1007.8876,289.9305 L1022.7606,289.977 A0.5001,0.5001 0 0 0 1023.2624,289.4773 L1023.2624,278.0693 A0.5001,0.5001 0 0 0 1022.7606,277.5691 M1022.2618,278.571 L1022.2618,288.975 L1008.3868,288.9321 L1008.3868,286.4284 L1010.8812,286.4284 A0.5001,0.5001 0 0 0 1011.381,285.9282 L1011.381,284.0399 A0.5001,0.5001 0 0 0 1010.8849,283.5397 L1008.3987,283.52 L1008.4225,282.4694 L1010.9278,282.4694 A0.5001,0.5001 0 0 0 1011.428,281.9692 L1011.428,280.0804 A0.5001,0.5001 0 0 0 1010.9319,279.5807 L1008.4339,279.561 L1008.4339,278.6138 M1005.4418,280.5378 L1010.4281,280.5766 L1010.4281,281.4695 L1005.4418,281.4695 M1005.3948,284.4967 L1010.3811,284.536 L1010.3811,285.4284 L1005.3948,285.4284" fill="#000000"/><text fill="#000000" font-family="Verdana" font-size="12" lengthAdjust="spacing" textLength="75.5859" x="925.207" y="303.0687">Identificador</text></g><!--entity habitTitle--><g class="entity" data-qualified-name="habitTitle" data-source-line="167" id="ent0008"><rect fill="#C2F0FF" height="52.9688" rx="0.5" ry="0.5" style="stroke:#181818;stroke-width:0.5;" width="140" x="1043" y="262.93"/><path d="M1172.76,277.569 L1157.934,277.616 A0.5001,0.5001 0 0 0 1157.4343,278.1157 L1157.4343,279.5533 L1154.9461,279.5337 A0.5001,0.5001 0 0 0 1154.4417,280.0339 L1154.4417,281.9692 A0.5001,0.5001 0 0 0 1154.942,282.4695 L1157.4225,282.4695 L1157.3987,283.5123 L1154.8991,283.4926 A0.5001,0.5001 0 0 0 1154.3952,283.9928 L1154.3952,285.9281 A0.5001,0.5001 0 0 0 1154.8949,286.4284 L1157.3873,286.4284 L1157.3873,289.4303 A0.5001,0.5001 0 0 0 1157.8876,289.9305 L1172.7606,289.977 A0.5001,0.5001 0 0 0 1173.2624,289.4773 L1173.2624,278.0693 A0.5001,0.5001 0 0 0 1172.7606,277.5691 M1172.2618,278.571 L1172.2618,288.975 L1158.3868,288.9321 L1158.3868,286.4284 L1160.8812,286.4284 A0.5001,0.5001 0 0 0 1161.381,285.9282 L1161.381,284.0399 A0.5001,0.5001 0 0 0 1160.8849,283.5397 L1158.3987,283.52 L1158.4225,282.4694 L1160.9278,282.4694 A0.5001,0.5001 0 0 0 1161.428,281.9692 L1161.428,280.0804 A0.5001,0.5001 0 0 0 1160.9319,279.5807 L1158.4339,279.561 L1158.4339,278.6138 M1155.4418,280.5378 L1160.4281,280.5766 L1160.4281,281.4695 L1155.4418,281.4695 M1155.3948,284.4967 L1160.3811,284.536 L1160.3811,285.4284 L1155.3948,285.4284" fill="#000000"/><text fill="#000000" font-family="Verdana" font-size="12" lengthAdjust="spacing" textLength="47.9414" x="1089.0293" y="303.0687">Nombre</text></g><!--entity habitDesc--><g class="entity" data-qualified-name="habitDesc" data-source-line="167" id="ent0009"><rect fill="#C2F0FF" height="52.9688" rx="0.5" ry="0.5" style="stroke:#181818;stroke-width:0.5;" width="140" x="1343" y="262.93"/><path d="M1472.76,277.569 L1457.934,277.616 A0.5001,0.5001 0 0 0 1457.4343,278.1157 L1457.4343,279.5533 L1454.9461,279.5337 A0.5001,0.5001 0 0 0 1454.4417,280.0339 L1454.4417,281.9692 A0.5001,0.5001 0 0 0 1454.942,282.4695 L1457.4225,282.4695 L1457.3987,283.5123 L1454.8991,283.4926 A0.5001,0.5001 0 0 0 1454.3952,283.9928 L1454.3952,285.9281 A0.5001,0.5001 0 0 0 1454.8949,286.4284 L1457.3873,286.4284 L1457.3873,289.4303 A0.5001,0.5001 0 0 0 1457.8876,289.9305 L1472.7606,289.977 A0.5001,0.5001 0 0 0 1473.2624,289.4773 L1473.2624,278.0693 A0.5001,0.5001 0 0 0 1472.7606,277.5691 M1472.2618,278.571 L1472.2618,288.975 L1458.3868,288.9321 L1458.3868,286.4284 L1460.8812,286.4284 A0.5001,0.5001 0 0 0 1461.381,285.9282 L1461.381,284.0399 A0.5001,0.5001 0 0 0 1460.8849,283.5397 L1458.3987,283.52 L1458.4225,282.4694 L1460.9278,282.4694 A0.5001,0.5001 0 0 0 1461.428,281.9692 L1461.428,280.0804 A0.5001,0.5001 0 0 0 1460.9319,279.5807 L1458.4339,279.561 L1458.4339,278.6138 M1455.4418,280.5378 L1460.4281,280.5766 L1460.4281,281.4695 L1455.4418,281.4695 M1455.3948,284.4967 L1460.3811,284.536 L1460.3811,285.4284 L1455.3948,285.4284" fill="#000000"/><text fill="#000000" font-family="Verdana" font-size="12" lengthAdjust="spacing" textLength="70.2363" x="1377.8818" y="303.0687">Descripci&#243;n</text></g><!--entity habitPriority--><g class="entity" data-qualified-name="habitPriority" data-source-line="167" id="ent0010"><rect fill="#C2F0FF" height="52.9688" rx="0.5" ry="0.5" style="stroke:#181818;stroke-width:0.5;" width="140" x="1493" y="262.93"/><path d="M1622.76,277.569 L1607.934,277.616 A0.5001,0.5001 0 0 0 1607.4343,278.1157 L1607.4343,279.5533 L1604.9461,279.5337 A0.5001,0.5001 0 0 0 1604.4417,280.0339 L1604.4417,281.9692 A0.5001,0.5001 0 0 0 1604.942,282.4695 L1607.4225,282.4695 L1607.3987,283.5123 L1604.8991,283.4926 A0.5001,0.5001 0 0 0 1604.3952,283.9928 L1604.3952,285.9281 A0.5001,0.5001 0 0 0 1604.8949,286.4284 L1607.3873,286.4284 L1607.3873,289.4303 A0.5001,0.5001 0 0 0 1607.8876,289.9305 L1622.7606,289.977 A0.5001,0.5001 0 0 0 1623.2624,289.4773 L1623.2624,278.0693 A0.5001,0.5001 0 0 0 1622.7606,277.5691 M1622.2618,278.571 L1622.2618,288.975 L1608.3868,288.9321 L1608.3868,286.4284 L1610.8812,286.4284 A0.5001,0.5001 0 0 0 1611.381,285.9282 L1611.381,284.0399 A0.5001,0.5001 0 0 0 1610.8849,283.5397 L1608.3987,283.52 L1608.4225,282.4694 L1610.9278,282.4694 A0.5001,0.5001 0 0 0 1611.428,281.9692 L1611.428,280.0804 A0.5001,0.5001 0 0 0 1610.9319,279.5807 L1608.4339,279.561 L1608.4339,278.6138 M1605.4418,280.5378 L1610.4281,280.5766 L1610.4281,281.4695 L1605.4418,281.4695 M1605.3948,284.4967 L1610.3811,284.536 L1610.3811,285.4284 L1605.3948,285.4284" fill="#000000"/><text fill="#000000" font-family="Verdana" font-size="12" lengthAdjust="spacing" textLength="30.1289" x="1509.7705" y="303.0687">Nivel</text><text fill="#000000" font-family="Verdana" font-size="12" lengthAdjust="spacing" textLength="3.8145" x="1539.8994" y="303.0687">&#160;</text><text fill="#000000" font-family="Verdana" font-size="12" lengthAdjust="spacing" textLength="15" x="1543.7139" y="303.0687">de</text><text fill="#000000" font-family="Verdana" font-size="12" lengthAdjust="spacing" textLength="3.8145" x="1558.7139" y="303.0687">&#160;</text><text fill="#000000" font-family="Verdana" font-size="12" lengthAdjust="spacing" textLength="53.7012" x="1562.5283" y="303.0687">Prioridad</text></g><!--entity habitCreatedDate--><g class="entity" data-qualified-name="habitCreatedDate" data-source-line="167" id="ent0011"><rect fill="#C2F0FF" height="52.9688" rx="0.5" ry="0.5" style="stroke:#181818;stroke-width:0.5;" width="140" x="1193" y="262.93"/><path d="M1322.76,277.569 L1307.934,277.616 A0.5001,0.5001 0 0 0 1307.4343,278.1157 L1307.4343,279.5533 L1304.9461,279.5337 A0.5001,0.5001 0 0 0 1304.4417,280.0339 L1304.4417,281.9692 A0.5001,0.5001 0 0 0 1304.942,282.4695 L1307.4225,282.4695 L1307.3987,283.5123 L1304.8991,283.4926 A0.5001,0.5001 0 0 0 1304.3952,283.9928 L1304.3952,285.9281 A0.5001,0.5001 0 0 0 1304.8949,286.4284 L1307.3873,286.4284 L1307.3873,289.4303 A0.5001,0.5001 0 0 0 1307.8876,289.9305 L1322.7606,289.977 A0.5001,0.5001 0 0 0 1323.2624,289.4773 L1323.2624,278.0693 A0.5001,0.5001 0 0 0 1322.7606,277.5691 M1322.2618,278.571 L1322.2618,288.975 L1308.3868,288.9321 L1308.3868,286.4284 L1310.8812,286.4284 A0.5001,0.5001 0 0 0 1311.381,285.9282 L1311.381,284.0399 A0.5001,0.5001 0 0 0 1310.8849,283.5397 L1308.3987,283.52 L1308.4225,282.4694 L1310.9278,282.4694 A0.5001,0.5001 0 0 0 1311.428,281.9692 L1311.428,280.0804 A0.5001,0.5001 0 0 0 1310.9319,279.5807 L1308.4339,279.561 L1308.4339,278.6138 M1305.4418,280.5378 L1310.4281,280.5766 L1310.4281,281.4695 L1305.4418,281.4695 M1305.3948,284.4967 L1310.3811,284.536 L1310.3811,285.4284 L1305.3948,285.4284" fill="#000000"/><text fill="#000000" font-family="Verdana" font-size="12" lengthAdjust="spacing" textLength="35.8418" x="1207.3008" y="303.0687">Fecha</text><text fill="#000000" font-family="Verdana" font-size="12" lengthAdjust="spacing" textLength="3.8145" x="1243.1426" y="303.0687">&#160;</text><text fill="#000000" font-family="Verdana" font-size="12" lengthAdjust="spacing" textLength="15" x="1246.957" y="303.0687">de</text><text fill="#000000" font-family="Verdana" font-size="12" lengthAdjust="spacing" textLength="3.8145" x="1261.957" y="303.0687">&#160;</text><text fill="#000000" font-family="Verdana" font-size="12" lengthAdjust="spacing" textLength="52.9277" x="1265.7715" y="303.0687">Creaci&#243;n</text></g><!--entity habitIsCompleted--><g class="entity" data-qualified-name="habitIsCompleted" data-source-line="167" id="ent0012"><rect fill="#C2F0FF" height="52.9688" rx="0.5" ry="0.5" style="stroke:#181818;stroke-width:0.5;" width="157.1914" x="557.4" y="262.93"/><path d="M704.3514,277.569 L689.5254,277.616 A0.5001,0.5001 0 0 0 689.0257,278.1157 L689.0257,279.5533 L686.5375,279.5337 A0.5001,0.5001 0 0 0 686.0331,280.0339 L686.0331,281.9692 A0.5001,0.5001 0 0 0 686.5334,282.4695 L689.0139,282.4695 L688.9901,283.5123 L686.4905,283.4926 A0.5001,0.5001 0 0 0 685.9866,283.9928 L685.9866,285.9281 A0.5001,0.5001 0 0 0 686.4863,286.4284 L688.9787,286.4284 L688.9787,289.4303 A0.5001,0.5001 0 0 0 689.479,289.9305 L704.352,289.977 A0.5001,0.5001 0 0 0 704.8538,289.4773 L704.8538,278.0693 A0.5001,0.5001 0 0 0 704.352,277.5691 M703.8532,278.571 L703.8532,288.975 L689.9782,288.9321 L689.9782,286.4284 L692.4726,286.4284 A0.5001,0.5001 0 0 0 692.9724,285.9282 L692.9724,284.0399 A0.5001,0.5001 0 0 0 692.4763,283.5397 L689.9901,283.52 L690.0139,282.4694 L692.5192,282.4694 A0.5001,0.5001 0 0 0 693.0194,281.9692 L693.0194,280.0804 A0.5001,0.5001 0 0 0 692.5233,279.5807 L690.0253,279.561 L690.0253,278.6138 M687.0332,280.5378 L692.0195,280.5766 L692.0195,281.4695 L687.0332,281.4695 M686.9862,284.4967 L691.9725,284.536 L691.9725,285.4284 L686.9862,285.4284" fill="#000000"/><text fill="#000000" font-family="Verdana" font-size="12" lengthAdjust="spacing" textLength="40.8516" x="567.4" y="303.0687">Estado</text><text fill="#000000" font-family="Verdana" font-size="12" lengthAdjust="spacing" textLength="3.8145" x="608.2516" y="303.0687">&#160;</text><text fill="#000000" font-family="Verdana" font-size="12" lengthAdjust="spacing" textLength="15" x="612.066" y="303.0687">de</text><text fill="#000000" font-family="Verdana" font-size="12" lengthAdjust="spacing" textLength="3.8145" x="627.066" y="303.0687">&#160;</text><text fill="#000000" font-family="Verdana" font-size="12" lengthAdjust="spacing" textLength="73.7109" x="630.8805" y="303.0687">Completitud</text></g><!--entity habitCompletionDates--><g class="entity" data-qualified-name="habitCompletionDates" data-source-line="167" id="ent0013"><rect fill="#C2F0FF" height="52.9688" rx="0.5" ry="0.5" style="stroke:#181818;stroke-width:0.5;" width="158.4336" x="724.78" y="262.93"/><path d="M872.9736,277.569 L858.1476,277.616 A0.5001,0.5001 0 0 0 857.6479,278.1157 L857.6479,279.5533 L855.1597,279.5337 A0.5001,0.5001 0 0 0 854.6553,280.0339 L854.6553,281.9692 A0.5001,0.5001 0 0 0 855.1555,282.4695 L857.636,282.4695 L857.6122,283.5123 L855.1126,283.4926 A0.5001,0.5001 0 0 0 854.6088,283.9928 L854.6088,285.9281 A0.5001,0.5001 0 0 0 855.1085,286.4284 L857.6009,286.4284 L857.6009,289.4303 A0.5001,0.5001 0 0 0 858.1011,289.9305 L872.9741,289.977 A0.5001,0.5001 0 0 0 873.4759,289.4773 L873.4759,278.0693 A0.5001,0.5001 0 0 0 872.9742,277.5691 M872.4754,278.571 L872.4754,288.975 L858.6004,288.9321 L858.6004,286.4284 L861.0948,286.4284 A0.5001,0.5001 0 0 0 861.5945,285.9282 L861.5945,284.0399 A0.5001,0.5001 0 0 0 861.0984,283.5397 L858.6122,283.52 L858.636,282.4694 L861.1413,282.4694 A0.5001,0.5001 0 0 0 861.6416,281.9692 L861.6416,280.0804 A0.5001,0.5001 0 0 0 861.1455,279.5807 L858.6475,279.561 L858.6475,278.6138 M855.6554,280.5378 L860.6417,280.5766 L860.6417,281.4695 L855.6554,281.4695 M855.6084,284.4967 L860.5947,284.536 L860.5947,285.4284 L855.6084,285.4284" fill="#000000"/><text fill="#000000" font-family="Verdana" font-size="12" lengthAdjust="spacing" textLength="42.0938" x="734.78" y="303.0687">Fechas</text><text fill="#000000" font-family="Verdana" font-size="12" lengthAdjust="spacing" textLength="3.8145" x="776.8738" y="303.0687">&#160;</text><text fill="#000000" font-family="Verdana" font-size="12" lengthAdjust="spacing" textLength="15" x="780.6882" y="303.0687">de</text><text fill="#000000" font-family="Verdana" font-size="12" lengthAdjust="spacing" textLength="3.8145" x="795.6882" y="303.0687">&#160;</text><text fill="#000000" font-family="Verdana" font-size="12" lengthAdjust="spacing" textLength="73.7109" x="799.5027" y="303.0687">Completitud</text></g><!--entity priorityLow--><g class="entity" data-qualified-name="priorityLow" data-source-line="167" id="ent0014"><rect fill="#C2F0FF" height="52.9688" rx="0.5" ry="0.5" style="stroke:#181818;stroke-width:0.5;" width="140" x="1343" y="134.96"/><path d="M1472.76,149.599 L1457.934,149.646 A0.5001,0.5001 0 0 0 1457.4343,150.1457 L1457.4343,151.5833 L1454.9461,151.5637 A0.5001,0.5001 0 0 0 1454.4417,152.0639 L1454.4417,153.9992 A0.5001,0.5001 0 0 0 1454.942,154.4994 L1457.4225,154.4994 L1457.3987,155.5422 L1454.8991,155.5226 A0.5001,0.5001 0 0 0 1454.3952,156.0228 L1454.3952,157.9581 A0.5001,0.5001 0 0 0 1454.8949,158.4584 L1457.3873,158.4584 L1457.3873,161.4603 A0.5001,0.5001 0 0 0 1457.8876,161.9605 L1472.7606,162.007 A0.5001,0.5001 0 0 0 1473.2624,161.5073 L1473.2624,150.0993 A0.5001,0.5001 0 0 0 1472.7606,149.5991 M1472.2618,150.601 L1472.2618,161.005 L1458.3868,160.9621 L1458.3868,158.4584 L1460.8812,158.4584 A0.5001,0.5001 0 0 0 1461.381,157.9582 L1461.381,156.0699 A0.5001,0.5001 0 0 0 1460.8849,155.5696 L1458.3987,155.55 L1458.4225,154.4994 L1460.9278,154.4994 A0.5001,0.5001 0 0 0 1461.428,153.9992 L1461.428,152.1104 A0.5001,0.5001 0 0 0 1460.9319,151.6107 L1458.4339,151.591 L1458.4339,150.6438 M1455.4418,152.5678 L1460.4281,152.6066 L1460.4281,153.4995 L1455.4418,153.4995 M1455.3948,156.5267 L1460.3811,156.566 L1460.3811,157.4584 L1455.3948,157.4584" fill="#000000"/><text fill="#000000" font-family="Verdana" font-size="12" lengthAdjust="spacing" textLength="26.2617" x="1399.8691" y="175.0987">Bajo</text></g><!--entity priorityMedium--><g class="entity" data-qualified-name="priorityMedium" data-source-line="167" id="ent0015"><rect fill="#C2F0FF" height="52.9688" rx="0.5" ry="0.5" style="stroke:#181818;stroke-width:0.5;" width="140" x="1493" y="134.96"/><path d="M1622.76,149.599 L1607.934,149.646 A0.5001,0.5001 0 0 0 1607.4343,150.1457 L1607.4343,151.5833 L1604.9461,151.5637 A0.5001,0.5001 0 0 0 1604.4417,152.0639 L1604.4417,153.9992 A0.5001,0.5001 0 0 0 1604.942,154.4994 L1607.4225,154.4994 L1607.3987,155.5422 L1604.8991,155.5226 A0.5001,0.5001 0 0 0 1604.3952,156.0228 L1604.3952,157.9581 A0.5001,0.5001 0 0 0 1604.8949,158.4584 L1607.3873,158.4584 L1607.3873,161.4603 A0.5001,0.5001 0 0 0 1607.8876,161.9605 L1622.7606,162.007 A0.5001,0.5001 0 0 0 1623.2624,161.5073 L1623.2624,150.0993 A0.5001,0.5001 0 0 0 1622.7606,149.5991 M1622.2618,150.601 L1622.2618,161.005 L1608.3868,160.9621 L1608.3868,158.4584 L1610.8812,158.4584 A0.5001,0.5001 0 0 0 1611.381,157.9582 L1611.381,156.0699 A0.5001,0.5001 0 0 0 1610.8849,155.5696 L1608.3987,155.55 L1608.4225,154.4994 L1610.9278,154.4994 A0.5001,0.5001 0 0 0 1611.428,153.9992 L1611.428,152.1104 A0.5001,0.5001 0 0 0 1610.9319,151.6107 L1608.4339,151.591 L1608.4339,150.6438 M1605.4418,152.5678 L1610.4281,152.6066 L1610.4281,153.4995 L1605.4418,153.4995 M1605.3948,156.5267 L1610.3811,156.566 L1610.3811,157.4584 L1605.3948,157.4584" fill="#000000"/><text fill="#000000" font-family="Verdana" font-size="12" lengthAdjust="spacing" textLength="36.0293" x="1544.9854" y="175.0987">Medio</text></g><!--entity priorityHigh--><g class="entity" data-qualified-name="priorityHigh" data-source-line="167" id="ent0016"><rect fill="#C2F0FF" height="52.9688" rx="0.5" ry="0.5" style="stroke:#181818;stroke-width:0.5;" width="140" x="1643" y="134.96"/><path d="M1772.76,149.599 L1757.934,149.646 A0.5001,0.5001 0 0 0 1757.4343,150.1457 L1757.4343,151.5833 L1754.9461,151.5637 A0.5001,0.5001 0 0 0 1754.4417,152.0639 L1754.4417,153.9992 A0.5001,0.5001 0 0 0 1754.942,154.4994 L1757.4225,154.4994 L1757.3987,155.5422 L1754.8991,155.5226 A0.5001,0.5001 0 0 0 1754.3952,156.0228 L1754.3952,157.9581 A0.5001,0.5001 0 0 0 1754.8949,158.4584 L1757.3873,158.4584 L1757.3873,161.4603 A0.5001,0.5001 0 0 0 1757.8876,161.9605 L1772.7606,162.007 A0.5001,0.5001 0 0 0 1773.2624,161.5073 L1773.2624,150.0993 A0.5001,0.5001 0 0 0 1772.7606,149.5991 M1772.2618,150.601 L1772.2618,161.005 L1758.3868,160.9621 L1758.3868,158.4584 L1760.8812,158.4584 A0.5001,0.5001 0 0 0 1761.381,157.9582 L1761.381,156.0699 A0.5001,0.5001 0 0 0 1760.8849,155.5696 L1758.3987,155.55 L1758.4225,154.4994 L1760.9278,154.4994 A0.5001,0.5001 0 0 0 1761.428,153.9992 L1761.428,152.1104 A0.5001,0.5001 0 0 0 1760.9319,151.6107 L1758.4339,151.591 L1758.4339,150.6438 M1755.4418,152.5678 L1760.4281,152.6066 L1760.4281,153.4995 L1755.4418,153.4995 M1755.3948,156.5267 L1760.3811,156.566 L1760.3811,157.4584 L1755.3948,157.4584" fill="#000000"/><text fill="#000000" font-family="Verdana" font-size="12" lengthAdjust="spacing" textLength="23.5898" x="1701.2051" y="175.0987">Alto</text></g><!--entity noteId--><g class="entity" data-qualified-name="noteId" data-source-line="167" id="ent0017"><rect fill="#C2F0FF" height="52.9688" rx="0.5" ry="0.5" style="stroke:#181818;stroke-width:0.5;" width="140" x="485" y="390.9"/><path d="M614.76,405.539 L599.934,405.586 A0.5001,0.5001 0 0 0 599.4343,406.0857 L599.4343,407.5233 L596.9461,407.5037 A0.5001,0.5001 0 0 0 596.4417,408.0039 L596.4417,409.9392 A0.5001,0.5001 0 0 0 596.942,410.4394 L599.4225,410.4394 L599.3987,411.4822 L596.8991,411.4626 A0.5001,0.5001 0 0 0 596.3952,411.9628 L596.3952,413.8981 A0.5001,0.5001 0 0 0 596.8949,414.3984 L599.3873,414.3984 L599.3873,417.4003 A0.5001,0.5001 0 0 0 599.8876,417.9005 L614.7606,417.947 A0.5001,0.5001 0 0 0 615.2624,417.4473 L615.2624,406.0393 A0.5001,0.5001 0 0 0 614.7606,405.5391 M614.2618,406.541 L614.2618,416.945 L600.3868,416.9021 L600.3868,414.3984 L602.8812,414.3984 A0.5001,0.5001 0 0 0 603.381,413.8982 L603.381,412.0099 A0.5001,0.5001 0 0 0 602.8849,411.5096 L600.3987,411.49 L600.4225,410.4394 L602.9278,410.4394 A0.5001,0.5001 0 0 0 603.428,409.9392 L603.428,408.0504 A0.5001,0.5001 0 0 0 602.9319,407.5507 L600.4339,407.531 L600.4339,406.5838 M597.4418,408.5078 L602.4281,408.5466 L602.4281,409.4395 L597.4418,409.4395 M597.3948,412.4667 L602.3811,412.506 L602.3811,413.3984 L597.3948,413.3984" fill="#000000"/><text fill="#000000" font-family="Verdana" font-size="12" lengthAdjust="spacing" textLength="75.5859" x="517.207" y="431.0387">Identificador</text></g><!--entity noteContent--><g class="entity" data-qualified-name="noteContent" data-source-line="167" id="ent0018"><rect fill="#C2F0FF" height="52.9688" rx="0.5" ry="0.5" style="stroke:#181818;stroke-width:0.5;" width="140" x="635" y="390.9"/><path d="M764.76,405.539 L749.934,405.586 A0.5001,0.5001 0 0 0 749.4343,406.0857 L749.4343,407.5233 L746.9461,407.5037 A0.5001,0.5001 0 0 0 746.4417,408.0039 L746.4417,409.9392 A0.5001,0.5001 0 0 0 746.942,410.4394 L749.4225,410.4394 L749.3987,411.4822 L746.8991,411.4626 A0.5001,0.5001 0 0 0 746.3952,411.9628 L746.3952,413.8981 A0.5001,0.5001 0 0 0 746.8949,414.3984 L749.3873,414.3984 L749.3873,417.4003 A0.5001,0.5001 0 0 0 749.8876,417.9005 L764.7606,417.947 A0.5001,0.5001 0 0 0 765.2624,417.4473 L765.2624,406.0393 A0.5001,0.5001 0 0 0 764.7606,405.5391 M764.2618,406.541 L764.2618,416.945 L750.3868,416.9021 L750.3868,414.3984 L752.8812,414.3984 A0.5001,0.5001 0 0 0 753.381,413.8982 L753.381,412.0099 A0.5001,0.5001 0 0 0 752.8849,411.5096 L750.3987,411.49 L750.4225,410.4394 L752.9278,410.4394 A0.5001,0.5001 0 0 0 753.428,409.9392 L753.428,408.0504 A0.5001,0.5001 0 0 0 752.9319,407.5507 L750.4339,407.531 L750.4339,406.5838 M747.4418,408.5078 L752.4281,408.5466 L752.4281,409.4395 L747.4418,409.4395 M747.3948,412.4667 L752.3811,412.506 L752.3811,413.3984 L747.3948,413.3984" fill="#000000"/><text fill="#000000" font-family="Verdana" font-size="12" lengthAdjust="spacing" textLength="61.3125" x="674.3438" y="431.0387">Contenido</text></g><!--entity noteDate--><g class="entity" data-qualified-name="noteDate" data-source-line="167" id="ent0019"><rect fill="#C2F0FF" height="52.9688" rx="0.5" ry="0.5" style="stroke:#181818;stroke-width:0.5;" width="140" x="785" y="390.9"/><path d="M914.76,405.539 L899.934,405.586 A0.5001,0.5001 0 0 0 899.4343,406.0857 L899.4343,407.5233 L896.9461,407.5037 A0.5001,0.5001 0 0 0 896.4417,408.0039 L896.4417,409.9392 A0.5001,0.5001 0 0 0 896.942,410.4394 L899.4225,410.4394 L899.3987,411.4822 L896.8991,411.4626 A0.5001,0.5001 0 0 0 896.3952,411.9628 L896.3952,413.8981 A0.5001,0.5001 0 0 0 896.8949,414.3984 L899.3873,414.3984 L899.3873,417.4003 A0.5001,0.5001 0 0 0 899.8876,417.9005 L914.7606,417.947 A0.5001,0.5001 0 0 0 915.2624,417.4473 L915.2624,406.0393 A0.5001,0.5001 0 0 0 914.7606,405.5391 M914.2618,406.541 L914.2618,416.945 L900.3868,416.9021 L900.3868,414.3984 L902.8812,414.3984 A0.5001,0.5001 0 0 0 903.381,413.8982 L903.381,412.0099 A0.5001,0.5001 0 0 0 902.8849,411.5096 L900.3987,411.49 L900.4225,410.4394 L902.9278,410.4394 A0.5001,0.5001 0 0 0 903.428,409.9392 L903.428,408.0504 A0.5001,0.5001 0 0 0 902.9319,407.5507 L900.4339,407.531 L900.4339,406.5838 M897.4418,408.5078 L902.4281,408.5466 L902.4281,409.4395 L897.4418,409.4395 M897.3948,412.4667 L902.3811,412.506 L902.3811,413.3984 L897.3948,413.3984" fill="#000000"/><text fill="#000000" font-family="Verdana" font-size="12" lengthAdjust="spacing" textLength="35.8418" x="811.5762" y="431.0387">Fecha</text><text fill="#000000" font-family="Verdana" font-size="12" lengthAdjust="spacing" textLength="3.8145" x="847.418" y="431.0387">&#160;</text><text fill="#000000" font-family="Verdana" font-size="12" lengthAdjust="spacing" textLength="15" x="851.2324" y="431.0387">de</text><text fill="#000000" font-family="Verdana" font-size="12" lengthAdjust="spacing" textLength="3.8145" x="866.2324" y="431.0387">&#160;</text><text fill="#000000" font-family="Verdana" font-size="12" lengthAdjust="spacing" textLength="28.377" x="870.0469" y="431.0387">Nota</text></g><!--entity noteCreatedDate--><g class="entity" data-qualified-name="noteCreatedDate" data-source-line="167" id="ent0020"><rect fill="#C2F0FF" height="52.9688" rx="0.5" ry="0.5" style="stroke:#181818;stroke-width:0.5;" width="140" x="7" y="390.9"/><path d="M136.76,405.539 L121.934,405.586 A0.5001,0.5001 0 0 0 121.4343,406.0857 L121.4343,407.5233 L118.9461,407.5037 A0.5001,0.5001 0 0 0 118.4417,408.0039 L118.4417,409.9392 A0.5001,0.5001 0 0 0 118.942,410.4394 L121.4225,410.4394 L121.3987,411.4822 L118.8991,411.4626 A0.5001,0.5001 0 0 0 118.3952,411.9628 L118.3952,413.8981 A0.5001,0.5001 0 0 0 118.8949,414.3984 L121.3873,414.3984 L121.3873,417.4003 A0.5001,0.5001 0 0 0 121.8876,417.9005 L136.7606,417.947 A0.5001,0.5001 0 0 0 137.2624,417.4473 L137.2624,406.0393 A0.5001,0.5001 0 0 0 136.7606,405.5391 M136.2618,406.541 L136.2618,416.945 L122.3868,416.9021 L122.3868,414.3984 L124.8812,414.3984 A0.5001,0.5001 0 0 0 125.381,413.8982 L125.381,412.0099 A0.5001,0.5001 0 0 0 124.8849,411.5096 L122.3987,411.49 L122.4225,410.4394 L124.9278,410.4394 A0.5001,0.5001 0 0 0 125.428,409.9392 L125.428,408.0504 A0.5001,0.5001 0 0 0 124.9319,407.5507 L122.4339,407.531 L122.4339,406.5838 M119.4418,408.5078 L124.4281,408.5466 L124.4281,409.4395 L119.4418,409.4395 M119.3948,412.4667 L124.3811,412.506 L124.3811,413.3984 L119.3948,413.3984" fill="#000000"/><text fill="#000000" font-family="Verdana" font-size="12" lengthAdjust="spacing" textLength="35.8418" x="21.3008" y="431.0387">Fecha</text><text fill="#000000" font-family="Verdana" font-size="12" lengthAdjust="spacing" textLength="3.8145" x="57.1426" y="431.0387">&#160;</text><text fill="#000000" font-family="Verdana" font-size="12" lengthAdjust="spacing" textLength="15" x="60.957" y="431.0387">de</text><text fill="#000000" font-family="Verdana" font-size="12" lengthAdjust="spacing" textLength="3.8145" x="75.957" y="431.0387">&#160;</text><text fill="#000000" font-family="Verdana" font-size="12" lengthAdjust="spacing" textLength="52.9277" x="79.7715" y="431.0387">Creaci&#243;n</text></g><!--entity noteUpdatedDate--><g class="entity" data-qualified-name="noteUpdatedDate" data-source-line="167" id="ent0021"><rect fill="#C2F0FF" height="52.9688" rx="0.5" ry="0.5" style="stroke:#181818;stroke-width:0.5;" width="158.1406" x="156.93" y="390.9"/><path d="M304.8306,405.539 L290.0046,405.586 A0.5001,0.5001 0 0 0 289.5049,406.0857 L289.5049,407.5233 L287.0167,407.5037 A0.5001,0.5001 0 0 0 286.5124,408.0039 L286.5124,409.9392 A0.5001,0.5001 0 0 0 287.0126,410.4394 L289.4931,410.4394 L289.4693,411.4822 L286.9697,411.4626 A0.5001,0.5001 0 0 0 286.4658,411.9628 L286.4658,413.8981 A0.5001,0.5001 0 0 0 286.9655,414.3984 L289.4579,414.3984 L289.4579,417.4003 A0.5001,0.5001 0 0 0 289.9582,417.9005 L304.8312,417.947 A0.5001,0.5001 0 0 0 305.333,417.4473 L305.333,406.0393 A0.5001,0.5001 0 0 0 304.8312,405.5391 M304.3325,406.541 L304.3325,416.945 L290.4575,416.9021 L290.4575,414.3984 L292.9519,414.3984 A0.5001,0.5001 0 0 0 293.4516,413.8982 L293.4516,412.0099 A0.5001,0.5001 0 0 0 292.9555,411.5096 L290.4693,411.49 L290.4931,410.4394 L292.9984,410.4394 A0.5001,0.5001 0 0 0 293.4986,409.9392 L293.4986,408.0504 A0.5001,0.5001 0 0 0 293.0025,407.5507 L290.5045,407.531 L290.5045,406.5838 M287.5125,408.5078 L292.4988,408.5466 L292.4988,409.4395 L287.5125,409.4395 M287.4655,412.4667 L292.4518,412.506 L292.4518,413.3984 L287.4655,413.3984" fill="#000000"/><text fill="#000000" font-family="Verdana" font-size="12" lengthAdjust="spacing" textLength="35.8418" x="166.93" y="431.0387">Fecha</text><text fill="#000000" font-family="Verdana" font-size="12" lengthAdjust="spacing" textLength="3.8145" x="202.7718" y="431.0387">&#160;</text><text fill="#000000" font-family="Verdana" font-size="12" lengthAdjust="spacing" textLength="15" x="206.5863" y="431.0387">de</text><text fill="#000000" font-family="Verdana" font-size="12" lengthAdjust="spacing" textLength="3.8145" x="221.5863" y="431.0387">&#160;</text><text fill="#000000" font-family="Verdana" font-size="12" lengthAdjust="spacing" textLength="79.6699" x="225.4007" y="431.0387">Actualizaci&#243;n</text></g><!--entity noteHabitRef--><g class="entity" data-qualified-name="noteHabitRef" data-source-line="167" id="ent0022"><rect fill="#C2F0FF" height="52.9688" rx="0.5" ry="0.5" style="stroke:#181818;stroke-width:0.5;" width="149.873" x="325.06" y="390.9"/><path d="M464.693,405.539 L449.867,405.586 A0.5001,0.5001 0 0 0 449.3673,406.0857 L449.3673,407.5233 L446.8791,407.5037 A0.5001,0.5001 0 0 0 446.3748,408.0039 L446.3748,409.9392 A0.5001,0.5001 0 0 0 446.875,410.4394 L449.3555,410.4394 L449.3317,411.4822 L446.8321,411.4626 A0.5001,0.5001 0 0 0 446.3283,411.9628 L446.3283,413.8981 A0.5001,0.5001 0 0 0 446.828,414.3984 L449.3204,414.3984 L449.3204,417.4003 A0.5001,0.5001 0 0 0 449.8206,417.9005 L464.6936,417.947 A0.5001,0.5001 0 0 0 465.1954,417.4473 L465.1954,406.0393 A0.5001,0.5001 0 0 0 464.6936,405.5391 M464.1949,406.541 L464.1949,416.945 L450.3199,416.9021 L450.3199,414.3984 L452.8143,414.3984 A0.5001,0.5001 0 0 0 453.314,413.8982 L453.314,412.0099 A0.5001,0.5001 0 0 0 452.8179,411.5096 L450.3317,411.49 L450.3555,410.4394 L452.8608,410.4394 A0.5001,0.5001 0 0 0 453.361,409.9392 L453.361,408.0504 A0.5001,0.5001 0 0 0 452.8649,407.5507 L450.3669,407.531 L450.3669,406.5838 M447.3749,408.5078 L452.3612,408.5466 L452.3612,409.4395 L447.3749,409.4395 M447.3279,412.4667 L452.3142,412.506 L452.3142,413.3984 L447.3279,413.3984" fill="#000000"/><text fill="#000000" font-family="Verdana" font-size="12" lengthAdjust="spacing" textLength="64.5352" x="335.06" y="431.0387">Referencia</text><text fill="#000000" font-family="Verdana" font-size="12" lengthAdjust="spacing" textLength="3.8145" x="399.5952" y="431.0387">&#160;</text><text fill="#000000" font-family="Verdana" font-size="12" lengthAdjust="spacing" textLength="18.334" x="403.4096" y="431.0387">del</text><text fill="#000000" font-family="Verdana" font-size="12" lengthAdjust="spacing" textLength="3.8145" x="421.7436" y="431.0387">&#160;</text><text fill="#000000" font-family="Verdana" font-size="12" lengthAdjust="spacing" textLength="39.375" x="425.558" y="431.0387">H&#225;bito</text></g><!--entity goalId--><g class="entity" data-qualified-name="goalId" data-source-line="167" id="ent0023"><rect fill="#C2F0FF" height="52.9688" rx="0.5" ry="0.5" style="stroke:#181818;stroke-width:0.5;" width="140" x="2436" y="262.93"/><path d="M2565.76,277.569 L2550.934,277.616 A0.5001,0.5001 0 0 0 2550.4343,278.1157 L2550.4343,279.5533 L2547.9461,279.5337 A0.5001,0.5001 0 0 0 2547.4417,280.0339 L2547.4417,281.9692 A0.5001,0.5001 0 0 0 2547.942,282.4695 L2550.4225,282.4695 L2550.3987,283.5123 L2547.8991,283.4926 A0.5001,0.5001 0 0 0 2547.3952,283.9928 L2547.3952,285.9281 A0.5001,0.5001 0 0 0 2547.8949,286.4284 L2550.3873,286.4284 L2550.3873,289.4303 A0.5001,0.5001 0 0 0 2550.8876,289.9305 L2565.7606,289.977 A0.5001,0.5001 0 0 0 2566.2624,289.4773 L2566.2624,278.0693 A0.5001,0.5001 0 0 0 2565.7606,277.5691 M2565.2618,278.571 L2565.2618,288.975 L2551.3868,288.9321 L2551.3868,286.4284 L2553.8812,286.4284 A0.5001,0.5001 0 0 0 2554.381,285.9282 L2554.381,284.0399 A0.5001,0.5001 0 0 0 2553.8849,283.5397 L2551.3987,283.52 L2551.4225,282.4694 L2553.9278,282.4694 A0.5001,0.5001 0 0 0 2554.428,281.9692 L2554.428,280.0804 A0.5001,0.5001 0 0 0 2553.9319,279.5807 L2551.4339,279.561 L2551.4339,278.6138 M2548.4418,280.5378 L2553.4281,280.5766 L2553.4281,281.4695 L2548.4418,281.4695 M2548.3948,284.4967 L2553.3811,284.536 L2553.3811,285.4284 L2548.3948,285.4284" fill="#000000"/><text fill="#000000" font-family="Verdana" font-size="12" lengthAdjust="spacing" textLength="75.5859" x="2468.207" y="303.0687">Identificador</text></g><!--entity goalTitle--><g class="entity" data-qualified-name="goalTitle" data-source-line="167" id="ent0024"><rect fill="#C2F0FF" height="52.9688" rx="0.5" ry="0.5" style="stroke:#181818;stroke-width:0.5;" width="140" x="2586" y="262.93"/><path d="M2715.76,277.569 L2700.934,277.616 A0.5001,0.5001 0 0 0 2700.4343,278.1157 L2700.4343,279.5533 L2697.9461,279.5337 A0.5001,0.5001 0 0 0 2697.4417,280.0339 L2697.4417,281.9692 A0.5001,0.5001 0 0 0 2697.942,282.4695 L2700.4225,282.4695 L2700.3987,283.5123 L2697.8991,283.4926 A0.5001,0.5001 0 0 0 2697.3952,283.9928 L2697.3952,285.9281 A0.5001,0.5001 0 0 0 2697.8949,286.4284 L2700.3873,286.4284 L2700.3873,289.4303 A0.5001,0.5001 0 0 0 2700.8876,289.9305 L2715.7606,289.977 A0.5001,0.5001 0 0 0 2716.2624,289.4773 L2716.2624,278.0693 A0.5001,0.5001 0 0 0 2715.7606,277.5691 M2715.2618,278.571 L2715.2618,288.975 L2701.3868,288.9321 L2701.3868,286.4284 L2703.8812,286.4284 A0.5001,0.5001 0 0 0 2704.381,285.9282 L2704.381,284.0399 A0.5001,0.5001 0 0 0 2703.8849,283.5397 L2701.3987,283.52 L2701.4225,282.4694 L2703.9278,282.4694 A0.5001,0.5001 0 0 0 2704.428,281.9692 L2704.428,280.0804 A0.5001,0.5001 0 0 0 2703.9319,279.5807 L2701.4339,279.561 L2701.4339,278.6138 M2698.4418,280.5378 L2703.4281,280.5766 L2703.4281,281.4695 L2698.4418,281.4695 M2698.3948,284.4967 L2703.3811,284.536 L2703.3811,285.4284 L2698.3948,285.4284" fill="#000000"/><text fill="#000000" font-family="Verdana" font-size="12" lengthAdjust="spacing" textLength="47.9414" x="2632.0293" y="303.0687">Nombre</text></g><!--entity goalDesc--><g class="entity" data-qualified-name="goalDesc" data-source-line="167" id="ent0025"><rect fill="#C2F0FF" height="52.9688" rx="0.5" ry="0.5" style="stroke:#181818;stroke-width:0.5;" width="140" x="2736" y="262.93"/><path d="M2865.76,277.569 L2850.934,277.616 A0.5001,0.5001 0 0 0 2850.4343,278.1157 L2850.4343,279.5533 L2847.9461,279.5337 A0.5001,0.5001 0 0 0 2847.4417,280.0339 L2847.4417,281.9692 A0.5001,0.5001 0 0 0 2847.942,282.4695 L2850.4225,282.4695 L2850.3987,283.5123 L2847.8991,283.4926 A0.5001,0.5001 0 0 0 2847.3952,283.9928 L2847.3952,285.9281 A0.5001,0.5001 0 0 0 2847.8949,286.4284 L2850.3873,286.4284 L2850.3873,289.4303 A0.5001,0.5001 0 0 0 2850.8876,289.9305 L2865.7606,289.977 A0.5001,0.5001 0 0 0 2866.2624,289.4773 L2866.2624,278.0693 A0.5001,0.5001 0 0 0 2865.7606,277.5691 M2865.2618,278.571 L2865.2618,288.975 L2851.3868,288.9321 L2851.3868,286.4284 L2853.8812,286.4284 A0.5001,0.5001 0 0 0 2854.381,285.9282 L2854.381,284.0399 A0.5001,0.5001 0 0 0 2853.8849,283.5397 L2851.3987,283.52 L2851.4225,282.4694 L2853.9278,282.4694 A0.5001,0.5001 0 0 0 2854.428,281.9692 L2854.428,280.0804 A0.5001,0.5001 0 0 0 2853.9319,279.5807 L2851.4339,279.561 L2851.4339,278.6138 M2848.4418,280.5378 L2853.4281,280.5766 L2853.4281,281.4695 L2848.4418,281.4695 M2848.3948,284.4967 L2853.3811,284.536 L2853.3811,285.4284 L2848.3948,285.4284" fill="#000000"/><text fill="#000000" font-family="Verdana" font-size="12" lengthAdjust="spacing" textLength="70.2363" x="2770.8818" y="303.0687">Descripci&#243;n</text></g><!--entity goalTarget--><g class="entity" data-qualified-name="goalTarget" data-source-line="167" id="ent0026"><rect fill="#C2F0FF" height="52.9688" rx="0.5" ry="0.5" style="stroke:#181818;stroke-width:0.5;" width="140" x="2886" y="262.93"/><path d="M3015.76,277.569 L3000.934,277.616 A0.5001,0.5001 0 0 0 3000.4343,278.1157 L3000.4343,279.5533 L2997.9461,279.5337 A0.5001,0.5001 0 0 0 2997.4417,280.0339 L2997.4417,281.9692 A0.5001,0.5001 0 0 0 2997.942,282.4695 L3000.4225,282.4695 L3000.3987,283.5123 L2997.8991,283.4926 A0.5001,0.5001 0 0 0 2997.3952,283.9928 L2997.3952,285.9281 A0.5001,0.5001 0 0 0 2997.8949,286.4284 L3000.3873,286.4284 L3000.3873,289.4303 A0.5001,0.5001 0 0 0 3000.8876,289.9305 L3015.7606,289.977 A0.5001,0.5001 0 0 0 3016.2624,289.4773 L3016.2624,278.0693 A0.5001,0.5001 0 0 0 3015.7606,277.5691 M3015.2618,278.571 L3015.2618,288.975 L3001.3868,288.9321 L3001.3868,286.4284 L3003.8812,286.4284 A0.5001,0.5001 0 0 0 3004.381,285.9282 L3004.381,284.0399 A0.5001,0.5001 0 0 0 3003.8849,283.5397 L3001.3987,283.52 L3001.4225,282.4694 L3003.9278,282.4694 A0.5001,0.5001 0 0 0 3004.428,281.9692 L3004.428,280.0804 A0.5001,0.5001 0 0 0 3003.9319,279.5807 L3001.4339,279.561 L3001.4339,278.6138 M2998.4418,280.5378 L3003.4281,280.5766 L3003.4281,281.4695 L2998.4418,281.4695 M2998.3948,284.4967 L3003.3811,284.536 L3003.3811,285.4284 L2998.3948,285.4284" fill="#000000"/><text fill="#000000" font-family="Verdana" font-size="12" lengthAdjust="spacing" textLength="31.1719" x="2923.6094" y="303.0687">Valor</text><text fill="#000000" font-family="Verdana" font-size="12" lengthAdjust="spacing" textLength="3.8145" x="2954.7813" y="303.0687">&#160;</text><text fill="#000000" font-family="Verdana" font-size="12" lengthAdjust="spacing" textLength="29.7949" x="2958.5957" y="303.0687">Meta</text></g><!--entity goalProgress--><g class="entity" data-qualified-name="goalProgress" data-source-line="167" id="ent0027"><rect fill="#C2F0FF" height="52.9688" rx="0.5" ry="0.5" style="stroke:#181818;stroke-width:0.5;" width="140" x="1424" y="390.9"/><path d="M1553.76,405.539 L1538.934,405.586 A0.5001,0.5001 0 0 0 1538.4343,406.0857 L1538.4343,407.5233 L1535.9461,407.5037 A0.5001,0.5001 0 0 0 1535.4417,408.0039 L1535.4417,409.9392 A0.5001,0.5001 0 0 0 1535.942,410.4394 L1538.4225,410.4394 L1538.3987,411.4822 L1535.8991,411.4626 A0.5001,0.5001 0 0 0 1535.3952,411.9628 L1535.3952,413.8981 A0.5001,0.5001 0 0 0 1535.8949,414.3984 L1538.3873,414.3984 L1538.3873,417.4003 A0.5001,0.5001 0 0 0 1538.8876,417.9005 L1553.7606,417.947 A0.5001,0.5001 0 0 0 1554.2624,417.4473 L1554.2624,406.0393 A0.5001,0.5001 0 0 0 1553.7606,405.5391 M1553.2618,406.541 L1553.2618,416.945 L1539.3868,416.9021 L1539.3868,414.3984 L1541.8812,414.3984 A0.5001,0.5001 0 0 0 1542.381,413.8982 L1542.381,412.0099 A0.5001,0.5001 0 0 0 1541.8849,411.5096 L1539.3987,411.49 L1539.4225,410.4394 L1541.9278,410.4394 A0.5001,0.5001 0 0 0 1542.428,409.9392 L1542.428,408.0504 A0.5001,0.5001 0 0 0 1541.9319,407.5507 L1539.4339,407.531 L1539.4339,406.5838 M1536.4418,408.5078 L1541.4281,408.5466 L1541.4281,409.4395 L1536.4418,409.4395 M1536.3948,412.4667 L1541.3811,412.506 L1541.3811,413.3984 L1536.3948,413.3984" fill="#000000"/><text fill="#000000" font-family="Verdana" font-size="12" lengthAdjust="spacing" textLength="53.0391" x="1446.6709" y="431.0387">Progreso</text><text fill="#000000" font-family="Verdana" font-size="12" lengthAdjust="spacing" textLength="3.8145" x="1499.71" y="431.0387">&#160;</text><text fill="#000000" font-family="Verdana" font-size="12" lengthAdjust="spacing" textLength="37.8047" x="1503.5244" y="431.0387">Actual</text></g><!--entity goalDeadline--><g class="entity" data-qualified-name="goalDeadline" data-source-line="167" id="ent0028"><rect fill="#C2F0FF" height="52.9688" rx="0.5" ry="0.5" style="stroke:#181818;stroke-width:0.5;" width="140" x="1643" y="262.93"/><path d="M1772.76,277.569 L1757.934,277.616 A0.5001,0.5001 0 0 0 1757.4343,278.1157 L1757.4343,279.5533 L1754.9461,279.5337 A0.5001,0.5001 0 0 0 1754.4417,280.0339 L1754.4417,281.9692 A0.5001,0.5001 0 0 0 1754.942,282.4695 L1757.4225,282.4695 L1757.3987,283.5123 L1754.8991,283.4926 A0.5001,0.5001 0 0 0 1754.3952,283.9928 L1754.3952,285.9281 A0.5001,0.5001 0 0 0 1754.8949,286.4284 L1757.3873,286.4284 L1757.3873,289.4303 A0.5001,0.5001 0 0 0 1757.8876,289.9305 L1772.7606,289.977 A0.5001,0.5001 0 0 0 1773.2624,289.4773 L1773.2624,278.0693 A0.5001,0.5001 0 0 0 1772.7606,277.5691 M1772.2618,278.571 L1772.2618,288.975 L1758.3868,288.9321 L1758.3868,286.4284 L1760.8812,286.4284 A0.5001,0.5001 0 0 0 1761.381,285.9282 L1761.381,284.0399 A0.5001,0.5001 0 0 0 1760.8849,283.5397 L1758.3987,283.52 L1758.4225,282.4694 L1760.9278,282.4694 A0.5001,0.5001 0 0 0 1761.428,281.9692 L1761.428,280.0804 A0.5001,0.5001 0 0 0 1760.9319,279.5807 L1758.4339,279.561 L1758.4339,278.6138 M1755.4418,280.5378 L1760.4281,280.5766 L1760.4281,281.4695 L1755.4418,281.4695 M1755.3948,284.4967 L1760.3811,284.536 L1760.3811,285.4284 L1755.3948,285.4284" fill="#000000"/><text fill="#000000" font-family="Verdana" font-size="12" lengthAdjust="spacing" textLength="35.8418" x="1674.6064" y="303.0687">Fecha</text><text fill="#000000" font-family="Verdana" font-size="12" lengthAdjust="spacing" textLength="3.8145" x="1710.4482" y="303.0687">&#160;</text><text fill="#000000" font-family="Verdana" font-size="12" lengthAdjust="spacing" textLength="37.1309" x="1714.2627" y="303.0687">L&#237;mite</text></g><!--entity goalStatus--><g class="entity" data-qualified-name="goalStatus" data-source-line="167" id="ent0029"><rect fill="#C2F0FF" height="52.9688" rx="0.5" ry="0.5" style="stroke:#181818;stroke-width:0.5;" width="140" x="1793" y="262.93"/><path d="M1922.76,277.569 L1907.934,277.616 A0.5001,0.5001 0 0 0 1907.4343,278.1157 L1907.4343,279.5533 L1904.9461,279.5337 A0.5001,0.5001 0 0 0 1904.4417,280.0339 L1904.4417,281.9692 A0.5001,0.5001 0 0 0 1904.942,282.4695 L1907.4225,282.4695 L1907.3987,283.5123 L1904.8991,283.4926 A0.5001,0.5001 0 0 0 1904.3952,283.9928 L1904.3952,285.9281 A0.5001,0.5001 0 0 0 1904.8949,286.4284 L1907.3873,286.4284 L1907.3873,289.4303 A0.5001,0.5001 0 0 0 1907.8876,289.9305 L1922.7606,289.977 A0.5001,0.5001 0 0 0 1923.2624,289.4773 L1923.2624,278.0693 A0.5001,0.5001 0 0 0 1922.7606,277.5691 M1922.2618,278.571 L1922.2618,288.975 L1908.3868,288.9321 L1908.3868,286.4284 L1910.8812,286.4284 A0.5001,0.5001 0 0 0 1911.381,285.9282 L1911.381,284.0399 A0.5001,0.5001 0 0 0 1910.8849,283.5397 L1908.3987,283.52 L1908.4225,282.4694 L1910.9278,282.4694 A0.5001,0.5001 0 0 0 1911.428,281.9692 L1911.428,280.0804 A0.5001,0.5001 0 0 0 1910.9319,279.5807 L1908.4339,279.561 L1908.4339,278.6138 M1905.4418,280.5378 L1910.4281,280.5766 L1910.4281,281.4695 L1905.4418,281.4695 M1905.3948,284.4967 L1910.3811,284.536 L1910.3811,285.4284 L1905.3948,285.4284" fill="#000000"/><text fill="#000000" font-family="Verdana" font-size="12" lengthAdjust="spacing" textLength="40.8516" x="1842.5742" y="303.0687">Estado</text></g><!--entity goalCreatedDate--><g class="entity" data-qualified-name="goalCreatedDate" data-source-line="167" id="ent0030"><rect fill="#C2F0FF" height="52.9688" rx="0.5" ry="0.5" style="stroke:#181818;stroke-width:0.5;" width="140" x="1943" y="262.93"/><path d="M2072.76,277.569 L2057.934,277.616 A0.5001,0.5001 0 0 0 2057.4343,278.1157 L2057.4343,279.5533 L2054.9461,279.5337 A0.5001,0.5001 0 0 0 2054.4417,280.0339 L2054.4417,281.9692 A0.5001,0.5001 0 0 0 2054.942,282.4695 L2057.4225,282.4695 L2057.3987,283.5123 L2054.8991,283.4926 A0.5001,0.5001 0 0 0 2054.3952,283.9928 L2054.3952,285.9281 A0.5001,0.5001 0 0 0 2054.8949,286.4284 L2057.3873,286.4284 L2057.3873,289.4303 A0.5001,0.5001 0 0 0 2057.8876,289.9305 L2072.7606,289.977 A0.5001,0.5001 0 0 0 2073.2624,289.4773 L2073.2624,278.0693 A0.5001,0.5001 0 0 0 2072.7606,277.5691 M2072.2618,278.571 L2072.2618,288.975 L2058.3868,288.9321 L2058.3868,286.4284 L2060.8812,286.4284 A0.5001,0.5001 0 0 0 2061.381,285.9282 L2061.381,284.0399 A0.5001,0.5001 0 0 0 2060.8849,283.5397 L2058.3987,283.52 L2058.4225,282.4694 L2060.9278,282.4694 A0.5001,0.5001 0 0 0 2061.428,281.9692 L2061.428,280.0804 A0.5001,0.5001 0 0 0 2060.9319,279.5807 L2058.4339,279.561 L2058.4339,278.6138 M2055.4418,280.5378 L2060.4281,280.5766 L2060.4281,281.4695 L2055.4418,281.4695 M2055.3948,284.4967 L2060.3811,284.536 L2060.3811,285.4284 L2055.3948,285.4284" fill="#000000"/><text fill="#000000" font-family="Verdana" font-size="12" lengthAdjust="spacing" textLength="35.8418" x="1957.3008" y="303.0687">Fecha</text><text fill="#000000" font-family="Verdana" font-size="12" lengthAdjust="spacing" textLength="3.8145" x="1993.1426" y="303.0687">&#160;</text><text fill="#000000" font-family="Verdana" font-size="12" lengthAdjust="spacing" textLength="15" x="1996.957" y="303.0687">de</text><text fill="#000000" font-family="Verdana" font-size="12" lengthAdjust="spacing" textLength="3.8145" x="2011.957" y="303.0687">&#160;</text><text fill="#000000" font-family="Verdana" font-size="12" lengthAdjust="spacing" textLength="52.9277" x="2015.7715" y="303.0687">Creaci&#243;n</text></g><!--entity goalUpdatedDate--><g class="entity" data-qualified-name="goalUpdatedDate" data-source-line="167" id="ent0031"><rect fill="#C2F0FF" height="52.9688" rx="0.5" ry="0.5" style="stroke:#181818;stroke-width:0.5;" width="158.1406" x="2092.93" y="262.93"/><path d="M2240.8306,277.569 L2226.0046,277.616 A0.5001,0.5001 0 0 0 2225.5049,278.1157 L2225.5049,279.5533 L2223.0167,279.5337 A0.5001,0.5001 0 0 0 2222.5124,280.0339 L2222.5124,281.9692 A0.5001,0.5001 0 0 0 2223.0126,282.4695 L2225.4931,282.4695 L2225.4693,283.5123 L2222.9697,283.4926 A0.5001,0.5001 0 0 0 2222.4658,283.9928 L2222.4658,285.9281 A0.5001,0.5001 0 0 0 2222.9655,286.4284 L2225.4579,286.4284 L2225.4579,289.4303 A0.5001,0.5001 0 0 0 2225.9582,289.9305 L2240.8312,289.977 A0.5001,0.5001 0 0 0 2241.333,289.4773 L2241.333,278.0693 A0.5001,0.5001 0 0 0 2240.8312,277.5691 M2240.3325,278.571 L2240.3325,288.975 L2226.4575,288.9321 L2226.4575,286.4284 L2228.9519,286.4284 A0.5001,0.5001 0 0 0 2229.4516,285.9282 L2229.4516,284.0399 A0.5001,0.5001 0 0 0 2228.9555,283.5397 L2226.4693,283.52 L2226.4931,282.4694 L2228.9984,282.4694 A0.5001,0.5001 0 0 0 2229.4986,281.9692 L2229.4986,280.0804 A0.5001,0.5001 0 0 0 2229.0025,279.5807 L2226.5045,279.561 L2226.5045,278.6138 M2223.5125,280.5378 L2228.4988,280.5766 L2228.4988,281.4695 L2223.5125,281.4695 M2223.4655,284.4967 L2228.4518,284.536 L2228.4518,285.4284 L2223.4655,285.4284" fill="#000000"/><text fill="#000000" font-family="Verdana" font-size="12" lengthAdjust="spacing" textLength="35.8418" x="2102.93" y="303.0687">Fecha</text><text fill="#000000" font-family="Verdana" font-size="12" lengthAdjust="spacing" textLength="3.8145" x="2138.7718" y="303.0687">&#160;</text><text fill="#000000" font-family="Verdana" font-size="12" lengthAdjust="spacing" textLength="15" x="2142.5863" y="303.0687">de</text><text fill="#000000" font-family="Verdana" font-size="12" lengthAdjust="spacing" textLength="3.8145" x="2157.5863" y="303.0687">&#160;</text><text fill="#000000" font-family="Verdana" font-size="12" lengthAdjust="spacing" textLength="79.6699" x="2161.4007" y="303.0687">Actualizaci&#243;n</text></g><!--entity milestones--><g class="entity" data-qualified-name="milestones" data-source-line="167" id="ent0032"><rect fill="#C2F0FF" height="52.9688" rx="0.5" ry="0.5" style="stroke:#181818;stroke-width:0.5;" width="140" x="2286" y="262.93"/><path d="M2415.76,277.569 L2400.934,277.616 A0.5001,0.5001 0 0 0 2400.4343,278.1157 L2400.4343,279.5533 L2397.9461,279.5337 A0.5001,0.5001 0 0 0 2397.4417,280.0339 L2397.4417,281.9692 A0.5001,0.5001 0 0 0 2397.942,282.4695 L2400.4225,282.4695 L2400.3987,283.5123 L2397.8991,283.4926 A0.5001,0.5001 0 0 0 2397.3952,283.9928 L2397.3952,285.9281 A0.5001,0.5001 0 0 0 2397.8949,286.4284 L2400.3873,286.4284 L2400.3873,289.4303 A0.5001,0.5001 0 0 0 2400.8876,289.9305 L2415.7606,289.977 A0.5001,0.5001 0 0 0 2416.2624,289.4773 L2416.2624,278.0693 A0.5001,0.5001 0 0 0 2415.7606,277.5691 M2415.2618,278.571 L2415.2618,288.975 L2401.3868,288.9321 L2401.3868,286.4284 L2403.8812,286.4284 A0.5001,0.5001 0 0 0 2404.381,285.9282 L2404.381,284.0399 A0.5001,0.5001 0 0 0 2403.8849,283.5397 L2401.3987,283.52 L2401.4225,282.4694 L2403.9278,282.4694 A0.5001,0.5001 0 0 0 2404.428,281.9692 L2404.428,280.0804 A0.5001,0.5001 0 0 0 2403.9319,279.5807 L2401.4339,279.561 L2401.4339,278.6138 M2398.4418,280.5378 L2403.4281,280.5766 L2403.4281,281.4695 L2398.4418,281.4695 M2398.3948,284.4967 L2403.3811,284.536 L2403.3811,285.4284 L2398.3948,285.4284" fill="#000000"/><text fill="#000000" font-family="Verdana" font-size="12" lengthAdjust="spacing" textLength="30.6563" x="2340.6719" y="303.0687">Hitos</text></g><!--entity milestoneId--><g class="entity" data-qualified-name="milestoneId" data-source-line="167" id="ent0033"><rect fill="#C2F0FF" height="52.9688" rx="0.5" ry="0.5" style="stroke:#181818;stroke-width:0.5;" width="140" x="1986" y="390.9"/><path d="M2115.76,405.539 L2100.934,405.586 A0.5001,0.5001 0 0 0 2100.4343,406.0857 L2100.4343,407.5233 L2097.9461,407.5037 A0.5001,0.5001 0 0 0 2097.4417,408.0039 L2097.4417,409.9392 A0.5001,0.5001 0 0 0 2097.942,410.4394 L2100.4225,410.4394 L2100.3987,411.4822 L2097.8991,411.4626 A0.5001,0.5001 0 0 0 2097.3952,411.9628 L2097.3952,413.8981 A0.5001,0.5001 0 0 0 2097.8949,414.3984 L2100.3873,414.3984 L2100.3873,417.4003 A0.5001,0.5001 0 0 0 2100.8876,417.9005 L2115.7606,417.947 A0.5001,0.5001 0 0 0 2116.2624,417.4473 L2116.2624,406.0393 A0.5001,0.5001 0 0 0 2115.7606,405.5391 M2115.2618,406.541 L2115.2618,416.945 L2101.3868,416.9021 L2101.3868,414.3984 L2103.8812,414.3984 A0.5001,0.5001 0 0 0 2104.381,413.8982 L2104.381,412.0099 A0.5001,0.5001 0 0 0 2103.8849,411.5096 L2101.3987,411.49 L2101.4225,410.4394 L2103.9278,410.4394 A0.5001,0.5001 0 0 0 2104.428,409.9392 L2104.428,408.0504 A0.5001,0.5001 0 0 0 2103.9319,407.5507 L2101.4339,407.531 L2101.4339,406.5838 M2098.4418,408.5078 L2103.4281,408.5466 L2103.4281,409.4395 L2098.4418,409.4395 M2098.3948,412.4667 L2103.3811,412.506 L2103.3811,413.3984 L2098.3948,413.3984" fill="#000000"/><text fill="#000000" font-family="Verdana" font-size="12" lengthAdjust="spacing" textLength="75.5859" x="2018.207" y="431.0387">Identificador</text></g><!--entity milestoneTitle--><g class="entity" data-qualified-name="milestoneTitle" data-source-line="167" id="ent0034"><rect fill="#C2F0FF" height="52.9688" rx="0.5" ry="0.5" style="stroke:#181818;stroke-width:0.5;" width="140" x="2136" y="390.9"/><path d="M2265.76,405.539 L2250.934,405.586 A0.5001,0.5001 0 0 0 2250.4343,406.0857 L2250.4343,407.5233 L2247.9461,407.5037 A0.5001,0.5001 0 0 0 2247.4417,408.0039 L2247.4417,409.9392 A0.5001,0.5001 0 0 0 2247.942,410.4394 L2250.4225,410.4394 L2250.3987,411.4822 L2247.8991,411.4626 A0.5001,0.5001 0 0 0 2247.3952,411.9628 L2247.3952,413.8981 A0.5001,0.5001 0 0 0 2247.8949,414.3984 L2250.3873,414.3984 L2250.3873,417.4003 A0.5001,0.5001 0 0 0 2250.8876,417.9005 L2265.7606,417.947 A0.5001,0.5001 0 0 0 2266.2624,417.4473 L2266.2624,406.0393 A0.5001,0.5001 0 0 0 2265.7606,405.5391 M2265.2618,406.541 L2265.2618,416.945 L2251.3868,416.9021 L2251.3868,414.3984 L2253.8812,414.3984 A0.5001,0.5001 0 0 0 2254.381,413.8982 L2254.381,412.0099 A0.5001,0.5001 0 0 0 2253.8849,411.5096 L2251.3987,411.49 L2251.4225,410.4394 L2253.9278,410.4394 A0.5001,0.5001 0 0 0 2254.428,409.9392 L2254.428,408.0504 A0.5001,0.5001 0 0 0 2253.9319,407.5507 L2251.4339,407.531 L2251.4339,406.5838 M2248.4418,408.5078 L2253.4281,408.5466 L2253.4281,409.4395 L2248.4418,409.4395 M2248.3948,412.4667 L2253.3811,412.506 L2253.3811,413.3984 L2248.3948,413.3984" fill="#000000"/><text fill="#000000" font-family="Verdana" font-size="12" lengthAdjust="spacing" textLength="47.9414" x="2182.0293" y="431.0387">Nombre</text></g><!--entity milestoneDesc--><g class="entity" data-qualified-name="milestoneDesc" data-source-line="167" id="ent0035"><rect fill="#C2F0FF" height="52.9688" rx="0.5" ry="0.5" style="stroke:#181818;stroke-width:0.5;" width="140" x="2286" y="390.9"/><path d="M2415.76,405.539 L2400.934,405.586 A0.5001,0.5001 0 0 0 2400.4343,406.0857 L2400.4343,407.5233 L2397.9461,407.5037 A0.5001,0.5001 0 0 0 2397.4417,408.0039 L2397.4417,409.9392 A0.5001,0.5001 0 0 0 2397.942,410.4394 L2400.4225,410.4394 L2400.3987,411.4822 L2397.8991,411.4626 A0.5001,0.5001 0 0 0 2397.3952,411.9628 L2397.3952,413.8981 A0.5001,0.5001 0 0 0 2397.8949,414.3984 L2400.3873,414.3984 L2400.3873,417.4003 A0.5001,0.5001 0 0 0 2400.8876,417.9005 L2415.7606,417.947 A0.5001,0.5001 0 0 0 2416.2624,417.4473 L2416.2624,406.0393 A0.5001,0.5001 0 0 0 2415.7606,405.5391 M2415.2618,406.541 L2415.2618,416.945 L2401.3868,416.9021 L2401.3868,414.3984 L2403.8812,414.3984 A0.5001,0.5001 0 0 0 2404.381,413.8982 L2404.381,412.0099 A0.5001,0.5001 0 0 0 2403.8849,411.5096 L2401.3987,411.49 L2401.4225,410.4394 L2403.9278,410.4394 A0.5001,0.5001 0 0 0 2404.428,409.9392 L2404.428,408.0504 A0.5001,0.5001 0 0 0 2403.9319,407.5507 L2401.4339,407.531 L2401.4339,406.5838 M2398.4418,408.5078 L2403.4281,408.5466 L2403.4281,409.4395 L2398.4418,409.4395 M2398.3948,412.4667 L2403.3811,412.506 L2403.3811,413.3984 L2398.3948,413.3984" fill="#000000"/><text fill="#000000" font-family="Verdana" font-size="12" lengthAdjust="spacing" textLength="70.2363" x="2320.8818" y="431.0387">Descripci&#243;n</text></g><!--entity milestoneTarget--><g class="entity" data-qualified-name="milestoneTarget" data-source-line="167" id="ent0036"><rect fill="#C2F0FF" height="52.9688" rx="0.5" ry="0.5" style="stroke:#181818;stroke-width:0.5;" width="140" x="2436" y="390.9"/><path d="M2565.76,405.539 L2550.934,405.586 A0.5001,0.5001 0 0 0 2550.4343,406.0857 L2550.4343,407.5233 L2547.9461,407.5037 A0.5001,0.5001 0 0 0 2547.4417,408.0039 L2547.4417,409.9392 A0.5001,0.5001 0 0 0 2547.942,410.4394 L2550.4225,410.4394 L2550.3987,411.4822 L2547.8991,411.4626 A0.5001,0.5001 0 0 0 2547.3952,411.9628 L2547.3952,413.8981 A0.5001,0.5001 0 0 0 2547.8949,414.3984 L2550.3873,414.3984 L2550.3873,417.4003 A0.5001,0.5001 0 0 0 2550.8876,417.9005 L2565.7606,417.947 A0.5001,0.5001 0 0 0 2566.2624,417.4473 L2566.2624,406.0393 A0.5001,0.5001 0 0 0 2565.7606,405.5391 M2565.2618,406.541 L2565.2618,416.945 L2551.3868,416.9021 L2551.3868,414.3984 L2553.8812,414.3984 A0.5001,0.5001 0 0 0 2554.381,413.8982 L2554.381,412.0099 A0.5001,0.5001 0 0 0 2553.8849,411.5096 L2551.3987,411.49 L2551.4225,410.4394 L2553.9278,410.4394 A0.5001,0.5001 0 0 0 2554.428,409.9392 L2554.428,408.0504 A0.5001,0.5001 0 0 0 2553.9319,407.5507 L2551.4339,407.531 L2551.4339,406.5838 M2548.4418,408.5078 L2553.4281,408.5466 L2553.4281,409.4395 L2548.4418,409.4395 M2548.3948,412.4667 L2553.3811,412.506 L2553.3811,413.3984 L2548.3948,413.3984" fill="#000000"/><text fill="#000000" font-family="Verdana" font-size="12" lengthAdjust="spacing" textLength="31.1719" x="2473.6094" y="431.0387">Valor</text><text fill="#000000" font-family="Verdana" font-size="12" lengthAdjust="spacing" textLength="3.8145" x="2504.7813" y="431.0387">&#160;</text><text fill="#000000" font-family="Verdana" font-size="12" lengthAdjust="spacing" textLength="29.7949" x="2508.5957" y="431.0387">Meta</text></g><!--entity milestoneProgress--><g class="entity" data-qualified-name="milestoneProgress" data-source-line="167" id="ent0037"><rect fill="#C2F0FF" height="52.9688" rx="0.5" ry="0.5" style="stroke:#181818;stroke-width:0.5;" width="140" x="2586" y="390.9"/><path d="M2715.76,405.539 L2700.934,405.586 A0.5001,0.5001 0 0 0 2700.4343,406.0857 L2700.4343,407.5233 L2697.9461,407.5037 A0.5001,0.5001 0 0 0 2697.4417,408.0039 L2697.4417,409.9392 A0.5001,0.5001 0 0 0 2697.942,410.4394 L2700.4225,410.4394 L2700.3987,411.4822 L2697.8991,411.4626 A0.5001,0.5001 0 0 0 2697.3952,411.9628 L2697.3952,413.8981 A0.5001,0.5001 0 0 0 2697.8949,414.3984 L2700.3873,414.3984 L2700.3873,417.4003 A0.5001,0.5001 0 0 0 2700.8876,417.9005 L2715.7606,417.947 A0.5001,0.5001 0 0 0 2716.2624,417.4473 L2716.2624,406.0393 A0.5001,0.5001 0 0 0 2715.7606,405.5391 M2715.2618,406.541 L2715.2618,416.945 L2701.3868,416.9021 L2701.3868,414.3984 L2703.8812,414.3984 A0.5001,0.5001 0 0 0 2704.381,413.8982 L2704.381,412.0099 A0.5001,0.5001 0 0 0 2703.8849,411.5096 L2701.3987,411.49 L2701.4225,410.4394 L2703.9278,410.4394 A0.5001,0.5001 0 0 0 2704.428,409.9392 L2704.428,408.0504 A0.5001,0.5001 0 0 0 2703.9319,407.5507 L2701.4339,407.531 L2701.4339,406.5838 M2698.4418,408.5078 L2703.4281,408.5466 L2703.4281,409.4395 L2698.4418,409.4395 M2698.3948,412.4667 L2703.3811,412.506 L2703.3811,413.3984 L2698.3948,413.3984" fill="#000000"/><text fill="#000000" font-family="Verdana" font-size="12" lengthAdjust="spacing" textLength="53.0391" x="2608.6709" y="431.0387">Progreso</text><text fill="#000000" font-family="Verdana" font-size="12" lengthAdjust="spacing" textLength="3.8145" x="2661.71" y="431.0387">&#160;</text><text fill="#000000" font-family="Verdana" font-size="12" lengthAdjust="spacing" textLength="37.8047" x="2665.5244" y="431.0387">Actual</text></g><!--entity milestoneOrder--><g class="entity" data-qualified-name="milestoneOrder" data-source-line="167" id="ent0038"><rect fill="#C2F0FF" height="52.9688" rx="0.5" ry="0.5" style="stroke:#181818;stroke-width:0.5;" width="141.0898" x="2736.46" y="390.9"/><path d="M2867.3098,405.539 L2852.4838,405.586 A0.5001,0.5001 0 0 0 2851.9841,406.0857 L2851.9841,407.5233 L2849.4959,407.5037 A0.5001,0.5001 0 0 0 2848.9916,408.0039 L2848.9916,409.9392 A0.5001,0.5001 0 0 0 2849.4918,410.4394 L2851.9723,410.4394 L2851.9485,411.4822 L2849.4489,411.4626 A0.5001,0.5001 0 0 0 2848.9451,411.9628 L2848.9451,413.8981 A0.5001,0.5001 0 0 0 2849.4448,414.3984 L2851.9372,414.3984 L2851.9372,417.4003 A0.5001,0.5001 0 0 0 2852.4374,417.9005 L2867.3104,417.947 A0.5001,0.5001 0 0 0 2867.8122,417.4473 L2867.8122,406.0393 A0.5001,0.5001 0 0 0 2867.3104,405.5391 M2866.8117,406.541 L2866.8117,416.945 L2852.9367,416.9021 L2852.9367,414.3984 L2855.4311,414.3984 A0.5001,0.5001 0 0 0 2855.9308,413.8982 L2855.9308,412.0099 A0.5001,0.5001 0 0 0 2855.4347,411.5096 L2852.9485,411.49 L2852.9723,410.4394 L2855.4776,410.4394 A0.5001,0.5001 0 0 0 2855.9778,409.9392 L2855.9778,408.0504 A0.5001,0.5001 0 0 0 2855.4817,407.5507 L2852.9837,407.531 L2852.9837,406.5838 M2849.9917,408.5078 L2854.978,408.5466 L2854.978,409.4395 L2849.9917,409.4395 M2849.9447,412.4667 L2854.931,412.506 L2854.931,413.3984 L2849.9447,413.3984" fill="#000000"/><text fill="#000000" font-family="Verdana" font-size="12" lengthAdjust="spacing" textLength="36.9844" x="2746.46" y="431.0387">Orden</text><text fill="#000000" font-family="Verdana" font-size="12" lengthAdjust="spacing" textLength="3.8145" x="2783.4444" y="431.0387">&#160;</text><text fill="#000000" font-family="Verdana" font-size="12" lengthAdjust="spacing" textLength="15" x="2787.2588" y="431.0387">de</text><text fill="#000000" font-family="Verdana" font-size="12" lengthAdjust="spacing" textLength="3.8145" x="2802.2588" y="431.0387">&#160;</text><text fill="#000000" font-family="Verdana" font-size="12" lengthAdjust="spacing" textLength="61.4766" x="2806.0733" y="431.0387">Secuencia</text></g><!--entity milestoneCompleted--><g class="entity" data-qualified-name="milestoneCompleted" data-source-line="167" id="ent0039"><rect fill="#C2F0FF" height="52.9688" rx="0.5" ry="0.5" style="stroke:#181818;stroke-width:0.5;" width="140" x="2888" y="390.9"/><path d="M3017.76,405.539 L3002.934,405.586 A0.5001,0.5001 0 0 0 3002.4343,406.0857 L3002.4343,407.5233 L2999.9461,407.5037 A0.5001,0.5001 0 0 0 2999.4417,408.0039 L2999.4417,409.9392 A0.5001,0.5001 0 0 0 2999.942,410.4394 L3002.4225,410.4394 L3002.3987,411.4822 L2999.8991,411.4626 A0.5001,0.5001 0 0 0 2999.3952,411.9628 L2999.3952,413.8981 A0.5001,0.5001 0 0 0 2999.8949,414.3984 L3002.3873,414.3984 L3002.3873,417.4003 A0.5001,0.5001 0 0 0 3002.8876,417.9005 L3017.7606,417.947 A0.5001,0.5001 0 0 0 3018.2624,417.4473 L3018.2624,406.0393 A0.5001,0.5001 0 0 0 3017.7606,405.5391 M3017.2618,406.541 L3017.2618,416.945 L3003.3868,416.9021 L3003.3868,414.3984 L3005.8812,414.3984 A0.5001,0.5001 0 0 0 3006.381,413.8982 L3006.381,412.0099 A0.5001,0.5001 0 0 0 3005.8849,411.5096 L3003.3987,411.49 L3003.4225,410.4394 L3005.9278,410.4394 A0.5001,0.5001 0 0 0 3006.428,409.9392 L3006.428,408.0504 A0.5001,0.5001 0 0 0 3005.9319,407.5507 L3003.4339,407.531 L3003.4339,406.5838 M3000.4418,408.5078 L3005.4281,408.5466 L3005.4281,409.4395 L3000.4418,409.4395 M3000.3948,412.4667 L3005.3811,412.506 L3005.3811,413.3984 L3000.3948,413.3984" fill="#000000"/><text fill="#000000" font-family="Verdana" font-size="12" lengthAdjust="spacing" textLength="72.7617" x="2921.6191" y="431.0387">Completado</text></g><!--entity storageProvider--><g class="entity" data-qualified-name="storageProvider" data-source-line="167" id="ent0040"><rect fill="#C2F0FF" height="52.9688" rx="0.5" ry="0.5" style="stroke:#181818;stroke-width:0.5;" width="205.4844" x="3036.26" y="262.93"/><path d="M3231.5044,277.569 L3216.6784,277.616 A0.5001,0.5001 0 0 0 3216.1787,278.1157 L3216.1787,279.5533 L3213.6905,279.5337 A0.5001,0.5001 0 0 0 3213.1861,280.0339 L3213.1861,281.9692 A0.5001,0.5001 0 0 0 3213.6863,282.4695 L3216.1668,282.4695 L3216.143,283.5123 L3213.6434,283.4926 A0.5001,0.5001 0 0 0 3213.1396,283.9928 L3213.1396,285.9281 A0.5001,0.5001 0 0 0 3213.6393,286.4284 L3216.1317,286.4284 L3216.1317,289.4303 A0.5001,0.5001 0 0 0 3216.6319,289.9305 L3231.5049,289.977 A0.5001,0.5001 0 0 0 3232.0067,289.4773 L3232.0067,278.0693 A0.5001,0.5001 0 0 0 3231.505,277.5691 M3231.0062,278.571 L3231.0062,288.975 L3217.1312,288.9321 L3217.1312,286.4284 L3219.6256,286.4284 A0.5001,0.5001 0 0 0 3220.1253,285.9282 L3220.1253,284.0399 A0.5001,0.5001 0 0 0 3219.6292,283.5397 L3217.143,283.52 L3217.1668,282.4694 L3219.6721,282.4694 A0.5001,0.5001 0 0 0 3220.1724,281.9692 L3220.1724,280.0804 A0.5001,0.5001 0 0 0 3219.6763,279.5807 L3217.1783,279.561 L3217.1783,278.6138 M3214.1862,280.5378 L3219.1725,280.5766 L3219.1725,281.4695 L3214.1862,281.4695 M3214.1392,284.4967 L3219.1255,284.536 L3219.1255,285.4284 L3214.1392,285.4284" fill="#000000"/><text fill="#000000" font-family="Verdana" font-size="12" lengthAdjust="spacing" textLength="61.2715" x="3046.26" y="303.0687">Proveedor</text><text fill="#000000" font-family="Verdana" font-size="12" lengthAdjust="spacing" textLength="3.8145" x="3107.5315" y="303.0687">&#160;</text><text fill="#000000" font-family="Verdana" font-size="12" lengthAdjust="spacing" textLength="15" x="3111.3459" y="303.0687">de</text><text fill="#000000" font-family="Verdana" font-size="12" lengthAdjust="spacing" textLength="3.8145" x="3126.3459" y="303.0687">&#160;</text><text fill="#000000" font-family="Verdana" font-size="12" lengthAdjust="spacing" textLength="101.584" x="3130.1604" y="303.0687">Almacenamiento</text></g><!--entity swiftData--><g class="entity" data-qualified-name="swiftData" data-source-line="167" id="ent0041"><rect fill="#C2F0FF" height="52.9688" rx="0.5" ry="0.5" style="stroke:#181818;stroke-width:0.5;" width="183.7461" x="2926.13" y="134.96"/><path d="M3099.6361,149.599 L3084.8101,149.646 A0.5001,0.5001 0 0 0 3084.3104,150.1457 L3084.3104,151.5833 L3081.8222,151.5637 A0.5001,0.5001 0 0 0 3081.3178,152.0639 L3081.3178,153.9992 A0.5001,0.5001 0 0 0 3081.818,154.4994 L3084.2985,154.4994 L3084.2747,155.5422 L3081.7751,155.5226 A0.5001,0.5001 0 0 0 3081.2713,156.0228 L3081.2713,157.9581 A0.5001,0.5001 0 0 0 3081.771,158.4584 L3084.2634,158.4584 L3084.2634,161.4603 A0.5001,0.5001 0 0 0 3084.7636,161.9605 L3099.6366,162.007 A0.5001,0.5001 0 0 0 3100.1384,161.5073 L3100.1384,150.0993 A0.5001,0.5001 0 0 0 3099.6367,149.5991 M3099.1379,150.601 L3099.1379,161.005 L3085.2629,160.9621 L3085.2629,158.4584 L3087.7573,158.4584 A0.5001,0.5001 0 0 0 3088.257,157.9582 L3088.257,156.0699 A0.5001,0.5001 0 0 0 3087.7609,155.5696 L3085.2747,155.55 L3085.2985,154.4994 L3087.8038,154.4994 A0.5001,0.5001 0 0 0 3088.3041,153.9992 L3088.3041,152.1104 A0.5001,0.5001 0 0 0 3087.808,151.6107 L3085.31,151.591 L3085.31,150.6438 M3082.3179,152.5678 L3087.3042,152.6066 L3087.3042,153.4995 L3082.3179,153.4995 M3082.2709,156.5267 L3087.2572,156.566 L3087.2572,157.4584 L3082.2709,157.4584" fill="#000000"/><text fill="#000000" font-family="Verdana" font-size="12" lengthAdjust="spacing" textLength="101.584" x="2936.13" y="175.0987">Almacenamiento</text><text fill="#000000" font-family="Verdana" font-size="12" lengthAdjust="spacing" textLength="3.8145" x="3037.714" y="175.0987">&#160;</text><text fill="#000000" font-family="Verdana" font-size="12" lengthAdjust="spacing" textLength="58.3477" x="3041.5284" y="175.0987">SwiftData</text></g><!--reverse link core to habit--><g class="link" data-entity-1="ent0002" data-entity-2="ent0003" data-link-type="composition" data-source-line="349" id="lnk42"><path d="M1335.4098,65.156 C1284.8098,86.836 1224.06,112.86 1173.48,134.53" fill="none" id="core-backto-habit" style="stroke:#000000;stroke-width:1;"/><polygon fill="#000000" points="1346.44,60.43,1339.3496,59.1163,1335.4098,65.156,1342.5002,66.4697,1346.44,60.43" style="stroke:#000000;stroke-width:1;"/><text fill="#000000" font-family="Verdana" font-size="12" lengthAdjust="spacing" textLength="3.8145" x="1270" y="102.0987">&#160;</text></g><!--reverse link core to dailyNote--><g class="link" data-entity-1="ent0002" data-entity-2="ent0004" data-link-type="composition" data-source-line="349" id="lnk43"><path d="M1324.8417,53.3671 C1195.4017,83.4571 923.09,148.61 687,217.93 C639.95,231.75 587.68,249.29 547.05,263.41" fill="none" id="core-backto-dailyNote" style="stroke:#000000;stroke-width:1;"/><polygon fill="#000000" points="1336.53,50.65,1329.7801,48.1124,1324.8417,53.3671,1331.5915,55.9047,1336.53,50.65" style="stroke:#000000;stroke-width:1;"/><text fill="#000000" font-family="Verdana" font-size="12" lengthAdjust="spacing" textLength="3.8145" x="984" y="166.0887">&#160;</text></g><!--reverse link core to goals--><g class="link" data-entity-1="ent0002" data-entity-2="ent0005" data-link-type="aggregation" data-source-line="349" id="lnk44"><path d="M1489.2144,46.4615 C1651.4744,70.1215 2038.58,126.56 2200.75,150.21" fill="none" id="core-backto-goals" style="stroke:#000000;stroke-width:1;"/><polygon fill="none" points="1477.34,44.73,1482.7001,49.5539,1489.2144,46.4615,1483.8544,41.6376,1477.34,44.73" style="stroke:#000000;stroke-width:1;"/><text fill="#000000" font-family="Verdana" font-size="12" lengthAdjust="spacing" textLength="3.8145" x="1866" y="102.0987">&#160;</text></g><!--reverse link core to persistencia--><g class="link" data-entity-1="ent0002" data-entity-2="ent0006" data-link-type="composition" data-source-line="349" id="lnk45"><path d="M1489.4064,36.3933 C1769.5464,43.2433 2793.42,72.06 3115,134.96 C3116.62,135.28 3118.25,135.62 3119.89,135.99" fill="none" id="core-backto-persistencia" style="stroke:#000000;stroke-width:1;"/><polygon fill="#000000" points="1477.41,36.1,1483.3104,40.2455,1489.4064,36.3933,1483.506,32.2479,1477.41,36.1" style="stroke:#000000;stroke-width:1;"/><text fill="#000000" font-family="Verdana" font-size="12" lengthAdjust="spacing" textLength="3.8145" x="2873" y="102.0987">&#160;</text></g><!--reverse link habit to habitId--><g class="link" data-entity-1="ent0003" data-entity-2="ent0007" data-link-type="composition" data-source-line="349" id="lnk46"><path d="M1073.0912,195.9579 C1047.2912,217.6279 1019.79,240.72 993.93,262.44" fill="none" id="habit-backto-habitId" style="stroke:#000000;stroke-width:1;"/><polygon fill="#000000" points="1082.28,188.24,1075.113,189.036,1073.0912,195.9579,1080.2582,195.1619,1082.28,188.24" style="stroke:#000000;stroke-width:1;"/><text fill="#000000" font-family="Verdana" font-size="12" lengthAdjust="spacing" textLength="3.8145" x="1044" y="230.0687">&#160;</text></g><!--reverse link habit to habitTitle--><g class="link" data-entity-1="ent0003" data-entity-2="ent0008" data-link-type="composition" data-source-line="349" id="lnk47"><path d="M1113,200.24 C1113,221.98 1113,240.93 1113,262.66" fill="none" id="habit-backto-habitTitle" style="stroke:#000000;stroke-width:1;"/><polygon fill="#000000" points="1113,188.24,1109,194.24,1113,200.24,1117,194.24,1113,188.24" style="stroke:#000000;stroke-width:1;"/><text fill="#000000" font-family="Verdana" font-size="12" lengthAdjust="spacing" textLength="3.8145" x="1114" y="230.0687">&#160;</text></g><!--reverse link habit to habitDesc--><g class="link" data-entity-1="ent0003" data-entity-2="ent0009" data-link-type="composition" data-source-line="349" id="lnk48"><path d="M1185.8641,193.046 C1237.4941,214.726 1299.68,240.83 1351.28,262.5" fill="none" id="habit-backto-habitDesc" style="stroke:#000000;stroke-width:1;"/><polygon fill="#000000" points="1174.8,188.4,1178.7834,194.411,1185.8641,193.046,1181.8807,187.0349,1174.8,188.4" style="stroke:#000000;stroke-width:1;"/><text fill="#000000" font-family="Verdana" font-size="12" lengthAdjust="spacing" textLength="3.8145" x="1273" y="230.0687">&#160;</text></g><!--reverse link habit to habitPriority--><g class="link" data-entity-1="ent0003" data-entity-2="ent0010" data-link-type="composition" data-source-line="349" id="lnk49"><path d="M1194.8274,182.7178 C1270.4674,201.7478 1382.55,230.93 1488,262.93 C1489.58,263.41 1491.17,263.9 1492.78,264.4" fill="none" id="habit-backto-habitPriority" style="stroke:#000000;stroke-width:1;"/><polygon fill="#000000" points="1183.19,179.79,1188.0327,185.133,1194.8274,182.7178,1189.9846,177.3748,1183.19,179.79" style="stroke:#000000;stroke-width:1;"/><text fill="#000000" font-family="Verdana" font-size="12" lengthAdjust="spacing" textLength="3.8145" x="1377" y="230.0687">&#160;</text></g><!--reverse link habit to habitCreatedDate--><g class="link" data-entity-1="ent0003" data-entity-2="ent0011" data-link-type="composition" data-source-line="349" id="lnk50"><path d="M1152.9088,195.9579 C1178.7088,217.6279 1206.21,240.72 1232.07,262.44" fill="none" id="habit-backto-habitCreatedDate" style="stroke:#000000;stroke-width:1;"/><polygon fill="#000000" points="1143.72,188.24,1145.7418,195.1619,1152.9088,195.9579,1150.887,189.036,1143.72,188.24" style="stroke:#000000;stroke-width:1;"/><text fill="#000000" font-family="Verdana" font-size="12" lengthAdjust="spacing" textLength="3.8145" x="1194" y="230.0687">&#160;</text></g><!--reverse link habit to habitIsCompleted--><g class="link" data-entity-1="ent0003" data-entity-2="ent0012" data-link-type="composition" data-source-line="349" id="lnk51"><path d="M1031.1631,182.2488 C952.3531,201.5088 832.42,231.52 720,262.93 C718.24,263.42 716.46,263.93 714.66,264.44" fill="none" id="habit-backto-habitIsCompleted" style="stroke:#000000;stroke-width:1;"/><polygon fill="#000000" points="1042.82,179.4,1036.0419,176.9387,1031.1631,182.2488,1037.9411,184.71,1042.82,179.4" style="stroke:#000000;stroke-width:1;"/><text fill="#000000" font-family="Verdana" font-size="12" lengthAdjust="spacing" textLength="3.8145" x="883" y="230.0687">&#160;</text></g><!--reverse link habit to habitCompletionDates--><g class="link" data-entity-1="ent0003" data-entity-2="ent0013" data-link-type="composition" data-source-line="349" id="lnk52"><path d="M1038.2379,192.9301 C985.0579,214.6101 920.72,240.83 867.57,262.5" fill="none" id="habit-backto-habitCompletionDates" style="stroke:#000000;stroke-width:1;"/><polygon fill="#000000" points="1049.35,188.4,1042.2839,186.961,1038.2379,192.9301,1045.304,194.3691,1049.35,188.4" style="stroke:#000000;stroke-width:1;"/><text fill="#000000" font-family="Verdana" font-size="12" lengthAdjust="spacing" textLength="3.8145" x="969" y="230.0687">&#160;</text></g><!--link priorityLow to habitPriority--><g class="link" data-entity-1="ent0014" data-entity-2="ent0010" data-link-type="extension" data-source-line="349" id="lnk53"><path d="M1443.72,188.24 C1469.52,209.91 1492.4267,229.1433 1518.2867,250.8633" fill="none" id="priorityLow-to-habitPriority" style="stroke:#000000;stroke-width:1;"/><polygon fill="none" points="1532.07,262.44,1522.1456,246.2689,1514.4278,255.4577,1532.07,262.44" style="stroke:#000000;stroke-width:1;"/><text fill="#000000" font-family="Verdana" font-size="12" lengthAdjust="spacing" textLength="3.8145" x="1494" y="230.0687">&#160;</text></g><!--link priorityMedium to habitPriority--><g class="link" data-entity-1="ent0015" data-entity-2="ent0010" data-link-type="extension" data-source-line="349" id="lnk54"><path d="M1563,188.24 C1563,209.98 1563,222.93 1563,244.66" fill="none" id="priorityMedium-to-habitPriority" style="stroke:#000000;stroke-width:1;"/><polygon fill="none" points="1563,262.66,1569,244.66,1557,244.66,1563,262.66" style="stroke:#000000;stroke-width:1;"/><text fill="#000000" font-family="Verdana" font-size="12" lengthAdjust="spacing" textLength="3.8145" x="1564" y="230.0687">&#160;</text></g><!--link priorityHigh to habitPriority--><g class="link" data-entity-1="ent0016" data-entity-2="ent0010" data-link-type="extension" data-source-line="349" id="lnk55"><path d="M1682.28,188.24 C1656.48,209.91 1633.5733,229.1433 1607.7133,250.8633" fill="none" id="priorityHigh-to-habitPriority" style="stroke:#000000;stroke-width:1;"/><polygon fill="none" points="1593.93,262.44,1611.5722,255.4577,1603.8544,246.2689,1593.93,262.44" style="stroke:#000000;stroke-width:1;"/><text fill="#000000" font-family="Verdana" font-size="12" lengthAdjust="spacing" textLength="3.8145" x="1644" y="230.0687">&#160;</text></g><!--reverse link dailyNote to noteId--><g class="link" data-entity-1="ent0004" data-entity-2="ent0017" data-link-type="composition" data-source-line="349" id="lnk56"><path d="M499.2869,326.4128 C512.7469,348.1528 525.59,368.9 539.05,390.62" fill="none" id="dailyNote-backto-noteId" style="stroke:#000000;stroke-width:1;"/><polygon fill="#000000" points="492.97,316.21,492.7275,323.417,499.2869,326.4128,499.5294,319.2058,492.97,316.21" style="stroke:#000000;stroke-width:1;"/><text fill="#000000" font-family="Verdana" font-size="12" lengthAdjust="spacing" textLength="3.8145" x="520" y="358.0387">&#160;</text></g><!--reverse link dailyNote to noteContent--><g class="link" data-entity-1="ent0004" data-entity-2="ent0018" data-link-type="composition" data-source-line="349" id="lnk57"><path d="M534.4729,322.1643 C573.7029,343.8443 618.87,368.8 658.1,390.47" fill="none" id="dailyNote-backto-noteContent" style="stroke:#000000;stroke-width:1;"/><polygon fill="#000000" points="523.97,316.36,527.2867,322.7631,534.4729,322.1643,531.1562,315.7612,523.97,316.36" style="stroke:#000000;stroke-width:1;"/><text fill="#000000" font-family="Verdana" font-size="12" lengthAdjust="spacing" textLength="3.8145" x="599" y="358.0387">&#160;</text></g><!--reverse link dailyNote to noteDate--><g class="link" data-entity-1="ent0004" data-entity-2="ent0019" data-link-type="composition" data-source-line="349" id="lnk58"><path d="M558.6226,318.169 C659.7926,351.999 678.83,357.07 780,390.9 C781.57,391.42 783.15,391.95 784.74,392.49" fill="none" id="dailyNote-backto-noteDate" style="stroke:#000000;stroke-width:1;"/><polygon fill="#000000" points="547.26,314.31,551.655,320.027,558.6226,318.169,554.2276,312.452,547.26,314.31" style="stroke:#000000;stroke-width:1;"/><text fill="#000000" font-family="Verdana" font-size="12" lengthAdjust="spacing" textLength="3.8145" x="687" y="358.0387">&#160;</text></g><!--reverse link dailyNote to noteCreatedDate--><g class="link" data-entity-1="ent0004" data-entity-2="ent0020" data-link-type="composition" data-source-line="349" id="lnk59"><path d="M395.2845,314.9961 C329.3345,334.9561 239.5,362.52 152,390.9 C150.43,391.41 148.84,391.93 147.24,392.45" fill="none" id="dailyNote-backto-noteCreatedDate" style="stroke:#000000;stroke-width:1;"/><polygon fill="#000000" points="406.77,311.52,399.8685,309.4296,395.2845,314.9961,402.186,317.0866,406.77,311.52" style="stroke:#000000;stroke-width:1;"/><text fill="#000000" font-family="Verdana" font-size="12" lengthAdjust="spacing" textLength="3.8145" x="296" y="358.0387">&#160;</text></g><!--reverse link dailyNote to noteUpdatedDate--><g class="link" data-entity-1="ent0004" data-entity-2="ent0021" data-link-type="composition" data-source-line="349" id="lnk60"><path d="M416.725,321.9185 C375.245,343.5985 327.04,368.8 285.58,390.47" fill="none" id="dailyNote-backto-noteUpdatedDate" style="stroke:#000000;stroke-width:1;"/><polygon fill="#000000" points="427.36,316.36,420.1897,315.5943,416.725,321.9185,423.8953,322.6842,427.36,316.36" style="stroke:#000000;stroke-width:1;"/><text fill="#000000" font-family="Verdana" font-size="12" lengthAdjust="spacing" textLength="3.8145" x="365" y="358.0387">&#160;</text></g><!--reverse link dailyNote to noteHabitRef--><g class="link" data-entity-1="ent0004" data-entity-2="ent0022" data-link-type="composition" data-source-line="349" id="lnk61"><path d="M454.9711,326.4485 C441.6811,348.1885 429.03,368.9 415.75,390.62" fill="none" id="dailyNote-backto-noteHabitRef" style="stroke:#000000;stroke-width:1;"/><polygon fill="#000000" points="461.23,316.21,454.6877,319.2429,454.9711,326.4485,461.5134,323.4155,461.23,316.21" style="stroke:#000000;stroke-width:1;"/><text fill="#000000" font-family="Verdana" font-size="12" lengthAdjust="spacing" textLength="3.8145" x="442" y="358.0387">&#160;</text></g><!--reverse link goals to goalId--><g class="link" data-entity-1="ent0005" data-entity-2="ent0023" data-link-type="composition" data-source-line="349" id="lnk62"><path d="M2329.986,194.0698 C2370.426,215.7498 2417.23,240.83 2457.66,262.5" fill="none" id="goals-backto-goalId" style="stroke:#000000;stroke-width:1;"/><polygon fill="#000000" points="2319.41,188.4,2322.8081,194.7603,2329.986,194.0698,2326.588,187.7096,2319.41,188.4" style="stroke:#000000;stroke-width:1;"/><text fill="#000000" font-family="Verdana" font-size="12" lengthAdjust="spacing" textLength="3.8145" x="2397" y="230.0687">&#160;</text></g><!--reverse link goals to goalTitle--><g class="link" data-entity-1="ent0005" data-entity-2="ent0024" data-link-type="composition" data-source-line="349" id="lnk63"><path d="M2352.6956,188.5781 C2415.5856,208.7681 2498.85,235.66 2581,262.93 C2582.57,263.45 2584.15,263.98 2585.75,264.51" fill="none" id="goals-backto-goalTitle" style="stroke:#000000;stroke-width:1;"/><polygon fill="#000000" points="2341.27,184.91,2345.7601,190.5526,2352.6956,188.5781,2348.2055,182.9355,2341.27,184.91" style="stroke:#000000;stroke-width:1;"/><text fill="#000000" font-family="Verdana" font-size="12" lengthAdjust="spacing" textLength="3.8145" x="2489" y="230.0687">&#160;</text></g><!--reverse link goals to goalDesc--><g class="link" data-entity-1="ent0005" data-entity-2="ent0025" data-link-type="composition" data-source-line="349" id="lnk64"><path d="M2353.1423,177.4831 C2443.9023,194.5931 2594.56,224.98 2731,262.93 C2732.59,263.37 2734.2,263.83 2735.81,264.3" fill="none" id="goals-backto-goalDesc" style="stroke:#000000;stroke-width:1;"/><polygon fill="#000000" points="2341.35,175.26,2346.5051,180.3023,2353.1423,177.4831,2347.9872,172.4408,2341.35,175.26" style="stroke:#000000;stroke-width:1;"/><text fill="#000000" font-family="Verdana" font-size="12" lengthAdjust="spacing" textLength="3.8145" x="2607" y="230.0687">&#160;</text></g><!--reverse link goals to goalTarget--><g class="link" data-entity-1="ent0005" data-entity-2="ent0026" data-link-type="composition" data-source-line="349" id="lnk65"><path d="M2353.2287,171.5448 C2467.5587,184.9248 2688.46,214.39 2881,262.93 C2882.6,263.34 2884.22,263.76 2885.84,264.19" fill="none" id="goals-backto-goalTarget" style="stroke:#000000;stroke-width:1;"/><polygon fill="#000000" points="2341.31,170.15,2346.8044,174.8203,2353.2287,171.5448,2347.7343,166.8745,2341.31,170.15" style="stroke:#000000;stroke-width:1;"/><text fill="#000000" font-family="Verdana" font-size="12" lengthAdjust="spacing" textLength="3.8145" x="2734" y="230.0687">&#160;</text></g><!--reverse link goals to goalProgress--><g class="link" data-entity-1="ent0005" data-entity-2="ent0027" data-link-type="composition" data-source-line="349" id="lnk66"><path d="M2272.5499,200.1443 C2273.7499,239.0543 2273.07,298.24 2256,315.9 C2208.23,365.3 1743.93,400.27 1564.38,412.04" fill="none" id="goals-backto-goalProgress" style="stroke:#000000;stroke-width:1;"/><polygon fill="#000000" points="2272.18,188.15,2268.3669,194.2705,2272.5499,200.1443,2276.3631,194.0238,2272.18,188.15" style="stroke:#000000;stroke-width:1;"/><text fill="#000000" font-family="Verdana" font-size="12" lengthAdjust="spacing" textLength="3.8145" x="2272" y="294.0587">&#160;</text></g><!--reverse link goals to goalDeadline--><g class="link" data-entity-1="ent0005" data-entity-2="ent0028" data-link-type="composition" data-source-line="349" id="lnk67"><path d="M2188.9598,176.3396 C2094.3798,192.8996 1933.02,223.37 1788,262.93 C1786.41,263.37 1784.8,263.82 1783.18,264.28" fill="none" id="goals-backto-goalDeadline" style="stroke:#000000;stroke-width:1;"/><polygon fill="#000000" points="2200.78,174.27,2194.18,171.3647,2188.9598,176.3396,2195.5598,179.2449,2200.78,174.27" style="stroke:#000000;stroke-width:1;"/><text fill="#000000" font-family="Verdana" font-size="12" lengthAdjust="spacing" textLength="3.8145" x="1974" y="230.0687">&#160;</text></g><!--reverse link goals to goalStatus--><g class="link" data-entity-1="ent0005" data-entity-2="ent0029" data-link-type="composition" data-source-line="349" id="lnk68"><path d="M2189.1059,186.3001 C2121.5559,206.1301 2028.28,233.98 1938,262.93 C1936.43,263.44 1934.84,263.95 1933.24,264.47" fill="none" id="goals-backto-goalStatus" style="stroke:#000000;stroke-width:1;"/><polygon fill="#000000" points="2200.62,182.92,2193.7362,180.772,2189.1059,186.3001,2195.9896,188.4481,2200.62,182.92" style="stroke:#000000;stroke-width:1;"/><text fill="#000000" font-family="Verdana" font-size="12" lengthAdjust="spacing" textLength="3.8145" x="2076" y="230.0687">&#160;</text></g><!--reverse link goals to goalCreatedDate--><g class="link" data-entity-1="ent0005" data-entity-2="ent0030" data-link-type="composition" data-source-line="349" id="lnk69"><path d="M2207.0764,193.6643 C2162.6664,215.3443 2110.46,240.83 2066.08,262.5" fill="none" id="goals-backto-goalCreatedDate" style="stroke:#000000;stroke-width:1;"/><polygon fill="#000000" points="2217.86,188.4,2210.7134,187.4376,2207.0764,193.6643,2214.223,194.6267,2217.86,188.4" style="stroke:#000000;stroke-width:1;"/><text fill="#000000" font-family="Verdana" font-size="12" lengthAdjust="spacing" textLength="3.8145" x="2151" y="230.0687">&#160;</text></g><!--reverse link goals to goalUpdatedDate--><g class="link" data-entity-1="ent0005" data-entity-2="ent0031" data-link-type="composition" data-source-line="349" id="lnk70"><path d="M2243.3138,197.674 C2226.2238,219.414 2209.32,240.93 2192.25,262.66" fill="none" id="goals-backto-goalUpdatedDate" style="stroke:#000000;stroke-width:1;"/><polygon fill="#000000" points="2250.73,188.24,2243.8772,190.485,2243.3138,197.674,2250.1666,195.4291,2250.73,188.24" style="stroke:#000000;stroke-width:1;"/><text fill="#000000" font-family="Verdana" font-size="12" lengthAdjust="spacing" textLength="3.8145" x="2226" y="230.0687">&#160;</text></g><!--reverse link goals to milestones--><g class="link" data-entity-1="ent0005" data-entity-2="ent0032" data-link-type="aggregation" data-source-line="349" id="lnk71"><path d="M2295.1191,198.1893 C2309.7791,219.9293 2323.96,240.93 2338.62,262.66" fill="none" id="goals-backto-milestones" style="stroke:#000000;stroke-width:1;"/><polygon fill="none" points="2288.41,188.24,2288.4481,195.451,2295.1191,198.1893,2295.081,190.9783,2288.41,188.24" style="stroke:#000000;stroke-width:1;"/><text fill="#000000" font-family="Verdana" font-size="12" lengthAdjust="spacing" textLength="3.8145" x="2318" y="230.0687">&#160;</text></g><!--reverse link milestones to milestoneId--><g class="link" data-entity-1="ent0032" data-entity-2="ent0033" data-link-type="composition" data-source-line="349" id="lnk72"><path d="M2320.1373,324.4398 C2300.0773,343.2998 2283.99,357.88 2278,360.9 C2218.49,390.99 2195.36,373.47 2131,390.9 C2129.41,391.33 2127.8,391.78 2126.18,392.24" fill="none" id="milestones-backto-milestoneId" style="stroke:#000000;stroke-width:1;"/><polygon fill="#000000" points="2328.88,316.22,2321.7687,317.4156,2320.1373,324.4398,2327.2485,323.2441,2328.88,316.22" style="stroke:#000000;stroke-width:1;"/><text fill="#000000" font-family="Verdana" font-size="12" lengthAdjust="spacing" textLength="3.8145" x="2297" y="358.0387">&#160;</text></g><!--reverse link milestones to milestoneTitle--><g class="link" data-entity-1="ent0032" data-entity-2="ent0034" data-link-type="composition" data-source-line="349" id="lnk73"><path d="M2330.8208,325.9981 C2320.2108,340.1781 2313.11,347.85 2298,360.9 C2285.3,371.87 2270.15,381.99 2255.86,390.49" fill="none" id="milestones-backto-milestoneTitle" style="stroke:#000000;stroke-width:1;"/><polygon fill="#000000" points="2338.01,316.39,2331.2127,318.7977,2330.8208,325.9981,2337.6181,323.5904,2338.01,316.39" style="stroke:#000000;stroke-width:1;"/><text fill="#000000" font-family="Verdana" font-size="12" lengthAdjust="spacing" textLength="3.8145" x="2314" y="358.0387">&#160;</text></g><!--reverse link milestones to milestoneDesc--><g class="link" data-entity-1="ent0032" data-entity-2="ent0035" data-link-type="composition" data-source-line="349" id="lnk74"><path d="M2356,328.21 C2356,349.95 2356,368.9 2356,390.62" fill="none" id="milestones-backto-milestoneDesc" style="stroke:#000000;stroke-width:1;"/><polygon fill="#000000" points="2356,316.21,2352,322.21,2356,328.21,2360,322.21,2356,316.21" style="stroke:#000000;stroke-width:1;"/><text fill="#000000" font-family="Verdana" font-size="12" lengthAdjust="spacing" textLength="3.8145" x="2357" y="358.0387">&#160;</text></g><!--reverse link milestones to milestoneTarget--><g class="link" data-entity-1="ent0032" data-entity-2="ent0036" data-link-type="composition" data-source-line="349" id="lnk75"><path d="M2395.9088,323.9279 C2421.7088,345.5979 2449.21,368.69 2475.07,390.41" fill="none" id="milestones-backto-milestoneTarget" style="stroke:#000000;stroke-width:1;"/><polygon fill="#000000" points="2386.72,316.21,2388.7418,323.1319,2395.9088,323.9279,2393.887,317.006,2386.72,316.21" style="stroke:#000000;stroke-width:1;"/><text fill="#000000" font-family="Verdana" font-size="12" lengthAdjust="spacing" textLength="3.8145" x="2437" y="358.0387">&#160;</text></g><!--reverse link milestones to milestoneProgress--><g class="link" data-entity-1="ent0032" data-entity-2="ent0037" data-link-type="composition" data-source-line="349" id="lnk76"><path d="M2428.8641,321.006 C2480.4941,342.686 2542.68,368.8 2594.28,390.47" fill="none" id="milestones-backto-milestoneProgress" style="stroke:#000000;stroke-width:1;"/><polygon fill="#000000" points="2417.8,316.36,2421.7834,322.371,2428.8641,321.006,2424.8807,314.9949,2417.8,316.36" style="stroke:#000000;stroke-width:1;"/><text fill="#000000" font-family="Verdana" font-size="12" lengthAdjust="spacing" textLength="3.8145" x="2516" y="358.0387">&#160;</text></g><!--reverse link milestones to milestoneOrder--><g class="link" data-entity-1="ent0032" data-entity-2="ent0038" data-link-type="composition" data-source-line="349" id="lnk77"><path d="M2437.6901,317.9639 C2569.5301,356.7739 2599.08,352.36 2731,390.9 C2732.74,391.41 2734.49,391.93 2736.26,392.46" fill="none" id="milestones-backto-milestoneOrder" style="stroke:#000000;stroke-width:1;"/><polygon fill="#000000" points="2426.21,314.47,2430.7854,320.0437,2437.6901,317.9639,2433.1147,312.3903,2426.21,314.47" style="stroke:#000000;stroke-width:1;"/><text fill="#000000" font-family="Verdana" font-size="12" lengthAdjust="spacing" textLength="3.8145" x="2613" y="358.0387">&#160;</text></g><!--reverse link milestones to milestoneCompleted--><g class="link" data-entity-1="ent0032" data-entity-2="ent0039" data-link-type="composition" data-source-line="349" id="lnk78"><path d="M2437.7584,317.7386 C2519.8884,338.0886 2535.52,332.13 2619,345.9 C2736.44,365.28 2767.62,361.66 2883,390.9 C2884.6,391.31 2886.21,391.73 2887.84,392.17" fill="none" id="milestones-backto-milestoneCompleted" style="stroke:#000000;stroke-width:1;"/><polygon fill="#000000" points="2426.16,314.66,2430.933,320.0654,2437.7584,317.7386,2432.9854,312.3332,2426.16,314.66" style="stroke:#000000;stroke-width:1;"/><text fill="#000000" font-family="Verdana" font-size="12" lengthAdjust="spacing" textLength="3.8145" x="2722" y="358.0387">&#160;</text></g><!--reverse link persistencia to storageProvider--><g class="link" data-entity-1="ent0006" data-entity-2="ent0040" data-link-type="composition" data-source-line="349" id="lnk79"><path d="M3180.5323,199.9252 C3176.8823,213.4452 3174.96,218.54 3169,232.93 C3164.85,242.95 3159.43,253.52 3154.33,262.71" fill="none" id="persistencia-backto-storageProvider" style="stroke:#000000;stroke-width:1;"/><polygon fill="#000000" points="3183.66,188.34,3178.2344,193.0901,3180.5323,199.9252,3185.9579,195.1752,3183.66,188.34" style="stroke:#000000;stroke-width:1;"/><text fill="#000000" font-family="Verdana" font-size="12" lengthAdjust="spacing" textLength="3.8145" x="3175" y="230.0687">&#160;</text></g><!--link swiftData to storageProvider--><g class="link" data-entity-1="ent0041" data-entity-2="ent0040" data-link-type="extension" data-source-line="349" id="lnk80"><path d="M3046.43,188.17 C3056.31,197.36 3067.32,207.93 3077,217.93 C3090.82,232.22 3093.8266,235.2412 3105.4566,248.7912" fill="none" id="swiftData-to-storageProvider" style="stroke:#000000;stroke-width:1;"/><polygon fill="none" points="3117.18,262.45,3110.0096,244.8834,3100.9037,252.699,3117.18,262.45" style="stroke:#000000;stroke-width:1;"/><text fill="#000000" font-family="Verdana" font-size="12" lengthAdjust="spacing" textLength="72.0938" x="3092" y="230.0687">implementa</text></g><!--link swiftData to storageProvider--><g class="link" data-entity-1="ent0041" data-entity-2="ent0040" data-link-type="extension" data-source-line="349" id="lnk81"><path d="M3013.85,188.29 C3012.93,202.61 3014.23,220.05 3023,232.93 C3031.42,245.3 3027.794,245.9685 3040.864,253.5385" fill="none" id="swiftData-to-storageProvider-1" style="stroke:#000000;stroke-width:1;stroke-dasharray:1,3;"/><polygon fill="none" points="3056.44,262.56,3043.8711,248.3465,3037.8568,258.7305,3056.44,262.56" style="stroke:#000000;stroke-width:1;"/><text fill="#000000" font-family="Verdana" font-size="12" lengthAdjust="spacing" textLength="50.5723" x="3024" y="230.0687">requiere</text></g><!--link habit to dailyNote--><g class="link" data-entity-1="ent0003" data-entity-2="ent0004" data-source-line="349" id="lnk82"><path d="M1042.55,170.85 C935.34,184.58 725.37,215.17 552,262.93 C550.41,263.37 556.4795,261.5782 554.8695,262.0482" fill="none" id="habit-to-dailyNote" style="stroke:#000000;stroke-width:1;"/><line style="stroke:#000000;stroke-width:1;" x1="547.19" x2="556.9503" y1="264.29" y2="265.6077"/><line style="stroke:#000000;stroke-width:1;" x1="547.19" x2="554.8695" y1="264.29" y2="262.0482"/><text fill="#000000" font-family="Verdana" font-size="12" lengthAdjust="spacing" textLength="37.6055" x="736" y="230.0687">puede</text><text fill="#000000" font-family="Verdana" font-size="12" lengthAdjust="spacing" textLength="3.8145" x="773.6055" y="230.0687">&#160;</text><text fill="#000000" font-family="Verdana" font-size="12" lengthAdjust="spacing" textLength="31.2012" x="777.4199" y="230.0687">crear</text></g><!--link habitIsCompleted to goalProgress--><g class="link" data-entity-1="ent0012" data-entity-2="ent0027" data-link-type="dependency" data-source-line="349" id="lnk83"><path d="M715.04,314.8 C716.71,315.18 718.36,315.55 720,315.9 C976.17,370.99 1278.9957,399.549 1415.7257,410.539" fill="none" id="habitIsCompleted-to-goalProgress" style="stroke:#000000;stroke-width:1;"/><polygon fill="#000000" points="1423.7,411.18,1415.9661,407.5487,1415.4854,413.5294,1423.7,411.18" style="stroke:#000000;stroke-width:1;"/><text fill="#000000" font-family="Verdana" font-size="12" lengthAdjust="spacing" textLength="44.4609" x="975" y="358.0387">dispara</text><text fill="#000000" font-family="Verdana" font-size="12" lengthAdjust="spacing" textLength="3.8145" x="1019.4609" y="358.0387">&#160;</text><text fill="#000000" font-family="Verdana" font-size="12" lengthAdjust="spacing" textLength="78.8145" x="1023.2754" y="358.0387">actualizaci&#243;n</text></g><?plantuml-src fLXBSkCs4Dth58WturJDL6RsKwdII4giAl_AShATWeWsZOGaE03eAMUNJGwG6-G0NiqHT9ES9DtWHn150fIpaIZozKEZkz7zAAjAPXNRAcjLpeJKa5YfYfdvNHObrpndXH9We6GVti--aqMILGBOHwwJHvbp2p_CswiVPxCtx5e9nKgDE5doZBrZ2wM12SZmfdf6RZMRbsKc4qwhV5wel5G55FOyGTnRTdR1jz8YmjcTVK-K2_GYiQ1tByQYdTdJWnaXUoIMbWrPXb62o-pvMbbQTzbUZw9JnJE3o9_fUnHLWZRIM407EO9llP_rRZRLzbtItn56rBaQsivQ8DzQu6_vW12XzAWJ3dylRKOxkrRvLaCOkmIJK13mIyioaRjlHTZWLakbfNqcVlc4sSKTrFS45s7JXGOi5h7aBku_GVB8oPfkJrXuRUX61iY0rYjZCH3ElBuhRHLRlW6gWZmmhGlcc0IJzIlFi0pTi-DjZbL04vfBzHN9F_7Vr7YnDD0h4BBA4KqNSVY5J1yHFC-i2jTKLzGZX0K-Eg6i2BvG1LOpdQtwIWeLnFVJZDxmy0AlBGyo_gKKGyRpn5OyatzCO737y0uUq1m_GRkJw_hNnUuVV1I9k6iEWGPoGhG9Fl4C4_IK8-oekKw1ykXgd5r182-4lzKgnQD01wQvL4rS8svnaSbYduxBtKik8srsOxcjJ7U-WzXNrmiP_xzwoILE88lNvEe5reRP5uSPQ_C4Y_6TK2MTpSHIwV2drCj-aHEAfZDwHULqjZTQW4P3-YueVXj8gdQQHcpzGT5SryKKEB_-l1xXHsxDKzhLawoTeqi0p9AhdIpd2HGybmWUBrtpLJvOh3lk6hblmZRjezhLEyYm3gdAN1iYNJJ3UpMNaSJRYATMzQ3TCC0NF0redc92Kkw1MfqpojAJE5DaJP-eyNIlQmOMyp5jSKTWJKr7K9vsYI0FUqi4VAXCOin7AcI2u63dFCFm5fYj9sxg1JObO1geLxar3iJ7o6v7J5eHSffLhKK6R2R9adw8l0BjjCb097kmlIQ9OyTpsIUDvRw7FnmbSRmdDAP8YZvRSqexJJ6me0S9d1yFDNvyVAfs18HXNjEFBTe9X32m4mLXM3Hl7dOmPtv7RB07Wpu-uwyw-D7YFjFXk1_mT10SIEKWVZofm_I1z0uQX1CzQD8EzQduNb-TEhxxt8TpwtYC3pSwRr0VcqXoBCVUmnlZEvXegU5B9Q7zY-DkTJbVh6-kLnksN6sMAtpP-FFJ-lw6dHkLAPRjNWfmEpGqKkiN4VQb0iPRfSgKrSgmf1KOO1nnY_tthx_TgnTRIgwRsCoDKRXJ9qo4rEryyaL2MG4kcE2HqcT7VAJ-33jFAbxWEtZx9E7vbkAxzunmTNJkjKnJqB981rxcUrr3I4D_F-rv6edw7m00?></g></svg>