<?plantuml 1.2026.1beta2?><svg xmlns="http://www.w3.org/2000/svg" xmlns:xlink="http://www.w3.org/1999/xlink" contentStyleType="text/css" data-diagram-type="DESCRIPTION" height="449px" preserveAspectRatio="none" style="width:3171px;height:449px;background:#FFFFFF;" version="1.1" viewBox="0 0 3171 449" width="3171px" zoomAndPan="magnify"><defs/><g><!--entity core--><g class="entity" data-qualified-name="core" data-source-line="167" id="ent0002"><rect fill="#C2F0FF" height="52.9688" rx="0.5" ry="0.5" style="stroke:#181818;stroke-width:0.5;" width="140" x="1272" y="7"/><path d="M1401.76,21.639 L1386.934,21.686 A0.5001,0.5001 0 0 0 1386.4343,22.1857 L1386.4343,23.6233 L1383.9461,23.6037 A0.5001,0.5001 0 0 0 1383.4417,24.1039 L1383.4417,26.0392 A0.5001,0.5001 0 0 0 1383.942,26.5395 L1386.4225,26.5395 L1386.3987,27.5823 L1383.8991,27.5626 A0.5001,0.5001 0 0 0 1383.3952,28.0628 L1383.3952,29.9981 A0.5001,0.5001 0 0 0 1383.8949,30.4984 L1386.3873,30.4984 L1386.3873,33.5003 A0.5001,0.5001 0 0 0 1386.8876,34.0005 L1401.7606,34.047 A0.5001,0.5001 0 0 0 1402.2624,33.5473 L1402.2624,22.1393 A0.5001,0.5001 0 0 0 1401.7606,21.6391 M1401.2618,22.641 L1401.2618,33.045 L1387.3868,33.0021 L1387.3868,30.4984 L1389.8812,30.4984 A0.5001,0.5001 0 0 0 1390.381,29.9982 L1390.381,28.1099 A0.5001,0.5001 0 0 0 1389.8849,27.6096 L1387.3987,27.59 L1387.4225,26.5394 L1389.9278,26.5394 A0.5001,0.5001 0 0 0 1390.428,26.0392 L1390.428,24.1504 A0.5001,0.5001 0 0 0 1389.9319,23.6507 L1387.4339,23.631 L1387.4339,22.6838 M1384.4418,24.6078 L1389.4281,24.6466 L1389.4281,25.5395 L1384.4418,25.5395 M1384.3948,28.5667 L1389.3811,28.606 L1389.3811,29.4984 L1384.3948,29.4984" fill="#000000"/><text fill="#000000" font-family="Verdana" font-size="12" lengthAdjust="spacing" textLength="55.4766" x="1298.3359" y="47.1387">HabitApp</text><text fill="#000000" font-family="Verdana" font-size="12" lengthAdjust="spacing" textLength="3.8145" x="1353.8125" y="47.1387">&#160;</text><text fill="#000000" font-family="Verdana" font-size="12" lengthAdjust="spacing" textLength="28.0371" x="1357.627" y="47.1387">Core</text></g><!--entity habit--><g class="entity" data-qualified-name="habit" data-source-line="167" id="ent0003"><rect fill="#C2F0FF" height="52.9688" rx="0.5" ry="0.5" style="stroke:#181818;stroke-width:0.5;" width="140" x="982" y="134.96"/><path d="M1111.76,149.599 L1096.934,149.646 A0.5001,0.5001 0 0 0 1096.4343,150.1457 L1096.4343,151.5833 L1093.9461,151.5637 A0.5001,0.5001 0 0 0 1093.4417,152.0639 L1093.4417,153.9992 A0.5001,0.5001 0 0 0 1093.942,154.4994 L1096.4225,154.4994 L1096.3987,155.5422 L1093.8991,155.5226 A0.5001,0.5001 0 0 0 1093.3952,156.0228 L1093.3952,157.9581 A0.5001,0.5001 0 0 0 1093.8949,158.4584 L1096.3873,158.4584 L1096.3873,161.4603 A0.5001,0.5001 0 0 0 1096.8876,161.9605 L1111.7606,162.007 A0.5001,0.5001 0 0 0 1112.2624,161.5073 L1112.2624,150.0993 A0.5001,0.5001 0 0 0 1111.7606,149.5991 M1111.2618,150.601 L1111.2618,161.005 L1097.3868,160.9621 L1097.3868,158.4584 L1099.8812,158.4584 A0.5001,0.5001 0 0 0 1100.381,157.9582 L1100.381,156.0699 A0.5001,0.5001 0 0 0 1099.8849,155.5696 L1097.3987,155.55 L1097.4225,154.4994 L1099.9278,154.4994 A0.5001,0.5001 0 0 0 1100.428,153.9992 L1100.428,152.1104 A0.5001,0.5001 0 0 0 1099.9319,151.6107 L1097.4339,151.591 L1097.4339,150.6438 M1094.4418,152.5678 L1099.4281,152.6066 L1099.4281,153.4995 L1094.4418,153.4995 M1094.3948,156.5267 L1099.3811,156.566 L1099.3811,157.4584 L1094.3948,157.4584" fill="#000000"/><text fill="#000000" font-family="Verdana" font-size="12" lengthAdjust="spacing" textLength="32.0332" x="1035.9834" y="175.0987">Habit</text></g><!--entity dailyNote--><g class="entity" data-qualified-name="dailyNote" data-source-line="167" id="ent0004"><rect fill="#C2F0FF" height="52.9688" rx="0.5" ry="0.5" style="stroke:#181818;stroke-width:0.5;" width="140" x="382" y="262.93"/><path d="M511.76,277.569 L496.934,277.616 A0.5001,0.5001 0 0 0 496.4343,278.1157 L496.4343,279.5533 L493.9461,279.5337 A0.5001,0.5001 0 0 0 493.4417,280.0339 L493.4417,281.9692 A0.5001,0.5001 0 0 0 493.942,282.4695 L496.4225,282.4695 L496.3987,283.5123 L493.8991,283.4926 A0.5001,0.5001 0 0 0 493.3952,283.9928 L493.3952,285.9281 A0.5001,0.5001 0 0 0 493.8949,286.4284 L496.3873,286.4284 L496.3873,289.4303 A0.5001,0.5001 0 0 0 496.8876,289.9305 L511.7606,289.977 A0.5001,0.5001 0 0 0 512.2624,289.4773 L512.2624,278.0693 A0.5001,0.5001 0 0 0 511.7606,277.5691 M511.2618,278.571 L511.2618,288.975 L497.3868,288.9321 L497.3868,286.4284 L499.8812,286.4284 A0.5001,0.5001 0 0 0 500.381,285.9282 L500.381,284.0399 A0.5001,0.5001 0 0 0 499.8849,283.5397 L497.3987,283.52 L497.4225,282.4694 L499.9278,282.4694 A0.5001,0.5001 0 0 0 500.428,281.9692 L500.428,280.0804 A0.5001,0.5001 0 0 0 499.9319,279.5807 L497.4339,279.561 L497.4339,278.6138 M494.4418,280.5378 L499.4281,280.5766 L499.4281,281.4695 L494.4418,281.4695 M494.3948,284.4967 L499.3811,284.536 L499.3811,285.4284 L494.3948,285.4284" fill="#000000"/><text fill="#000000" font-family="Verdana" font-size="12" lengthAdjust="spacing" textLength="58.7695" x="422.6152" y="303.0687">DailyNote</text></g><!--entity goals--><g class="entity" data-qualified-name="goals" data-source-line="167" id="ent0005"><rect fill="#C2F0FF" height="52.9688" rx="0.5" ry="0.5" style="stroke:#181818;stroke-width:0.5;" width="140" x="2122" y="134.96"/><path d="M2251.76,149.599 L2236.934,149.646 A0.5001,0.5001 0 0 0 2236.4343,150.1457 L2236.4343,151.5833 L2233.9461,151.5637 A0.5001,0.5001 0 0 0 2233.4417,152.0639 L2233.4417,153.9992 A0.5001,0.5001 0 0 0 2233.942,154.4994 L2236.4225,154.4994 L2236.3987,155.5422 L2233.8991,155.5226 A0.5001,0.5001 0 0 0 2233.3952,156.0228 L2233.3952,157.9581 A0.5001,0.5001 0 0 0 2233.8949,158.4584 L2236.3873,158.4584 L2236.3873,161.4603 A0.5001,0.5001 0 0 0 2236.8876,161.9605 L2251.7606,162.007 A0.5001,0.5001 0 0 0 2252.2624,161.5073 L2252.2624,150.0993 A0.5001,0.5001 0 0 0 2251.7606,149.5991 M2251.2618,150.601 L2251.2618,161.005 L2237.3868,160.9621 L2237.3868,158.4584 L2239.8812,158.4584 A0.5001,0.5001 0 0 0 2240.381,157.9582 L2240.381,156.0699 A0.5001,0.5001 0 0 0 2239.8849,155.5696 L2237.3987,155.55 L2237.4225,154.4994 L2239.9278,154.4994 A0.5001,0.5001 0 0 0 2240.428,153.9992 L2240.428,152.1104 A0.5001,0.5001 0 0 0 2239.9319,151.6107 L2237.4339,151.591 L2237.4339,150.6438 M2234.4418,152.5678 L2239.4281,152.6066 L2239.4281,153.4995 L2234.4418,153.4995 M2234.3948,156.5267 L2239.3811,156.566 L2239.3811,157.4584 L2234.3948,157.4584" fill="#000000"/><text fill="#000000" font-family="Verdana" font-size="12" lengthAdjust="spacing" textLength="33.5801" x="2175.21" y="175.0987">Goals</text></g><!--entity persistencia--><g class="entity" data-qualified-name="persistencia" data-source-line="167" id="ent0006"><rect fill="#C2F0FF" height="52.9688" rx="0.5" ry="0.5" style="stroke:#181818;stroke-width:0.5;" width="140" x="3025" y="134.96"/><path d="M3154.76,149.599 L3139.934,149.646 A0.5001,0.5001 0 0 0 3139.4343,150.1457 L3139.4343,151.5833 L3136.9461,151.5637 A0.5001,0.5001 0 0 0 3136.4417,152.0639 L3136.4417,153.9992 A0.5001,0.5001 0 0 0 3136.942,154.4994 L3139.4225,154.4994 L3139.3987,155.5422 L3136.8991,155.5226 A0.5001,0.5001 0 0 0 3136.3952,156.0228 L3136.3952,157.9581 A0.5001,0.5001 0 0 0 3136.8949,158.4584 L3139.3873,158.4584 L3139.3873,161.4603 A0.5001,0.5001 0 0 0 3139.8876,161.9605 L3154.7606,162.007 A0.5001,0.5001 0 0 0 3155.2624,161.5073 L3155.2624,150.0993 A0.5001,0.5001 0 0 0 3154.7606,149.5991 M3154.2618,150.601 L3154.2618,161.005 L3140.3868,160.9621 L3140.3868,158.4584 L3142.8812,158.4584 A0.5001,0.5001 0 0 0 3143.381,157.9582 L3143.381,156.0699 A0.5001,0.5001 0 0 0 3142.8849,155.5696 L3140.3987,155.55 L3140.4225,154.4994 L3142.9278,154.4994 A0.5001,0.5001 0 0 0 3143.428,153.9992 L3143.428,152.1104 A0.5001,0.5001 0 0 0 3142.9319,151.6107 L3140.4339,151.591 L3140.4339,150.6438 M3137.4418,152.5678 L3142.4281,152.6066 L3142.4281,153.4995 L3137.4418,153.4995 M3137.3948,156.5267 L3142.3811,156.566 L3142.3811,157.4584 L3137.3948,157.4584" fill="#000000"/><text fill="#000000" font-family="Verdana" font-size="12" lengthAdjust="spacing" textLength="72.3691" x="3058.8154" y="175.0987">Persistencia</text></g><!--entity habitId--><g class="entity" data-qualified-name="habitId" data-source-line="167" id="ent0007"><rect fill="#C2F0FF" height="52.9688" rx="0.5" ry="0.5" style="stroke:#181818;stroke-width:0.5;" width="140" x="832" y="262.93"/><path d="M961.76,277.569 L946.934,277.616 A0.5001,0.5001 0 0 0 946.4343,278.1157 L946.4343,279.5533 L943.9461,279.5337 A0.5001,0.5001 0 0 0 943.4417,280.0339 L943.4417,281.9692 A0.5001,0.5001 0 0 0 943.942,282.4695 L946.4225,282.4695 L946.3987,283.5123 L943.8991,283.4926 A0.5001,0.5001 0 0 0 943.3952,283.9928 L943.3952,285.9281 A0.5001,0.5001 0 0 0 943.8949,286.4284 L946.3873,286.4284 L946.3873,289.4303 A0.5001,0.5001 0 0 0 946.8876,289.9305 L961.7606,289.977 A0.5001,0.5001 0 0 0 962.2624,289.4773 L962.2624,278.0693 A0.5001,0.5001 0 0 0 961.7606,277.5691 M961.2618,278.571 L961.2618,288.975 L947.3868,288.9321 L947.3868,286.4284 L949.8812,286.4284 A0.5001,0.5001 0 0 0 950.381,285.9282 L950.381,284.0399 A0.5001,0.5001 0 0 0 949.8849,283.5397 L947.3987,283.52 L947.4225,282.4694 L949.9278,282.4694 A0.5001,0.5001 0 0 0 950.428,281.9692 L950.428,280.0804 A0.5001,0.5001 0 0 0 949.9319,279.5807 L947.4339,279.561 L947.4339,278.6138 M944.4418,280.5378 L949.4281,280.5766 L949.4281,281.4695 L944.4418,281.4695 M944.3948,284.4967 L949.3811,284.536 L949.3811,285.4284 L944.3948,285.4284" fill="#000000"/><text fill="#000000" font-family="Verdana" font-size="12" lengthAdjust="spacing" textLength="10.9512" x="896.5244" y="303.0687">id</text></g><!--entity habitTitle--><g class="entity" data-qualified-name="habitTitle" data-source-line="167" id="ent0008"><rect fill="#C2F0FF" height="52.9688" rx="0.5" ry="0.5" style="stroke:#181818;stroke-width:0.5;" width="140" x="982" y="262.93"/><path d="M1111.76,277.569 L1096.934,277.616 A0.5001,0.5001 0 0 0 1096.4343,278.1157 L1096.4343,279.5533 L1093.9461,279.5337 A0.5001,0.5001 0 0 0 1093.4417,280.0339 L1093.4417,281.9692 A0.5001,0.5001 0 0 0 1093.942,282.4695 L1096.4225,282.4695 L1096.3987,283.5123 L1093.8991,283.4926 A0.5001,0.5001 0 0 0 1093.3952,283.9928 L1093.3952,285.9281 A0.5001,0.5001 0 0 0 1093.8949,286.4284 L1096.3873,286.4284 L1096.3873,289.4303 A0.5001,0.5001 0 0 0 1096.8876,289.9305 L1111.7606,289.977 A0.5001,0.5001 0 0 0 1112.2624,289.4773 L1112.2624,278.0693 A0.5001,0.5001 0 0 0 1111.7606,277.5691 M1111.2618,278.571 L1111.2618,288.975 L1097.3868,288.9321 L1097.3868,286.4284 L1099.8812,286.4284 A0.5001,0.5001 0 0 0 1100.381,285.9282 L1100.381,284.0399 A0.5001,0.5001 0 0 0 1099.8849,283.5397 L1097.3987,283.52 L1097.4225,282.4694 L1099.9278,282.4694 A0.5001,0.5001 0 0 0 1100.428,281.9692 L1100.428,280.0804 A0.5001,0.5001 0 0 0 1099.9319,279.5807 L1097.4339,279.561 L1097.4339,278.6138 M1094.4418,280.5378 L1099.4281,280.5766 L1099.4281,281.4695 L1094.4418,281.4695 M1094.3948,284.4967 L1099.3811,284.536 L1099.3811,285.4284 L1094.3948,285.4284" fill="#000000"/><text fill="#000000" font-family="Verdana" font-size="12" lengthAdjust="spacing" textLength="23.4609" x="1040.2695" y="303.0687">title</text></g><!--entity habitDesc--><g class="entity" data-qualified-name="habitDesc" data-source-line="167" id="ent0009"><rect fill="#C2F0FF" height="52.9688" rx="0.5" ry="0.5" style="stroke:#181818;stroke-width:0.5;" width="140" x="1282" y="262.93"/><path d="M1411.76,277.569 L1396.934,277.616 A0.5001,0.5001 0 0 0 1396.4343,278.1157 L1396.4343,279.5533 L1393.9461,279.5337 A0.5001,0.5001 0 0 0 1393.4417,280.0339 L1393.4417,281.9692 A0.5001,0.5001 0 0 0 1393.942,282.4695 L1396.4225,282.4695 L1396.3987,283.5123 L1393.8991,283.4926 A0.5001,0.5001 0 0 0 1393.3952,283.9928 L1393.3952,285.9281 A0.5001,0.5001 0 0 0 1393.8949,286.4284 L1396.3873,286.4284 L1396.3873,289.4303 A0.5001,0.5001 0 0 0 1396.8876,289.9305 L1411.7606,289.977 A0.5001,0.5001 0 0 0 1412.2624,289.4773 L1412.2624,278.0693 A0.5001,0.5001 0 0 0 1411.7606,277.5691 M1411.2618,278.571 L1411.2618,288.975 L1397.3868,288.9321 L1397.3868,286.4284 L1399.8812,286.4284 A0.5001,0.5001 0 0 0 1400.381,285.9282 L1400.381,284.0399 A0.5001,0.5001 0 0 0 1399.8849,283.5397 L1397.3987,283.52 L1397.4225,282.4694 L1399.9278,282.4694 A0.5001,0.5001 0 0 0 1400.428,281.9692 L1400.428,280.0804 A0.5001,0.5001 0 0 0 1399.9319,279.5807 L1397.4339,279.561 L1397.4339,278.6138 M1394.4418,280.5378 L1399.4281,280.5766 L1399.4281,281.4695 L1394.4418,281.4695 M1394.3948,284.4967 L1399.3811,284.536 L1399.3811,285.4284 L1394.3948,285.4284" fill="#000000"/><text fill="#000000" font-family="Verdana" font-size="12" lengthAdjust="spacing" textLength="66.7207" x="1318.6396" y="303.0687">description</text></g><!--entity habitPriority--><g class="entity" data-qualified-name="habitPriority" data-source-line="167" id="ent0010"><rect fill="#C2F0FF" height="52.9688" rx="0.5" ry="0.5" style="stroke:#181818;stroke-width:0.5;" width="140" x="1432" y="262.93"/><path d="M1561.76,277.569 L1546.934,277.616 A0.5001,0.5001 0 0 0 1546.4343,278.1157 L1546.4343,279.5533 L1543.9461,279.5337 A0.5001,0.5001 0 0 0 1543.4417,280.0339 L1543.4417,281.9692 A0.5001,0.5001 0 0 0 1543.942,282.4695 L1546.4225,282.4695 L1546.3987,283.5123 L1543.8991,283.4926 A0.5001,0.5001 0 0 0 1543.3952,283.9928 L1543.3952,285.9281 A0.5001,0.5001 0 0 0 1543.8949,286.4284 L1546.3873,286.4284 L1546.3873,289.4303 A0.5001,0.5001 0 0 0 1546.8876,289.9305 L1561.7606,289.977 A0.5001,0.5001 0 0 0 1562.2624,289.4773 L1562.2624,278.0693 A0.5001,0.5001 0 0 0 1561.7606,277.5691 M1561.2618,278.571 L1561.2618,288.975 L1547.3868,288.9321 L1547.3868,286.4284 L1549.8812,286.4284 A0.5001,0.5001 0 0 0 1550.381,285.9282 L1550.381,284.0399 A0.5001,0.5001 0 0 0 1549.8849,283.5397 L1547.3987,283.52 L1547.4225,282.4694 L1549.9278,282.4694 A0.5001,0.5001 0 0 0 1550.428,281.9692 L1550.428,280.0804 A0.5001,0.5001 0 0 0 1549.9319,279.5807 L1547.4339,279.561 L1547.4339,278.6138 M1544.4418,280.5378 L1549.4281,280.5766 L1549.4281,281.4695 L1544.4418,281.4695 M1544.3948,284.4967 L1549.3811,284.536 L1549.3811,285.4284 L1544.3948,285.4284" fill="#000000"/><text fill="#000000" font-family="Verdana" font-size="12" lengthAdjust="spacing" textLength="43.3008" x="1480.3496" y="303.0687">priority</text></g><!--entity habitCreatedDate--><g class="entity" data-qualified-name="habitCreatedDate" data-source-line="167" id="ent0011"><rect fill="#C2F0FF" height="52.9688" rx="0.5" ry="0.5" style="stroke:#181818;stroke-width:0.5;" width="140" x="1132" y="262.93"/><path d="M1261.76,277.569 L1246.934,277.616 A0.5001,0.5001 0 0 0 1246.4343,278.1157 L1246.4343,279.5533 L1243.9461,279.5337 A0.5001,0.5001 0 0 0 1243.4417,280.0339 L1243.4417,281.9692 A0.5001,0.5001 0 0 0 1243.942,282.4695 L1246.4225,282.4695 L1246.3987,283.5123 L1243.8991,283.4926 A0.5001,0.5001 0 0 0 1243.3952,283.9928 L1243.3952,285.9281 A0.5001,0.5001 0 0 0 1243.8949,286.4284 L1246.3873,286.4284 L1246.3873,289.4303 A0.5001,0.5001 0 0 0 1246.8876,289.9305 L1261.7606,289.977 A0.5001,0.5001 0 0 0 1262.2624,289.4773 L1262.2624,278.0693 A0.5001,0.5001 0 0 0 1261.7606,277.5691 M1261.2618,278.571 L1261.2618,288.975 L1247.3868,288.9321 L1247.3868,286.4284 L1249.8812,286.4284 A0.5001,0.5001 0 0 0 1250.381,285.9282 L1250.381,284.0399 A0.5001,0.5001 0 0 0 1249.8849,283.5397 L1247.3987,283.52 L1247.4225,282.4694 L1249.9278,282.4694 A0.5001,0.5001 0 0 0 1250.428,281.9692 L1250.428,280.0804 A0.5001,0.5001 0 0 0 1249.9319,279.5807 L1247.4339,279.561 L1247.4339,278.6138 M1244.4418,280.5378 L1249.4281,280.5766 L1249.4281,281.4695 L1244.4418,281.4695 M1244.3948,284.4967 L1249.3811,284.536 L1249.3811,285.4284 L1244.3948,285.4284" fill="#000000"/><text fill="#000000" font-family="Verdana" font-size="12" lengthAdjust="spacing" textLength="74.6543" x="1164.6729" y="303.0687">createdDate</text></g><!--entity habitIsCompleted--><g class="entity" data-qualified-name="habitIsCompleted" data-source-line="167" id="ent0012"><rect fill="#C2F0FF" height="52.9688" rx="0.5" ry="0.5" style="stroke:#181818;stroke-width:0.5;" width="140" x="532" y="262.93"/><path d="M661.76,277.569 L646.934,277.616 A0.5001,0.5001 0 0 0 646.4343,278.1157 L646.4343,279.5533 L643.9461,279.5337 A0.5001,0.5001 0 0 0 643.4417,280.0339 L643.4417,281.9692 A0.5001,0.5001 0 0 0 643.942,282.4695 L646.4225,282.4695 L646.3987,283.5123 L643.8991,283.4926 A0.5001,0.5001 0 0 0 643.3952,283.9928 L643.3952,285.9281 A0.5001,0.5001 0 0 0 643.8949,286.4284 L646.3873,286.4284 L646.3873,289.4303 A0.5001,0.5001 0 0 0 646.8876,289.9305 L661.7606,289.977 A0.5001,0.5001 0 0 0 662.2624,289.4773 L662.2624,278.0693 A0.5001,0.5001 0 0 0 661.7606,277.5691 M661.2618,278.571 L661.2618,288.975 L647.3868,288.9321 L647.3868,286.4284 L649.8812,286.4284 A0.5001,0.5001 0 0 0 650.381,285.9282 L650.381,284.0399 A0.5001,0.5001 0 0 0 649.8849,283.5397 L647.3987,283.52 L647.4225,282.4694 L649.9278,282.4694 A0.5001,0.5001 0 0 0 650.428,281.9692 L650.428,280.0804 A0.5001,0.5001 0 0 0 649.9319,279.5807 L647.4339,279.561 L647.4339,278.6138 M644.4418,280.5378 L649.4281,280.5766 L649.4281,281.4695 L644.4418,281.4695 M644.3948,284.4967 L649.3811,284.536 L649.3811,285.4284 L644.3948,285.4284" fill="#000000"/><text fill="#000000" font-family="Verdana" font-size="12" lengthAdjust="spacing" textLength="75.0352" x="564.4824" y="303.0687">isCompleted</text></g><!--entity habitCompletionDates--><g class="entity" data-qualified-name="habitCompletionDates" data-source-line="167" id="ent0013"><rect fill="#C2F0FF" height="52.9688" rx="0.5" ry="0.5" style="stroke:#181818;stroke-width:0.5;" width="140" x="682" y="262.93"/><path d="M811.76,277.569 L796.934,277.616 A0.5001,0.5001 0 0 0 796.4343,278.1157 L796.4343,279.5533 L793.9461,279.5337 A0.5001,0.5001 0 0 0 793.4417,280.0339 L793.4417,281.9692 A0.5001,0.5001 0 0 0 793.942,282.4695 L796.4225,282.4695 L796.3987,283.5123 L793.8991,283.4926 A0.5001,0.5001 0 0 0 793.3952,283.9928 L793.3952,285.9281 A0.5001,0.5001 0 0 0 793.8949,286.4284 L796.3873,286.4284 L796.3873,289.4303 A0.5001,0.5001 0 0 0 796.8876,289.9305 L811.7606,289.977 A0.5001,0.5001 0 0 0 812.2624,289.4773 L812.2624,278.0693 A0.5001,0.5001 0 0 0 811.7606,277.5691 M811.2618,278.571 L811.2618,288.975 L797.3868,288.9321 L797.3868,286.4284 L799.8812,286.4284 A0.5001,0.5001 0 0 0 800.381,285.9282 L800.381,284.0399 A0.5001,0.5001 0 0 0 799.8849,283.5397 L797.3987,283.52 L797.4225,282.4694 L799.9278,282.4694 A0.5001,0.5001 0 0 0 800.428,281.9692 L800.428,280.0804 A0.5001,0.5001 0 0 0 799.9319,279.5807 L797.4339,279.561 L797.4339,278.6138 M794.4418,280.5378 L799.4281,280.5766 L799.4281,281.4695 L794.4418,281.4695 M794.3948,284.4967 L799.3811,284.536 L799.3811,285.4284 L794.3948,285.4284" fill="#000000"/><text fill="#000000" font-family="Verdana" font-size="12" lengthAdjust="spacing" textLength="101.8828" x="701.0586" y="303.0687">completionDates</text></g><!--entity priorityLow--><g class="entity" data-qualified-name="priorityLow" data-source-line="167" id="ent0014"><rect fill="#C2F0FF" height="52.9688" rx="0.5" ry="0.5" style="stroke:#181818;stroke-width:0.5;" width="140" x="1282" y="134.96"/><path d="M1411.76,149.599 L1396.934,149.646 A0.5001,0.5001 0 0 0 1396.4343,150.1457 L1396.4343,151.5833 L1393.9461,151.5637 A0.5001,0.5001 0 0 0 1393.4417,152.0639 L1393.4417,153.9992 A0.5001,0.5001 0 0 0 1393.942,154.4994 L1396.4225,154.4994 L1396.3987,155.5422 L1393.8991,155.5226 A0.5001,0.5001 0 0 0 1393.3952,156.0228 L1393.3952,157.9581 A0.5001,0.5001 0 0 0 1393.8949,158.4584 L1396.3873,158.4584 L1396.3873,161.4603 A0.5001,0.5001 0 0 0 1396.8876,161.9605 L1411.7606,162.007 A0.5001,0.5001 0 0 0 1412.2624,161.5073 L1412.2624,150.0993 A0.5001,0.5001 0 0 0 1411.7606,149.5991 M1411.2618,150.601 L1411.2618,161.005 L1397.3868,160.9621 L1397.3868,158.4584 L1399.8812,158.4584 A0.5001,0.5001 0 0 0 1400.381,157.9582 L1400.381,156.0699 A0.5001,0.5001 0 0 0 1399.8849,155.5696 L1397.3987,155.55 L1397.4225,154.4994 L1399.9278,154.4994 A0.5001,0.5001 0 0 0 1400.428,153.9992 L1400.428,152.1104 A0.5001,0.5001 0 0 0 1399.9319,151.6107 L1397.4339,151.591 L1397.4339,150.6438 M1394.4418,152.5678 L1399.4281,152.6066 L1399.4281,153.4995 L1394.4418,153.4995 M1394.3948,156.5267 L1399.3811,156.566 L1399.3811,157.4584 L1394.3948,157.4584" fill="#000000"/><text fill="#000000" font-family="Verdana" font-size="12" lengthAdjust="spacing" textLength="20.4902" x="1341.7549" y="175.0987">low</text></g><!--entity priorityMedium--><g class="entity" data-qualified-name="priorityMedium" data-source-line="167" id="ent0015"><rect fill="#C2F0FF" height="52.9688" rx="0.5" ry="0.5" style="stroke:#181818;stroke-width:0.5;" width="140" x="1432" y="134.96"/><path d="M1561.76,149.599 L1546.934,149.646 A0.5001,0.5001 0 0 0 1546.4343,150.1457 L1546.4343,151.5833 L1543.9461,151.5637 A0.5001,0.5001 0 0 0 1543.4417,152.0639 L1543.4417,153.9992 A0.5001,0.5001 0 0 0 1543.942,154.4994 L1546.4225,154.4994 L1546.3987,155.5422 L1543.8991,155.5226 A0.5001,0.5001 0 0 0 1543.3952,156.0228 L1543.3952,157.9581 A0.5001,0.5001 0 0 0 1543.8949,158.4584 L1546.3873,158.4584 L1546.3873,161.4603 A0.5001,0.5001 0 0 0 1546.8876,161.9605 L1561.7606,162.007 A0.5001,0.5001 0 0 0 1562.2624,161.5073 L1562.2624,150.0993 A0.5001,0.5001 0 0 0 1561.7606,149.5991 M1561.2618,150.601 L1561.2618,161.005 L1547.3868,160.9621 L1547.3868,158.4584 L1549.8812,158.4584 A0.5001,0.5001 0 0 0 1550.381,157.9582 L1550.381,156.0699 A0.5001,0.5001 0 0 0 1549.8849,155.5696 L1547.3987,155.55 L1547.4225,154.4994 L1549.9278,154.4994 A0.5001,0.5001 0 0 0 1550.428,153.9992 L1550.428,152.1104 A0.5001,0.5001 0 0 0 1549.9319,151.6107 L1547.4339,151.591 L1547.4339,150.6438 M1544.4418,152.5678 L1549.4281,152.6066 L1549.4281,153.4995 L1544.4418,153.4995 M1544.3948,156.5267 L1549.3811,156.566 L1549.3811,157.4584 L1544.3948,157.4584" fill="#000000"/><text fill="#000000" font-family="Verdana" font-size="12" lengthAdjust="spacing" textLength="49.3184" x="1477.3408" y="175.0987">medium</text></g><!--entity priorityHigh--><g class="entity" data-qualified-name="priorityHigh" data-source-line="167" id="ent0016"><rect fill="#C2F0FF" height="52.9688" rx="0.5" ry="0.5" style="stroke:#181818;stroke-width:0.5;" width="140" x="1582" y="134.96"/><path d="M1711.76,149.599 L1696.934,149.646 A0.5001,0.5001 0 0 0 1696.4343,150.1457 L1696.4343,151.5833 L1693.9461,151.5637 A0.5001,0.5001 0 0 0 1693.4417,152.0639 L1693.4417,153.9992 A0.5001,0.5001 0 0 0 1693.942,154.4994 L1696.4225,154.4994 L1696.3987,155.5422 L1693.8991,155.5226 A0.5001,0.5001 0 0 0 1693.3952,156.0228 L1693.3952,157.9581 A0.5001,0.5001 0 0 0 1693.8949,158.4584 L1696.3873,158.4584 L1696.3873,161.4603 A0.5001,0.5001 0 0 0 1696.8876,161.9605 L1711.7606,162.007 A0.5001,0.5001 0 0 0 1712.2624,161.5073 L1712.2624,150.0993 A0.5001,0.5001 0 0 0 1711.7606,149.5991 M1711.2618,150.601 L1711.2618,161.005 L1697.3868,160.9621 L1697.3868,158.4584 L1699.8812,158.4584 A0.5001,0.5001 0 0 0 1700.381,157.9582 L1700.381,156.0699 A0.5001,0.5001 0 0 0 1699.8849,155.5696 L1697.3987,155.55 L1697.4225,154.4994 L1699.9278,154.4994 A0.5001,0.5001 0 0 0 1700.428,153.9992 L1700.428,152.1104 A0.5001,0.5001 0 0 0 1699.9319,151.6107 L1697.4339,151.591 L1697.4339,150.6438 M1694.4418,152.5678 L1699.4281,152.6066 L1699.4281,153.4995 L1694.4418,153.4995 M1694.3948,156.5267 L1699.3811,156.566 L1699.3811,157.4584 L1694.3948,157.4584" fill="#000000"/><text fill="#000000" font-family="Verdana" font-size="12" lengthAdjust="spacing" textLength="26.1621" x="1638.9189" y="175.0987">high</text></g><!--entity noteId--><g class="entity" data-qualified-name="noteId" data-source-line="167" id="ent0017"><rect fill="#C2F0FF" height="52.9688" rx="0.5" ry="0.5" style="stroke:#181818;stroke-width:0.5;" width="140" x="457" y="390.9"/><path d="M586.76,405.539 L571.934,405.586 A0.5001,0.5001 0 0 0 571.4343,406.0857 L571.4343,407.5233 L568.9461,407.5037 A0.5001,0.5001 0 0 0 568.4417,408.0039 L568.4417,409.9392 A0.5001,0.5001 0 0 0 568.942,410.4394 L571.4225,410.4394 L571.3987,411.4822 L568.8991,411.4626 A0.5001,0.5001 0 0 0 568.3952,411.9628 L568.3952,413.8981 A0.5001,0.5001 0 0 0 568.8949,414.3984 L571.3873,414.3984 L571.3873,417.4003 A0.5001,0.5001 0 0 0 571.8876,417.9005 L586.7606,417.947 A0.5001,0.5001 0 0 0 587.2624,417.4473 L587.2624,406.0393 A0.5001,0.5001 0 0 0 586.7606,405.5391 M586.2618,406.541 L586.2618,416.945 L572.3868,416.9021 L572.3868,414.3984 L574.8812,414.3984 A0.5001,0.5001 0 0 0 575.381,413.8982 L575.381,412.0099 A0.5001,0.5001 0 0 0 574.8849,411.5096 L572.3987,411.49 L572.4225,410.4394 L574.9278,410.4394 A0.5001,0.5001 0 0 0 575.428,409.9392 L575.428,408.0504 A0.5001,0.5001 0 0 0 574.9319,407.5507 L572.4339,407.531 L572.4339,406.5838 M569.4418,408.5078 L574.4281,408.5466 L574.4281,409.4395 L569.4418,409.4395 M569.3948,412.4667 L574.3811,412.506 L574.3811,413.3984 L569.3948,413.3984" fill="#000000"/><text fill="#000000" font-family="Verdana" font-size="12" lengthAdjust="spacing" textLength="10.9512" x="521.5244" y="431.0387">id</text></g><!--entity noteContent--><g class="entity" data-qualified-name="noteContent" data-source-line="167" id="ent0018"><rect fill="#C2F0FF" height="52.9688" rx="0.5" ry="0.5" style="stroke:#181818;stroke-width:0.5;" width="140" x="607" y="390.9"/><path d="M736.76,405.539 L721.934,405.586 A0.5001,0.5001 0 0 0 721.4343,406.0857 L721.4343,407.5233 L718.9461,407.5037 A0.5001,0.5001 0 0 0 718.4417,408.0039 L718.4417,409.9392 A0.5001,0.5001 0 0 0 718.942,410.4394 L721.4225,410.4394 L721.3987,411.4822 L718.8991,411.4626 A0.5001,0.5001 0 0 0 718.3952,411.9628 L718.3952,413.8981 A0.5001,0.5001 0 0 0 718.8949,414.3984 L721.3873,414.3984 L721.3873,417.4003 A0.5001,0.5001 0 0 0 721.8876,417.9005 L736.7606,417.947 A0.5001,0.5001 0 0 0 737.2624,417.4473 L737.2624,406.0393 A0.5001,0.5001 0 0 0 736.7606,405.5391 M736.2618,406.541 L736.2618,416.945 L722.3868,416.9021 L722.3868,414.3984 L724.8812,414.3984 A0.5001,0.5001 0 0 0 725.381,413.8982 L725.381,412.0099 A0.5001,0.5001 0 0 0 724.8849,411.5096 L722.3987,411.49 L722.4225,410.4394 L724.9278,410.4394 A0.5001,0.5001 0 0 0 725.428,409.9392 L725.428,408.0504 A0.5001,0.5001 0 0 0 724.9319,407.5507 L722.4339,407.531 L722.4339,406.5838 M719.4418,408.5078 L724.4281,408.5466 L724.4281,409.4395 L719.4418,409.4395 M719.3948,412.4667 L724.3811,412.506 L724.3811,413.3984 L719.3948,413.3984" fill="#000000"/><text fill="#000000" font-family="Verdana" font-size="12" lengthAdjust="spacing" textLength="45.9434" x="654.0283" y="431.0387">content</text></g><!--entity noteDate--><g class="entity" data-qualified-name="noteDate" data-source-line="167" id="ent0019"><rect fill="#C2F0FF" height="52.9688" rx="0.5" ry="0.5" style="stroke:#181818;stroke-width:0.5;" width="140" x="757" y="390.9"/><path d="M886.76,405.539 L871.934,405.586 A0.5001,0.5001 0 0 0 871.4343,406.0857 L871.4343,407.5233 L868.9461,407.5037 A0.5001,0.5001 0 0 0 868.4417,408.0039 L868.4417,409.9392 A0.5001,0.5001 0 0 0 868.942,410.4394 L871.4225,410.4394 L871.3987,411.4822 L868.8991,411.4626 A0.5001,0.5001 0 0 0 868.3952,411.9628 L868.3952,413.8981 A0.5001,0.5001 0 0 0 868.8949,414.3984 L871.3873,414.3984 L871.3873,417.4003 A0.5001,0.5001 0 0 0 871.8876,417.9005 L886.7606,417.947 A0.5001,0.5001 0 0 0 887.2624,417.4473 L887.2624,406.0393 A0.5001,0.5001 0 0 0 886.7606,405.5391 M886.2618,406.541 L886.2618,416.945 L872.3868,416.9021 L872.3868,414.3984 L874.8812,414.3984 A0.5001,0.5001 0 0 0 875.381,413.8982 L875.381,412.0099 A0.5001,0.5001 0 0 0 874.8849,411.5096 L872.3987,411.49 L872.4225,410.4394 L874.9278,410.4394 A0.5001,0.5001 0 0 0 875.428,409.9392 L875.428,408.0504 A0.5001,0.5001 0 0 0 874.9319,407.5507 L872.4339,407.531 L872.4339,406.5838 M869.4418,408.5078 L874.4281,408.5466 L874.4281,409.4395 L869.4418,409.4395 M869.3948,412.4667 L874.3811,412.506 L874.3811,413.3984 L869.3948,413.3984" fill="#000000"/><text fill="#000000" font-family="Verdana" font-size="12" lengthAdjust="spacing" textLength="27.0586" x="813.4707" y="431.0387">date</text></g><!--entity noteCreatedDate--><g class="entity" data-qualified-name="noteCreatedDate" data-source-line="167" id="ent0020"><rect fill="#C2F0FF" height="52.9688" rx="0.5" ry="0.5" style="stroke:#181818;stroke-width:0.5;" width="140" x="7" y="390.9"/><path d="M136.76,405.539 L121.934,405.586 A0.5001,0.5001 0 0 0 121.4343,406.0857 L121.4343,407.5233 L118.9461,407.5037 A0.5001,0.5001 0 0 0 118.4417,408.0039 L118.4417,409.9392 A0.5001,0.5001 0 0 0 118.942,410.4394 L121.4225,410.4394 L121.3987,411.4822 L118.8991,411.4626 A0.5001,0.5001 0 0 0 118.3952,411.9628 L118.3952,413.8981 A0.5001,0.5001 0 0 0 118.8949,414.3984 L121.3873,414.3984 L121.3873,417.4003 A0.5001,0.5001 0 0 0 121.8876,417.9005 L136.7606,417.947 A0.5001,0.5001 0 0 0 137.2624,417.4473 L137.2624,406.0393 A0.5001,0.5001 0 0 0 136.7606,405.5391 M136.2618,406.541 L136.2618,416.945 L122.3868,416.9021 L122.3868,414.3984 L124.8812,414.3984 A0.5001,0.5001 0 0 0 125.381,413.8982 L125.381,412.0099 A0.5001,0.5001 0 0 0 124.8849,411.5096 L122.3987,411.49 L122.4225,410.4394 L124.9278,410.4394 A0.5001,0.5001 0 0 0 125.428,409.9392 L125.428,408.0504 A0.5001,0.5001 0 0 0 124.9319,407.5507 L122.4339,407.531 L122.4339,406.5838 M119.4418,408.5078 L124.4281,408.5466 L124.4281,409.4395 L119.4418,409.4395 M119.3948,412.4667 L124.3811,412.506 L124.3811,413.3984 L119.3948,413.3984" fill="#000000"/><text fill="#000000" font-family="Verdana" font-size="12" lengthAdjust="spacing" textLength="74.6543" x="39.6729" y="431.0387">createdDate</text></g><!--entity noteUpdatedDate--><g class="entity" data-qualified-name="noteUpdatedDate" data-source-line="167" id="ent0021"><rect fill="#C2F0FF" height="52.9688" rx="0.5" ry="0.5" style="stroke:#181818;stroke-width:0.5;" width="140" x="157" y="390.9"/><path d="M286.76,405.539 L271.934,405.586 A0.5001,0.5001 0 0 0 271.4343,406.0857 L271.4343,407.5233 L268.9461,407.5037 A0.5001,0.5001 0 0 0 268.4417,408.0039 L268.4417,409.9392 A0.5001,0.5001 0 0 0 268.942,410.4394 L271.4225,410.4394 L271.3987,411.4822 L268.8991,411.4626 A0.5001,0.5001 0 0 0 268.3952,411.9628 L268.3952,413.8981 A0.5001,0.5001 0 0 0 268.8949,414.3984 L271.3873,414.3984 L271.3873,417.4003 A0.5001,0.5001 0 0 0 271.8876,417.9005 L286.7606,417.947 A0.5001,0.5001 0 0 0 287.2624,417.4473 L287.2624,406.0393 A0.5001,0.5001 0 0 0 286.7606,405.5391 M286.2618,406.541 L286.2618,416.945 L272.3868,416.9021 L272.3868,414.3984 L274.8812,414.3984 A0.5001,0.5001 0 0 0 275.381,413.8982 L275.381,412.0099 A0.5001,0.5001 0 0 0 274.8849,411.5096 L272.3987,411.49 L272.4225,410.4394 L274.9278,410.4394 A0.5001,0.5001 0 0 0 275.428,409.9392 L275.428,408.0504 A0.5001,0.5001 0 0 0 274.9319,407.5507 L272.4339,407.531 L272.4339,406.5838 M269.4418,408.5078 L274.4281,408.5466 L274.4281,409.4395 L269.4418,409.4395 M269.3948,412.4667 L274.3811,412.506 L274.3811,413.3984 L269.3948,413.3984" fill="#000000"/><text fill="#000000" font-family="Verdana" font-size="12" lengthAdjust="spacing" textLength="78.5801" x="187.71" y="431.0387">updatedDate</text></g><!--entity noteHabitRef--><g class="entity" data-qualified-name="noteHabitRef" data-source-line="167" id="ent0022"><rect fill="#C2F0FF" height="52.9688" rx="0.5" ry="0.5" style="stroke:#181818;stroke-width:0.5;" width="140" x="307" y="390.9"/><path d="M436.76,405.539 L421.934,405.586 A0.5001,0.5001 0 0 0 421.4343,406.0857 L421.4343,407.5233 L418.9461,407.5037 A0.5001,0.5001 0 0 0 418.4417,408.0039 L418.4417,409.9392 A0.5001,0.5001 0 0 0 418.942,410.4394 L421.4225,410.4394 L421.3987,411.4822 L418.8991,411.4626 A0.5001,0.5001 0 0 0 418.3952,411.9628 L418.3952,413.8981 A0.5001,0.5001 0 0 0 418.8949,414.3984 L421.3873,414.3984 L421.3873,417.4003 A0.5001,0.5001 0 0 0 421.8876,417.9005 L436.7606,417.947 A0.5001,0.5001 0 0 0 437.2624,417.4473 L437.2624,406.0393 A0.5001,0.5001 0 0 0 436.7606,405.5391 M436.2618,406.541 L436.2618,416.945 L422.3868,416.9021 L422.3868,414.3984 L424.8812,414.3984 A0.5001,0.5001 0 0 0 425.381,413.8982 L425.381,412.0099 A0.5001,0.5001 0 0 0 424.8849,411.5096 L422.3987,411.49 L422.4225,410.4394 L424.9278,410.4394 A0.5001,0.5001 0 0 0 425.428,409.9392 L425.428,408.0504 A0.5001,0.5001 0 0 0 424.9319,407.5507 L422.4339,407.531 L422.4339,406.5838 M419.4418,408.5078 L424.4281,408.5466 L424.4281,409.4395 L419.4418,409.4395 M419.3948,412.4667 L424.3811,412.506 L424.3811,413.3984 L419.3948,413.3984" fill="#000000"/><text fill="#000000" font-family="Verdana" font-size="12" lengthAdjust="spacing" textLength="91.8457" x="331.0771" y="431.0387">habitReference</text></g><!--entity goalId--><g class="entity" data-qualified-name="goalId" data-source-line="167" id="ent0023"><rect fill="#C2F0FF" height="52.9688" rx="0.5" ry="0.5" style="stroke:#181818;stroke-width:0.5;" width="140" x="2357" y="262.93"/><path d="M2486.76,277.569 L2471.934,277.616 A0.5001,0.5001 0 0 0 2471.4343,278.1157 L2471.4343,279.5533 L2468.9461,279.5337 A0.5001,0.5001 0 0 0 2468.4417,280.0339 L2468.4417,281.9692 A0.5001,0.5001 0 0 0 2468.942,282.4695 L2471.4225,282.4695 L2471.3987,283.5123 L2468.8991,283.4926 A0.5001,0.5001 0 0 0 2468.3952,283.9928 L2468.3952,285.9281 A0.5001,0.5001 0 0 0 2468.8949,286.4284 L2471.3873,286.4284 L2471.3873,289.4303 A0.5001,0.5001 0 0 0 2471.8876,289.9305 L2486.7606,289.977 A0.5001,0.5001 0 0 0 2487.2624,289.4773 L2487.2624,278.0693 A0.5001,0.5001 0 0 0 2486.7606,277.5691 M2486.2618,278.571 L2486.2618,288.975 L2472.3868,288.9321 L2472.3868,286.4284 L2474.8812,286.4284 A0.5001,0.5001 0 0 0 2475.381,285.9282 L2475.381,284.0399 A0.5001,0.5001 0 0 0 2474.8849,283.5397 L2472.3987,283.52 L2472.4225,282.4694 L2474.9278,282.4694 A0.5001,0.5001 0 0 0 2475.428,281.9692 L2475.428,280.0804 A0.5001,0.5001 0 0 0 2474.9319,279.5807 L2472.4339,279.561 L2472.4339,278.6138 M2469.4418,280.5378 L2474.4281,280.5766 L2474.4281,281.4695 L2469.4418,281.4695 M2469.3948,284.4967 L2474.3811,284.536 L2474.3811,285.4284 L2469.3948,285.4284" fill="#000000"/><text fill="#000000" font-family="Verdana" font-size="12" lengthAdjust="spacing" textLength="10.9512" x="2421.5244" y="303.0687">id</text></g><!--entity goalTitle--><g class="entity" data-qualified-name="goalTitle" data-source-line="167" id="ent0024"><rect fill="#C2F0FF" height="52.9688" rx="0.5" ry="0.5" style="stroke:#181818;stroke-width:0.5;" width="140" x="2507" y="262.93"/><path d="M2636.76,277.569 L2621.934,277.616 A0.5001,0.5001 0 0 0 2621.4343,278.1157 L2621.4343,279.5533 L2618.9461,279.5337 A0.5001,0.5001 0 0 0 2618.4417,280.0339 L2618.4417,281.9692 A0.5001,0.5001 0 0 0 2618.942,282.4695 L2621.4225,282.4695 L2621.3987,283.5123 L2618.8991,283.4926 A0.5001,0.5001 0 0 0 2618.3952,283.9928 L2618.3952,285.9281 A0.5001,0.5001 0 0 0 2618.8949,286.4284 L2621.3873,286.4284 L2621.3873,289.4303 A0.5001,0.5001 0 0 0 2621.8876,289.9305 L2636.7606,289.977 A0.5001,0.5001 0 0 0 2637.2624,289.4773 L2637.2624,278.0693 A0.5001,0.5001 0 0 0 2636.7606,277.5691 M2636.2618,278.571 L2636.2618,288.975 L2622.3868,288.9321 L2622.3868,286.4284 L2624.8812,286.4284 A0.5001,0.5001 0 0 0 2625.381,285.9282 L2625.381,284.0399 A0.5001,0.5001 0 0 0 2624.8849,283.5397 L2622.3987,283.52 L2622.4225,282.4694 L2624.9278,282.4694 A0.5001,0.5001 0 0 0 2625.428,281.9692 L2625.428,280.0804 A0.5001,0.5001 0 0 0 2624.9319,279.5807 L2622.4339,279.561 L2622.4339,278.6138 M2619.4418,280.5378 L2624.4281,280.5766 L2624.4281,281.4695 L2619.4418,281.4695 M2619.3948,284.4967 L2624.3811,284.536 L2624.3811,285.4284 L2619.3948,285.4284" fill="#000000"/><text fill="#000000" font-family="Verdana" font-size="12" lengthAdjust="spacing" textLength="23.4609" x="2565.2695" y="303.0687">title</text></g><!--entity goalDesc--><g class="entity" data-qualified-name="goalDesc" data-source-line="167" id="ent0025"><rect fill="#C2F0FF" height="52.9688" rx="0.5" ry="0.5" style="stroke:#181818;stroke-width:0.5;" width="140" x="2657" y="262.93"/><path d="M2786.76,277.569 L2771.934,277.616 A0.5001,0.5001 0 0 0 2771.4343,278.1157 L2771.4343,279.5533 L2768.9461,279.5337 A0.5001,0.5001 0 0 0 2768.4417,280.0339 L2768.4417,281.9692 A0.5001,0.5001 0 0 0 2768.942,282.4695 L2771.4225,282.4695 L2771.3987,283.5123 L2768.8991,283.4926 A0.5001,0.5001 0 0 0 2768.3952,283.9928 L2768.3952,285.9281 A0.5001,0.5001 0 0 0 2768.8949,286.4284 L2771.3873,286.4284 L2771.3873,289.4303 A0.5001,0.5001 0 0 0 2771.8876,289.9305 L2786.7606,289.977 A0.5001,0.5001 0 0 0 2787.2624,289.4773 L2787.2624,278.0693 A0.5001,0.5001 0 0 0 2786.7606,277.5691 M2786.2618,278.571 L2786.2618,288.975 L2772.3868,288.9321 L2772.3868,286.4284 L2774.8812,286.4284 A0.5001,0.5001 0 0 0 2775.381,285.9282 L2775.381,284.0399 A0.5001,0.5001 0 0 0 2774.8849,283.5397 L2772.3987,283.52 L2772.4225,282.4694 L2774.9278,282.4694 A0.5001,0.5001 0 0 0 2775.428,281.9692 L2775.428,280.0804 A0.5001,0.5001 0 0 0 2774.9319,279.5807 L2772.4339,279.561 L2772.4339,278.6138 M2769.4418,280.5378 L2774.4281,280.5766 L2774.4281,281.4695 L2769.4418,281.4695 M2769.3948,284.4967 L2774.3811,284.536 L2774.3811,285.4284 L2769.3948,285.4284" fill="#000000"/><text fill="#000000" font-family="Verdana" font-size="12" lengthAdjust="spacing" textLength="66.7207" x="2693.6396" y="303.0687">description</text></g><!--entity goalTarget--><g class="entity" data-qualified-name="goalTarget" data-source-line="167" id="ent0026"><rect fill="#C2F0FF" height="52.9688" rx="0.5" ry="0.5" style="stroke:#181818;stroke-width:0.5;" width="140" x="2807" y="262.93"/><path d="M2936.76,277.569 L2921.934,277.616 A0.5001,0.5001 0 0 0 2921.4343,278.1157 L2921.4343,279.5533 L2918.9461,279.5337 A0.5001,0.5001 0 0 0 2918.4417,280.0339 L2918.4417,281.9692 A0.5001,0.5001 0 0 0 2918.942,282.4695 L2921.4225,282.4695 L2921.3987,283.5123 L2918.8991,283.4926 A0.5001,0.5001 0 0 0 2918.3952,283.9928 L2918.3952,285.9281 A0.5001,0.5001 0 0 0 2918.8949,286.4284 L2921.3873,286.4284 L2921.3873,289.4303 A0.5001,0.5001 0 0 0 2921.8876,289.9305 L2936.7606,289.977 A0.5001,0.5001 0 0 0 2937.2624,289.4773 L2937.2624,278.0693 A0.5001,0.5001 0 0 0 2936.7606,277.5691 M2936.2618,278.571 L2936.2618,288.975 L2922.3868,288.9321 L2922.3868,286.4284 L2924.8812,286.4284 A0.5001,0.5001 0 0 0 2925.381,285.9282 L2925.381,284.0399 A0.5001,0.5001 0 0 0 2924.8849,283.5397 L2922.3987,283.52 L2922.4225,282.4694 L2924.9278,282.4694 A0.5001,0.5001 0 0 0 2925.428,281.9692 L2925.428,280.0804 A0.5001,0.5001 0 0 0 2924.9319,279.5807 L2922.4339,279.561 L2922.4339,278.6138 M2919.4418,280.5378 L2924.4281,280.5766 L2924.4281,281.4695 L2919.4418,281.4695 M2919.3948,284.4967 L2924.3811,284.536 L2924.3811,285.4284 L2919.3948,285.4284" fill="#000000"/><text fill="#000000" font-family="Verdana" font-size="12" lengthAdjust="spacing" textLength="70.582" x="2841.709" y="303.0687">targetValue</text></g><!--entity goalProgress--><g class="entity" data-qualified-name="goalProgress" data-source-line="167" id="ent0027"><rect fill="#C2F0FF" height="52.9688" rx="0.5" ry="0.5" style="stroke:#181818;stroke-width:0.5;" width="140" x="1370" y="390.9"/><path d="M1499.76,405.539 L1484.934,405.586 A0.5001,0.5001 0 0 0 1484.4343,406.0857 L1484.4343,407.5233 L1481.9461,407.5037 A0.5001,0.5001 0 0 0 1481.4417,408.0039 L1481.4417,409.9392 A0.5001,0.5001 0 0 0 1481.942,410.4394 L1484.4225,410.4394 L1484.3987,411.4822 L1481.8991,411.4626 A0.5001,0.5001 0 0 0 1481.3952,411.9628 L1481.3952,413.8981 A0.5001,0.5001 0 0 0 1481.8949,414.3984 L1484.3873,414.3984 L1484.3873,417.4003 A0.5001,0.5001 0 0 0 1484.8876,417.9005 L1499.7606,417.947 A0.5001,0.5001 0 0 0 1500.2624,417.4473 L1500.2624,406.0393 A0.5001,0.5001 0 0 0 1499.7606,405.5391 M1499.2618,406.541 L1499.2618,416.945 L1485.3868,416.9021 L1485.3868,414.3984 L1487.8812,414.3984 A0.5001,0.5001 0 0 0 1488.381,413.8982 L1488.381,412.0099 A0.5001,0.5001 0 0 0 1487.8849,411.5096 L1485.3987,411.49 L1485.4225,410.4394 L1487.9278,410.4394 A0.5001,0.5001 0 0 0 1488.428,409.9392 L1488.428,408.0504 A0.5001,0.5001 0 0 0 1487.9319,407.5507 L1485.4339,407.531 L1485.4339,406.5838 M1482.4418,408.5078 L1487.4281,408.5466 L1487.4281,409.4395 L1482.4418,409.4395 M1482.3948,412.4667 L1487.3811,412.506 L1487.3811,413.3984 L1482.3948,413.3984" fill="#000000"/><text fill="#000000" font-family="Verdana" font-size="12" lengthAdjust="spacing" textLength="95.7129" x="1392.1436" y="431.0387">currentProgress</text></g><!--entity goalDeadline--><g class="entity" data-qualified-name="goalDeadline" data-source-line="167" id="ent0028"><rect fill="#C2F0FF" height="52.9688" rx="0.5" ry="0.5" style="stroke:#181818;stroke-width:0.5;" width="140" x="1582" y="262.93"/><path d="M1711.76,277.569 L1696.934,277.616 A0.5001,0.5001 0 0 0 1696.4343,278.1157 L1696.4343,279.5533 L1693.9461,279.5337 A0.5001,0.5001 0 0 0 1693.4417,280.0339 L1693.4417,281.9692 A0.5001,0.5001 0 0 0 1693.942,282.4695 L1696.4225,282.4695 L1696.3987,283.5123 L1693.8991,283.4926 A0.5001,0.5001 0 0 0 1693.3952,283.9928 L1693.3952,285.9281 A0.5001,0.5001 0 0 0 1693.8949,286.4284 L1696.3873,286.4284 L1696.3873,289.4303 A0.5001,0.5001 0 0 0 1696.8876,289.9305 L1711.7606,289.977 A0.5001,0.5001 0 0 0 1712.2624,289.4773 L1712.2624,278.0693 A0.5001,0.5001 0 0 0 1711.7606,277.5691 M1711.2618,278.571 L1711.2618,288.975 L1697.3868,288.9321 L1697.3868,286.4284 L1699.8812,286.4284 A0.5001,0.5001 0 0 0 1700.381,285.9282 L1700.381,284.0399 A0.5001,0.5001 0 0 0 1699.8849,283.5397 L1697.3987,283.52 L1697.4225,282.4694 L1699.9278,282.4694 A0.5001,0.5001 0 0 0 1700.428,281.9692 L1700.428,280.0804 A0.5001,0.5001 0 0 0 1699.9319,279.5807 L1697.4339,279.561 L1697.4339,278.6138 M1694.4418,280.5378 L1699.4281,280.5766 L1699.4281,281.4695 L1694.4418,281.4695 M1694.3948,284.4967 L1699.3811,284.536 L1699.3811,285.4284 L1694.3948,285.4284" fill="#000000"/><text fill="#000000" font-family="Verdana" font-size="12" lengthAdjust="spacing" textLength="51.627" x="1626.1865" y="303.0687">deadline</text></g><!--entity goalStatus--><g class="entity" data-qualified-name="goalStatus" data-source-line="167" id="ent0029"><rect fill="#C2F0FF" height="52.9688" rx="0.5" ry="0.5" style="stroke:#181818;stroke-width:0.5;" width="140" x="1732" y="262.93"/><path d="M1861.76,277.569 L1846.934,277.616 A0.5001,0.5001 0 0 0 1846.4343,278.1157 L1846.4343,279.5533 L1843.9461,279.5337 A0.5001,0.5001 0 0 0 1843.4417,280.0339 L1843.4417,281.9692 A0.5001,0.5001 0 0 0 1843.942,282.4695 L1846.4225,282.4695 L1846.3987,283.5123 L1843.8991,283.4926 A0.5001,0.5001 0 0 0 1843.3952,283.9928 L1843.3952,285.9281 A0.5001,0.5001 0 0 0 1843.8949,286.4284 L1846.3873,286.4284 L1846.3873,289.4303 A0.5001,0.5001 0 0 0 1846.8876,289.9305 L1861.7606,289.977 A0.5001,0.5001 0 0 0 1862.2624,289.4773 L1862.2624,278.0693 A0.5001,0.5001 0 0 0 1861.7606,277.5691 M1861.2618,278.571 L1861.2618,288.975 L1847.3868,288.9321 L1847.3868,286.4284 L1849.8812,286.4284 A0.5001,0.5001 0 0 0 1850.381,285.9282 L1850.381,284.0399 A0.5001,0.5001 0 0 0 1849.8849,283.5397 L1847.3987,283.52 L1847.4225,282.4694 L1849.9278,282.4694 A0.5001,0.5001 0 0 0 1850.428,281.9692 L1850.428,280.0804 A0.5001,0.5001 0 0 0 1849.9319,279.5807 L1847.4339,279.561 L1847.4339,278.6138 M1844.4418,280.5378 L1849.4281,280.5766 L1849.4281,281.4695 L1844.4418,281.4695 M1844.3948,284.4967 L1849.3811,284.536 L1849.3811,285.4284 L1844.3948,285.4284" fill="#000000"/><text fill="#000000" font-family="Verdana" font-size="12" lengthAdjust="spacing" textLength="36.873" x="1783.5635" y="303.0687">status</text></g><!--entity goalCreatedDate--><g class="entity" data-qualified-name="goalCreatedDate" data-source-line="167" id="ent0030"><rect fill="#C2F0FF" height="52.9688" rx="0.5" ry="0.5" style="stroke:#181818;stroke-width:0.5;" width="140" x="1882" y="262.93"/><path d="M2011.76,277.569 L1996.934,277.616 A0.5001,0.5001 0 0 0 1996.4343,278.1157 L1996.4343,279.5533 L1993.9461,279.5337 A0.5001,0.5001 0 0 0 1993.4417,280.0339 L1993.4417,281.9692 A0.5001,0.5001 0 0 0 1993.942,282.4695 L1996.4225,282.4695 L1996.3987,283.5123 L1993.8991,283.4926 A0.5001,0.5001 0 0 0 1993.3952,283.9928 L1993.3952,285.9281 A0.5001,0.5001 0 0 0 1993.8949,286.4284 L1996.3873,286.4284 L1996.3873,289.4303 A0.5001,0.5001 0 0 0 1996.8876,289.9305 L2011.7606,289.977 A0.5001,0.5001 0 0 0 2012.2624,289.4773 L2012.2624,278.0693 A0.5001,0.5001 0 0 0 2011.7606,277.5691 M2011.2618,278.571 L2011.2618,288.975 L1997.3868,288.9321 L1997.3868,286.4284 L1999.8812,286.4284 A0.5001,0.5001 0 0 0 2000.381,285.9282 L2000.381,284.0399 A0.5001,0.5001 0 0 0 1999.8849,283.5397 L1997.3987,283.52 L1997.4225,282.4694 L1999.9278,282.4694 A0.5001,0.5001 0 0 0 2000.428,281.9692 L2000.428,280.0804 A0.5001,0.5001 0 0 0 1999.9319,279.5807 L1997.4339,279.561 L1997.4339,278.6138 M1994.4418,280.5378 L1999.4281,280.5766 L1999.4281,281.4695 L1994.4418,281.4695 M1994.3948,284.4967 L1999.3811,284.536 L1999.3811,285.4284 L1994.3948,285.4284" fill="#000000"/><text fill="#000000" font-family="Verdana" font-size="12" lengthAdjust="spacing" textLength="74.6543" x="1914.6729" y="303.0687">createdDate</text></g><!--entity goalUpdatedDate--><g class="entity" data-qualified-name="goalUpdatedDate" data-source-line="167" id="ent0031"><rect fill="#C2F0FF" height="52.9688" rx="0.5" ry="0.5" style="stroke:#181818;stroke-width:0.5;" width="140" x="2032" y="262.93"/><path d="M2161.76,277.569 L2146.934,277.616 A0.5001,0.5001 0 0 0 2146.4343,278.1157 L2146.4343,279.5533 L2143.9461,279.5337 A0.5001,0.5001 0 0 0 2143.4417,280.0339 L2143.4417,281.9692 A0.5001,0.5001 0 0 0 2143.942,282.4695 L2146.4225,282.4695 L2146.3987,283.5123 L2143.8991,283.4926 A0.5001,0.5001 0 0 0 2143.3952,283.9928 L2143.3952,285.9281 A0.5001,0.5001 0 0 0 2143.8949,286.4284 L2146.3873,286.4284 L2146.3873,289.4303 A0.5001,0.5001 0 0 0 2146.8876,289.9305 L2161.7606,289.977 A0.5001,0.5001 0 0 0 2162.2624,289.4773 L2162.2624,278.0693 A0.5001,0.5001 0 0 0 2161.7606,277.5691 M2161.2618,278.571 L2161.2618,288.975 L2147.3868,288.9321 L2147.3868,286.4284 L2149.8812,286.4284 A0.5001,0.5001 0 0 0 2150.381,285.9282 L2150.381,284.0399 A0.5001,0.5001 0 0 0 2149.8849,283.5397 L2147.3987,283.52 L2147.4225,282.4694 L2149.9278,282.4694 A0.5001,0.5001 0 0 0 2150.428,281.9692 L2150.428,280.0804 A0.5001,0.5001 0 0 0 2149.9319,279.5807 L2147.4339,279.561 L2147.4339,278.6138 M2144.4418,280.5378 L2149.4281,280.5766 L2149.4281,281.4695 L2144.4418,281.4695 M2144.3948,284.4967 L2149.3811,284.536 L2149.3811,285.4284 L2144.3948,285.4284" fill="#000000"/><text fill="#000000" font-family="Verdana" font-size="12" lengthAdjust="spacing" textLength="78.5801" x="2062.71" y="303.0687">updatedDate</text></g><!--entity milestones--><g class="entity" data-qualified-name="milestones" data-source-line="167" id="ent0032"><rect fill="#C2F0FF" height="52.9688" rx="0.5" ry="0.5" style="stroke:#181818;stroke-width:0.5;" width="140" x="2207" y="262.93"/><path d="M2336.76,277.569 L2321.934,277.616 A0.5001,0.5001 0 0 0 2321.4343,278.1157 L2321.4343,279.5533 L2318.9461,279.5337 A0.5001,0.5001 0 0 0 2318.4417,280.0339 L2318.4417,281.9692 A0.5001,0.5001 0 0 0 2318.942,282.4695 L2321.4225,282.4695 L2321.3987,283.5123 L2318.8991,283.4926 A0.5001,0.5001 0 0 0 2318.3952,283.9928 L2318.3952,285.9281 A0.5001,0.5001 0 0 0 2318.8949,286.4284 L2321.3873,286.4284 L2321.3873,289.4303 A0.5001,0.5001 0 0 0 2321.8876,289.9305 L2336.7606,289.977 A0.5001,0.5001 0 0 0 2337.2624,289.4773 L2337.2624,278.0693 A0.5001,0.5001 0 0 0 2336.7606,277.5691 M2336.2618,278.571 L2336.2618,288.975 L2322.3868,288.9321 L2322.3868,286.4284 L2324.8812,286.4284 A0.5001,0.5001 0 0 0 2325.381,285.9282 L2325.381,284.0399 A0.5001,0.5001 0 0 0 2324.8849,283.5397 L2322.3987,283.52 L2322.4225,282.4694 L2324.9278,282.4694 A0.5001,0.5001 0 0 0 2325.428,281.9692 L2325.428,280.0804 A0.5001,0.5001 0 0 0 2324.9319,279.5807 L2322.4339,279.561 L2322.4339,278.6138 M2319.4418,280.5378 L2324.4281,280.5766 L2324.4281,281.4695 L2319.4418,281.4695 M2319.3948,284.4967 L2324.3811,284.536 L2324.3811,285.4284 L2319.3948,285.4284" fill="#000000"/><text fill="#000000" font-family="Verdana" font-size="12" lengthAdjust="spacing" textLength="63.9434" x="2245.0283" y="303.0687">Milestones</text></g><!--entity milestoneId--><g class="entity" data-qualified-name="milestoneId" data-source-line="167" id="ent0033"><rect fill="#C2F0FF" height="52.9688" rx="0.5" ry="0.5" style="stroke:#181818;stroke-width:0.5;" width="140" x="1907" y="390.9"/><path d="M2036.76,405.539 L2021.934,405.586 A0.5001,0.5001 0 0 0 2021.4343,406.0857 L2021.4343,407.5233 L2018.9461,407.5037 A0.5001,0.5001 0 0 0 2018.4417,408.0039 L2018.4417,409.9392 A0.5001,0.5001 0 0 0 2018.942,410.4394 L2021.4225,410.4394 L2021.3987,411.4822 L2018.8991,411.4626 A0.5001,0.5001 0 0 0 2018.3952,411.9628 L2018.3952,413.8981 A0.5001,0.5001 0 0 0 2018.8949,414.3984 L2021.3873,414.3984 L2021.3873,417.4003 A0.5001,0.5001 0 0 0 2021.8876,417.9005 L2036.7606,417.947 A0.5001,0.5001 0 0 0 2037.2624,417.4473 L2037.2624,406.0393 A0.5001,0.5001 0 0 0 2036.7606,405.5391 M2036.2618,406.541 L2036.2618,416.945 L2022.3868,416.9021 L2022.3868,414.3984 L2024.8812,414.3984 A0.5001,0.5001 0 0 0 2025.381,413.8982 L2025.381,412.0099 A0.5001,0.5001 0 0 0 2024.8849,411.5096 L2022.3987,411.49 L2022.4225,410.4394 L2024.9278,410.4394 A0.5001,0.5001 0 0 0 2025.428,409.9392 L2025.428,408.0504 A0.5001,0.5001 0 0 0 2024.9319,407.5507 L2022.4339,407.531 L2022.4339,406.5838 M2019.4418,408.5078 L2024.4281,408.5466 L2024.4281,409.4395 L2019.4418,409.4395 M2019.3948,412.4667 L2024.3811,412.506 L2024.3811,413.3984 L2019.3948,413.3984" fill="#000000"/><text fill="#000000" font-family="Verdana" font-size="12" lengthAdjust="spacing" textLength="10.9512" x="1971.5244" y="431.0387">id</text></g><!--entity milestoneTitle--><g class="entity" data-qualified-name="milestoneTitle" data-source-line="167" id="ent0034"><rect fill="#C2F0FF" height="52.9688" rx="0.5" ry="0.5" style="stroke:#181818;stroke-width:0.5;" width="140" x="2057" y="390.9"/><path d="M2186.76,405.539 L2171.934,405.586 A0.5001,0.5001 0 0 0 2171.4343,406.0857 L2171.4343,407.5233 L2168.9461,407.5037 A0.5001,0.5001 0 0 0 2168.4417,408.0039 L2168.4417,409.9392 A0.5001,0.5001 0 0 0 2168.942,410.4394 L2171.4225,410.4394 L2171.3987,411.4822 L2168.8991,411.4626 A0.5001,0.5001 0 0 0 2168.3952,411.9628 L2168.3952,413.8981 A0.5001,0.5001 0 0 0 2168.8949,414.3984 L2171.3873,414.3984 L2171.3873,417.4003 A0.5001,0.5001 0 0 0 2171.8876,417.9005 L2186.7606,417.947 A0.5001,0.5001 0 0 0 2187.2624,417.4473 L2187.2624,406.0393 A0.5001,0.5001 0 0 0 2186.7606,405.5391 M2186.2618,406.541 L2186.2618,416.945 L2172.3868,416.9021 L2172.3868,414.3984 L2174.8812,414.3984 A0.5001,0.5001 0 0 0 2175.381,413.8982 L2175.381,412.0099 A0.5001,0.5001 0 0 0 2174.8849,411.5096 L2172.3987,411.49 L2172.4225,410.4394 L2174.9278,410.4394 A0.5001,0.5001 0 0 0 2175.428,409.9392 L2175.428,408.0504 A0.5001,0.5001 0 0 0 2174.9319,407.5507 L2172.4339,407.531 L2172.4339,406.5838 M2169.4418,408.5078 L2174.4281,408.5466 L2174.4281,409.4395 L2169.4418,409.4395 M2169.3948,412.4667 L2174.3811,412.506 L2174.3811,413.3984 L2169.3948,413.3984" fill="#000000"/><text fill="#000000" font-family="Verdana" font-size="12" lengthAdjust="spacing" textLength="23.4609" x="2115.2695" y="431.0387">title</text></g><!--entity milestoneDesc--><g class="entity" data-qualified-name="milestoneDesc" data-source-line="167" id="ent0035"><rect fill="#C2F0FF" height="52.9688" rx="0.5" ry="0.5" style="stroke:#181818;stroke-width:0.5;" width="140" x="2207" y="390.9"/><path d="M2336.76,405.539 L2321.934,405.586 A0.5001,0.5001 0 0 0 2321.4343,406.0857 L2321.4343,407.5233 L2318.9461,407.5037 A0.5001,0.5001 0 0 0 2318.4417,408.0039 L2318.4417,409.9392 A0.5001,0.5001 0 0 0 2318.942,410.4394 L2321.4225,410.4394 L2321.3987,411.4822 L2318.8991,411.4626 A0.5001,0.5001 0 0 0 2318.3952,411.9628 L2318.3952,413.8981 A0.5001,0.5001 0 0 0 2318.8949,414.3984 L2321.3873,414.3984 L2321.3873,417.4003 A0.5001,0.5001 0 0 0 2321.8876,417.9005 L2336.7606,417.947 A0.5001,0.5001 0 0 0 2337.2624,417.4473 L2337.2624,406.0393 A0.5001,0.5001 0 0 0 2336.7606,405.5391 M2336.2618,406.541 L2336.2618,416.945 L2322.3868,416.9021 L2322.3868,414.3984 L2324.8812,414.3984 A0.5001,0.5001 0 0 0 2325.381,413.8982 L2325.381,412.0099 A0.5001,0.5001 0 0 0 2324.8849,411.5096 L2322.3987,411.49 L2322.4225,410.4394 L2324.9278,410.4394 A0.5001,0.5001 0 0 0 2325.428,409.9392 L2325.428,408.0504 A0.5001,0.5001 0 0 0 2324.9319,407.5507 L2322.4339,407.531 L2322.4339,406.5838 M2319.4418,408.5078 L2324.4281,408.5466 L2324.4281,409.4395 L2319.4418,409.4395 M2319.3948,412.4667 L2324.3811,412.506 L2324.3811,413.3984 L2319.3948,413.3984" fill="#000000"/><text fill="#000000" font-family="Verdana" font-size="12" lengthAdjust="spacing" textLength="66.7207" x="2243.6396" y="431.0387">description</text></g><!--entity milestoneTarget--><g class="entity" data-qualified-name="milestoneTarget" data-source-line="167" id="ent0036"><rect fill="#C2F0FF" height="52.9688" rx="0.5" ry="0.5" style="stroke:#181818;stroke-width:0.5;" width="140" x="2357" y="390.9"/><path d="M2486.76,405.539 L2471.934,405.586 A0.5001,0.5001 0 0 0 2471.4343,406.0857 L2471.4343,407.5233 L2468.9461,407.5037 A0.5001,0.5001 0 0 0 2468.4417,408.0039 L2468.4417,409.9392 A0.5001,0.5001 0 0 0 2468.942,410.4394 L2471.4225,410.4394 L2471.3987,411.4822 L2468.8991,411.4626 A0.5001,0.5001 0 0 0 2468.3952,411.9628 L2468.3952,413.8981 A0.5001,0.5001 0 0 0 2468.8949,414.3984 L2471.3873,414.3984 L2471.3873,417.4003 A0.5001,0.5001 0 0 0 2471.8876,417.9005 L2486.7606,417.947 A0.5001,0.5001 0 0 0 2487.2624,417.4473 L2487.2624,406.0393 A0.5001,0.5001 0 0 0 2486.7606,405.5391 M2486.2618,406.541 L2486.2618,416.945 L2472.3868,416.9021 L2472.3868,414.3984 L2474.8812,414.3984 A0.5001,0.5001 0 0 0 2475.381,413.8982 L2475.381,412.0099 A0.5001,0.5001 0 0 0 2474.8849,411.5096 L2472.3987,411.49 L2472.4225,410.4394 L2474.9278,410.4394 A0.5001,0.5001 0 0 0 2475.428,409.9392 L2475.428,408.0504 A0.5001,0.5001 0 0 0 2474.9319,407.5507 L2472.4339,407.531 L2472.4339,406.5838 M2469.4418,408.5078 L2474.4281,408.5466 L2474.4281,409.4395 L2469.4418,409.4395 M2469.3948,412.4667 L2474.3811,412.506 L2474.3811,413.3984 L2469.3948,413.3984" fill="#000000"/><text fill="#000000" font-family="Verdana" font-size="12" lengthAdjust="spacing" textLength="70.582" x="2391.709" y="431.0387">targetValue</text></g><!--entity milestoneProgress--><g class="entity" data-qualified-name="milestoneProgress" data-source-line="167" id="ent0037"><rect fill="#C2F0FF" height="52.9688" rx="0.5" ry="0.5" style="stroke:#181818;stroke-width:0.5;" width="140" x="2507" y="390.9"/><path d="M2636.76,405.539 L2621.934,405.586 A0.5001,0.5001 0 0 0 2621.4343,406.0857 L2621.4343,407.5233 L2618.9461,407.5037 A0.5001,0.5001 0 0 0 2618.4417,408.0039 L2618.4417,409.9392 A0.5001,0.5001 0 0 0 2618.942,410.4394 L2621.4225,410.4394 L2621.3987,411.4822 L2618.8991,411.4626 A0.5001,0.5001 0 0 0 2618.3952,411.9628 L2618.3952,413.8981 A0.5001,0.5001 0 0 0 2618.8949,414.3984 L2621.3873,414.3984 L2621.3873,417.4003 A0.5001,0.5001 0 0 0 2621.8876,417.9005 L2636.7606,417.947 A0.5001,0.5001 0 0 0 2637.2624,417.4473 L2637.2624,406.0393 A0.5001,0.5001 0 0 0 2636.7606,405.5391 M2636.2618,406.541 L2636.2618,416.945 L2622.3868,416.9021 L2622.3868,414.3984 L2624.8812,414.3984 A0.5001,0.5001 0 0 0 2625.381,413.8982 L2625.381,412.0099 A0.5001,0.5001 0 0 0 2624.8849,411.5096 L2622.3987,411.49 L2622.4225,410.4394 L2624.9278,410.4394 A0.5001,0.5001 0 0 0 2625.428,409.9392 L2625.428,408.0504 A0.5001,0.5001 0 0 0 2624.9319,407.5507 L2622.4339,407.531 L2622.4339,406.5838 M2619.4418,408.5078 L2624.4281,408.5466 L2624.4281,409.4395 L2619.4418,409.4395 M2619.3948,412.4667 L2624.3811,412.506 L2624.3811,413.3984 L2619.3948,413.3984" fill="#000000"/><text fill="#000000" font-family="Verdana" font-size="12" lengthAdjust="spacing" textLength="95.7129" x="2529.1436" y="431.0387">currentProgress</text></g><!--entity milestoneOrder--><g class="entity" data-qualified-name="milestoneOrder" data-source-line="167" id="ent0038"><rect fill="#C2F0FF" height="52.9688" rx="0.5" ry="0.5" style="stroke:#181818;stroke-width:0.5;" width="140" x="2657" y="390.9"/><path d="M2786.76,405.539 L2771.934,405.586 A0.5001,0.5001 0 0 0 2771.4343,406.0857 L2771.4343,407.5233 L2768.9461,407.5037 A0.5001,0.5001 0 0 0 2768.4417,408.0039 L2768.4417,409.9392 A0.5001,0.5001 0 0 0 2768.942,410.4394 L2771.4225,410.4394 L2771.3987,411.4822 L2768.8991,411.4626 A0.5001,0.5001 0 0 0 2768.3952,411.9628 L2768.3952,413.8981 A0.5001,0.5001 0 0 0 2768.8949,414.3984 L2771.3873,414.3984 L2771.3873,417.4003 A0.5001,0.5001 0 0 0 2771.8876,417.9005 L2786.7606,417.947 A0.5001,0.5001 0 0 0 2787.2624,417.4473 L2787.2624,406.0393 A0.5001,0.5001 0 0 0 2786.7606,405.5391 M2786.2618,406.541 L2786.2618,416.945 L2772.3868,416.9021 L2772.3868,414.3984 L2774.8812,414.3984 A0.5001,0.5001 0 0 0 2775.381,413.8982 L2775.381,412.0099 A0.5001,0.5001 0 0 0 2774.8849,411.5096 L2772.3987,411.49 L2772.4225,410.4394 L2774.9278,410.4394 A0.5001,0.5001 0 0 0 2775.428,409.9392 L2775.428,408.0504 A0.5001,0.5001 0 0 0 2774.9319,407.5507 L2772.4339,407.531 L2772.4339,406.5838 M2769.4418,408.5078 L2774.4281,408.5466 L2774.4281,409.4395 L2769.4418,409.4395 M2769.3948,412.4667 L2774.3811,412.506 L2774.3811,413.3984 L2769.3948,413.3984" fill="#000000"/><text fill="#000000" font-family="Verdana" font-size="12" lengthAdjust="spacing" textLength="92.1387" x="2680.9307" y="431.0387">sequenceOrder</text></g><!--entity milestoneCompleted--><g class="entity" data-qualified-name="milestoneCompleted" data-source-line="167" id="ent0039"><rect fill="#C2F0FF" height="52.9688" rx="0.5" ry="0.5" style="stroke:#181818;stroke-width:0.5;" width="140" x="2807" y="390.9"/><path d="M2936.76,405.539 L2921.934,405.586 A0.5001,0.5001 0 0 0 2921.4343,406.0857 L2921.4343,407.5233 L2918.9461,407.5037 A0.5001,0.5001 0 0 0 2918.4417,408.0039 L2918.4417,409.9392 A0.5001,0.5001 0 0 0 2918.942,410.4394 L2921.4225,410.4394 L2921.3987,411.4822 L2918.8991,411.4626 A0.5001,0.5001 0 0 0 2918.3952,411.9628 L2918.3952,413.8981 A0.5001,0.5001 0 0 0 2918.8949,414.3984 L2921.3873,414.3984 L2921.3873,417.4003 A0.5001,0.5001 0 0 0 2921.8876,417.9005 L2936.7606,417.947 A0.5001,0.5001 0 0 0 2937.2624,417.4473 L2937.2624,406.0393 A0.5001,0.5001 0 0 0 2936.7606,405.5391 M2936.2618,406.541 L2936.2618,416.945 L2922.3868,416.9021 L2922.3868,414.3984 L2924.8812,414.3984 A0.5001,0.5001 0 0 0 2925.381,413.8982 L2925.381,412.0099 A0.5001,0.5001 0 0 0 2924.8849,411.5096 L2922.3987,411.49 L2922.4225,410.4394 L2924.9278,410.4394 A0.5001,0.5001 0 0 0 2925.428,409.9392 L2925.428,408.0504 A0.5001,0.5001 0 0 0 2924.9319,407.5507 L2922.4339,407.531 L2922.4339,406.5838 M2919.4418,408.5078 L2924.4281,408.5466 L2924.4281,409.4395 L2919.4418,409.4395 M2919.3948,412.4667 L2924.3811,412.506 L2924.3811,413.3984 L2919.3948,413.3984" fill="#000000"/><text fill="#000000" font-family="Verdana" font-size="12" lengthAdjust="spacing" textLength="75.0352" x="2839.4824" y="431.0387">isCompleted</text></g><!--entity storageProvider--><g class="entity" data-qualified-name="storageProvider" data-source-line="167" id="ent0040"><rect fill="#C2F0FF" height="52.9688" rx="0.5" ry="0.5" style="stroke:#181818;stroke-width:0.5;" width="140" x="2957" y="262.93"/><path d="M3086.76,277.569 L3071.934,277.616 A0.5001,0.5001 0 0 0 3071.4343,278.1157 L3071.4343,279.5533 L3068.9461,279.5337 A0.5001,0.5001 0 0 0 3068.4417,280.0339 L3068.4417,281.9692 A0.5001,0.5001 0 0 0 3068.942,282.4695 L3071.4225,282.4695 L3071.3987,283.5123 L3068.8991,283.4926 A0.5001,0.5001 0 0 0 3068.3952,283.9928 L3068.3952,285.9281 A0.5001,0.5001 0 0 0 3068.8949,286.4284 L3071.3873,286.4284 L3071.3873,289.4303 A0.5001,0.5001 0 0 0 3071.8876,289.9305 L3086.7606,289.977 A0.5001,0.5001 0 0 0 3087.2624,289.4773 L3087.2624,278.0693 A0.5001,0.5001 0 0 0 3086.7606,277.5691 M3086.2618,278.571 L3086.2618,288.975 L3072.3868,288.9321 L3072.3868,286.4284 L3074.8812,286.4284 A0.5001,0.5001 0 0 0 3075.381,285.9282 L3075.381,284.0399 A0.5001,0.5001 0 0 0 3074.8849,283.5397 L3072.3987,283.52 L3072.4225,282.4694 L3074.9278,282.4694 A0.5001,0.5001 0 0 0 3075.428,281.9692 L3075.428,280.0804 A0.5001,0.5001 0 0 0 3074.9319,279.5807 L3072.4339,279.561 L3072.4339,278.6138 M3069.4418,280.5378 L3074.4281,280.5766 L3074.4281,281.4695 L3069.4418,281.4695 M3069.3948,284.4967 L3074.3811,284.536 L3074.3811,285.4284 L3069.3948,285.4284" fill="#000000"/><text fill="#000000" font-family="Verdana" font-size="12" lengthAdjust="spacing" textLength="96.832" x="2978.584" y="303.0687">StorageProvider</text></g><!--entity swiftData--><g class="entity" data-qualified-name="swiftData" data-source-line="167" id="ent0041"><rect fill="#C2F0FF" height="52.9688" rx="0.5" ry="0.5" style="stroke:#181818;stroke-width:0.5;" width="175.1797" x="2839.41" y="134.96"/><path d="M3004.3497,149.599 L2989.5237,149.646 A0.5001,0.5001 0 0 0 2989.024,150.1457 L2989.024,151.5833 L2986.5358,151.5637 A0.5001,0.5001 0 0 0 2986.0314,152.0639 L2986.0314,153.9992 A0.5001,0.5001 0 0 0 2986.5316,154.4994 L2989.0121,154.4994 L2988.9883,155.5422 L2986.4887,155.5226 A0.5001,0.5001 0 0 0 2985.9849,156.0228 L2985.9849,157.9581 A0.5001,0.5001 0 0 0 2986.4846,158.4584 L2988.977,158.4584 L2988.977,161.4603 A0.5001,0.5001 0 0 0 2989.4772,161.9605 L3004.3502,162.007 A0.5001,0.5001 0 0 0 3004.852,161.5073 L3004.852,150.0993 A0.5001,0.5001 0 0 0 3004.3503,149.5991 M3003.8515,150.601 L3003.8515,161.005 L2989.9765,160.9621 L2989.9765,158.4584 L2992.4709,158.4584 A0.5001,0.5001 0 0 0 2992.9706,157.9582 L2992.9706,156.0699 A0.5001,0.5001 0 0 0 2992.4745,155.5696 L2989.9883,155.55 L2990.0121,154.4994 L2992.5174,154.4994 A0.5001,0.5001 0 0 0 2993.0177,153.9992 L2993.0177,152.1104 A0.5001,0.5001 0 0 0 2992.5216,151.6107 L2990.0236,151.591 L2990.0236,150.6438 M2987.0315,152.5678 L2992.0178,152.6066 L2992.0178,153.4995 L2987.0315,153.4995 M2986.9845,156.5267 L2991.9708,156.566 L2991.9708,157.4584 L2986.9845,157.4584" fill="#000000"/><text fill="#000000" font-family="Verdana" font-size="12" lengthAdjust="spacing" textLength="155.1797" x="2849.41" y="175.0987">SwiftDataStorageProvider</text></g><!--reverse link core to habit--><g class="link" data-entity-1="ent0002" data-entity-2="ent0003" data-link-type="composition" data-source-line="349" id="lnk42"><path d="M1271.2539,65.2118 C1221.3539,86.8918 1161.55,112.86 1111.66,134.53" fill="none" id="core-backto-habit" style="stroke:#000000;stroke-width:1;"/><polygon fill="#000000" points="1282.26,60.43,1275.163,59.1522,1271.2539,65.2118,1278.3509,66.4896,1282.26,60.43" style="stroke:#000000;stroke-width:1;"/><text fill="#000000" font-family="Verdana" font-size="12" lengthAdjust="spacing" textLength="3.8145" x="1207" y="102.0987">&#160;</text></g><!--reverse link core to dailyNote--><g class="link" data-entity-1="ent0002" data-entity-2="ent0004" data-link-type="composition" data-source-line="349" id="lnk43"><path d="M1259.8983,54.1591 C1134.6283,84.5491 876.89,148.98 653,217.93 C609,231.48 560.26,248.52 521.79,262.46" fill="none" id="core-backto-dailyNote" style="stroke:#000000;stroke-width:1;"/><polygon fill="#000000" points="1271.56,51.33,1264.7861,48.8573,1259.8983,54.1591,1266.6722,56.6318,1271.56,51.33" style="stroke:#000000;stroke-width:1;"/><text fill="#000000" font-family="Verdana" font-size="12" lengthAdjust="spacing" textLength="3.8145" x="937" y="166.0887">&#160;</text></g><!--reverse link core to goals--><g class="link" data-entity-1="ent0002" data-entity-2="ent0005" data-link-type="aggregation" data-source-line="349" id="lnk44"><path d="M1424.1504,46.6587 C1584.0504,70.3487 1961.66,126.31 2121.64,150.02" fill="none" id="core-backto-goals" style="stroke:#000000;stroke-width:1;"/><polygon fill="none" points="1412.28,44.9,1417.629,49.7361,1424.1504,46.6587,1418.8014,41.8225,1412.28,44.9" style="stroke:#000000;stroke-width:1;"/><text fill="#000000" font-family="Verdana" font-size="12" lengthAdjust="spacing" textLength="3.8145" x="1794" y="102.0987">&#160;</text></g><!--reverse link core to persistencia--><g class="link" data-entity-1="ent0002" data-entity-2="ent0006" data-link-type="composition" data-source-line="349" id="lnk45"><path d="M1424.1061,36.4875 C1700.6961,43.5775 2704.44,73.07 3020,134.96 C3021.62,135.28 3023.25,135.63 3024.89,135.99" fill="none" id="core-backto-persistencia" style="stroke:#000000;stroke-width:1;"/><polygon fill="#000000" points="1412.11,36.18,1418.0055,40.3324,1424.1061,36.4875,1418.2105,32.3351,1412.11,36.18" style="stroke:#000000;stroke-width:1;"/><text fill="#000000" font-family="Verdana" font-size="12" lengthAdjust="spacing" textLength="3.8145" x="2782" y="102.0987">&#160;</text></g><!--reverse link habit to habitId--><g class="link" data-entity-1="ent0003" data-entity-2="ent0007" data-link-type="composition" data-source-line="349" id="lnk46"><path d="M1012.0912,195.9579 C986.2912,217.6279 958.79,240.72 932.93,262.44" fill="none" id="habit-backto-habitId" style="stroke:#000000;stroke-width:1;"/><polygon fill="#000000" points="1021.28,188.24,1014.113,189.036,1012.0912,195.9579,1019.2582,195.1619,1021.28,188.24" style="stroke:#000000;stroke-width:1;"/><text fill="#000000" font-family="Verdana" font-size="12" lengthAdjust="spacing" textLength="3.8145" x="983" y="230.0687">&#160;</text></g><!--reverse link habit to habitTitle--><g class="link" data-entity-1="ent0003" data-entity-2="ent0008" data-link-type="composition" data-source-line="349" id="lnk47"><path d="M1052,200.24 C1052,221.98 1052,240.93 1052,262.66" fill="none" id="habit-backto-habitTitle" style="stroke:#000000;stroke-width:1;"/><polygon fill="#000000" points="1052,188.24,1048,194.24,1052,200.24,1056,194.24,1052,188.24" style="stroke:#000000;stroke-width:1;"/><text fill="#000000" font-family="Verdana" font-size="12" lengthAdjust="spacing" textLength="3.8145" x="1053" y="230.0687">&#160;</text></g><!--reverse link habit to habitDesc--><g class="link" data-entity-1="ent0003" data-entity-2="ent0009" data-link-type="composition" data-source-line="349" id="lnk48"><path d="M1124.8641,193.046 C1176.4941,214.726 1238.68,240.83 1290.28,262.5" fill="none" id="habit-backto-habitDesc" style="stroke:#000000;stroke-width:1;"/><polygon fill="#000000" points="1113.8,188.4,1117.7834,194.411,1124.8641,193.046,1120.8807,187.0349,1113.8,188.4" style="stroke:#000000;stroke-width:1;"/><text fill="#000000" font-family="Verdana" font-size="12" lengthAdjust="spacing" textLength="3.8145" x="1212" y="230.0687">&#160;</text></g><!--reverse link habit to habitPriority--><g class="link" data-entity-1="ent0003" data-entity-2="ent0010" data-link-type="composition" data-source-line="349" id="lnk49"><path d="M1133.8274,182.7178 C1209.4674,201.7478 1321.55,230.93 1427,262.93 C1428.58,263.41 1430.17,263.9 1431.78,264.4" fill="none" id="habit-backto-habitPriority" style="stroke:#000000;stroke-width:1;"/><polygon fill="#000000" points="1122.19,179.79,1127.0327,185.133,1133.8274,182.7178,1128.9846,177.3748,1122.19,179.79" style="stroke:#000000;stroke-width:1;"/><text fill="#000000" font-family="Verdana" font-size="12" lengthAdjust="spacing" textLength="3.8145" x="1316" y="230.0687">&#160;</text></g><!--reverse link habit to habitCreatedDate--><g class="link" data-entity-1="ent0003" data-entity-2="ent0011" data-link-type="composition" data-source-line="349" id="lnk50"><path d="M1091.9088,195.9579 C1117.7088,217.6279 1145.21,240.72 1171.07,262.44" fill="none" id="habit-backto-habitCreatedDate" style="stroke:#000000;stroke-width:1;"/><polygon fill="#000000" points="1082.72,188.24,1084.7418,195.1619,1091.9088,195.9579,1089.887,189.036,1082.72,188.24" style="stroke:#000000;stroke-width:1;"/><text fill="#000000" font-family="Verdana" font-size="12" lengthAdjust="spacing" textLength="3.8145" x="1133" y="230.0687">&#160;</text></g><!--reverse link habit to habitIsCompleted--><g class="link" data-entity-1="ent0003" data-entity-2="ent0012" data-link-type="composition" data-source-line="349" id="lnk51"><path d="M970.1726,182.7178 C894.5326,201.7478 782.45,230.93 677,262.93 C675.42,263.41 673.83,263.9 672.22,264.4" fill="none" id="habit-backto-habitIsCompleted" style="stroke:#000000;stroke-width:1;"/><polygon fill="#000000" points="981.81,179.79,975.0154,177.3748,970.1726,182.7178,976.9673,185.133,981.81,179.79" style="stroke:#000000;stroke-width:1;"/><text fill="#000000" font-family="Verdana" font-size="12" lengthAdjust="spacing" textLength="3.8145" x="832" y="230.0687">&#160;</text></g><!--reverse link habit to habitCompletionDates--><g class="link" data-entity-1="ent0003" data-entity-2="ent0013" data-link-type="composition" data-source-line="349" id="lnk52"><path d="M979.1359,193.046 C927.5059,214.726 865.32,240.83 813.72,262.5" fill="none" id="habit-backto-habitCompletionDates" style="stroke:#000000;stroke-width:1;"/><polygon fill="#000000" points="990.2,188.4,983.1193,187.0349,979.1359,193.046,986.2166,194.411,990.2,188.4" style="stroke:#000000;stroke-width:1;"/><text fill="#000000" font-family="Verdana" font-size="12" lengthAdjust="spacing" textLength="3.8145" x="912" y="230.0687">&#160;</text></g><!--link priorityLow to habitPriority--><g class="link" data-entity-1="ent0014" data-entity-2="ent0010" data-link-type="extension" data-source-line="349" id="lnk53"><path d="M1382.72,188.24 C1408.52,209.91 1431.4267,229.1433 1457.2867,250.8633" fill="none" id="priorityLow-to-habitPriority" style="stroke:#000000;stroke-width:1;"/><polygon fill="none" points="1471.07,262.44,1461.1456,246.2689,1453.4278,255.4577,1471.07,262.44" style="stroke:#000000;stroke-width:1;"/><text fill="#000000" font-family="Verdana" font-size="12" lengthAdjust="spacing" textLength="3.8145" x="1433" y="230.0687">&#160;</text></g><!--link priorityMedium to habitPriority--><g class="link" data-entity-1="ent0015" data-entity-2="ent0010" data-link-type="extension" data-source-line="349" id="lnk54"><path d="M1502,188.24 C1502,209.98 1502,222.93 1502,244.66" fill="none" id="priorityMedium-to-habitPriority" style="stroke:#000000;stroke-width:1;"/><polygon fill="none" points="1502,262.66,1508,244.66,1496,244.66,1502,262.66" style="stroke:#000000;stroke-width:1;"/><text fill="#000000" font-family="Verdana" font-size="12" lengthAdjust="spacing" textLength="3.8145" x="1503" y="230.0687">&#160;</text></g><!--link priorityHigh to habitPriority--><g class="link" data-entity-1="ent0016" data-entity-2="ent0010" data-link-type="extension" data-source-line="349" id="lnk55"><path d="M1621.28,188.24 C1595.48,209.91 1572.5733,229.1433 1546.7133,250.8633" fill="none" id="priorityHigh-to-habitPriority" style="stroke:#000000;stroke-width:1;"/><polygon fill="none" points="1532.93,262.44,1550.5722,255.4577,1542.8544,246.2689,1532.93,262.44" style="stroke:#000000;stroke-width:1;"/><text fill="#000000" font-family="Verdana" font-size="12" lengthAdjust="spacing" textLength="3.8145" x="1583" y="230.0687">&#160;</text></g><!--reverse link dailyNote to noteId--><g class="link" data-entity-1="ent0004" data-entity-2="ent0017" data-link-type="composition" data-source-line="349" id="lnk56"><path d="M473.4976,326.5216 C486.4376,348.2616 498.73,368.9 511.66,390.62" fill="none" id="dailyNote-backto-noteId" style="stroke:#000000;stroke-width:1;"/><polygon fill="#000000" points="467.36,316.21,466.9916,323.4117,473.4976,326.5216,473.866,319.3199,467.36,316.21" style="stroke:#000000;stroke-width:1;"/><text fill="#000000" font-family="Verdana" font-size="12" lengthAdjust="spacing" textLength="3.8145" x="493" y="358.0387">&#160;</text></g><!--reverse link dailyNote to noteContent--><g class="link" data-entity-1="ent0004" data-entity-2="ent0018" data-link-type="composition" data-source-line="349" id="lnk57"><path d="M508.8204,322.2226 C547.5404,343.9026 592.01,368.8 630.71,390.47" fill="none" id="dailyNote-backto-noteContent" style="stroke:#000000;stroke-width:1;"/><polygon fill="#000000" points="498.35,316.36,501.631,322.7814,508.8204,322.2226,505.5394,315.8011,498.35,316.36" style="stroke:#000000;stroke-width:1;"/><text fill="#000000" font-family="Verdana" font-size="12" lengthAdjust="spacing" textLength="3.8145" x="573" y="358.0387">&#160;</text></g><!--reverse link dailyNote to noteDate--><g class="link" data-entity-1="ent0004" data-entity-2="ent0019" data-link-type="composition" data-source-line="349" id="lnk58"><path d="M533.6226,318.159 C633.5226,351.779 652.1,357.28 752,390.9 C753.56,391.43 755.15,391.96 756.74,392.5" fill="none" id="dailyNote-backto-noteDate" style="stroke:#000000;stroke-width:1;"/><polygon fill="#000000" points="522.26,314.3,526.655,320.017,533.6226,318.159,529.2276,312.442,522.26,314.3" style="stroke:#000000;stroke-width:1;"/><text fill="#000000" font-family="Verdana" font-size="12" lengthAdjust="spacing" textLength="3.8145" x="660" y="358.0387">&#160;</text></g><!--reverse link dailyNote to noteCreatedDate--><g class="link" data-entity-1="ent0004" data-entity-2="ent0020" data-link-type="composition" data-source-line="349" id="lnk59"><path d="M370.2779,317.6809 C309.4579,337.9909 230.59,364.39 152,390.9 C150.44,391.43 148.85,391.96 147.26,392.5" fill="none" id="dailyNote-backto-noteCreatedDate" style="stroke:#000000;stroke-width:1;"/><polygon fill="#000000" points="381.66,313.88,374.702,311.9864,370.2779,317.6809,377.2359,319.5745,381.66,313.88" style="stroke:#000000;stroke-width:1;"/><text fill="#000000" font-family="Verdana" font-size="12" lengthAdjust="spacing" textLength="3.8145" x="285" y="358.0387">&#160;</text></g><!--reverse link dailyNote to noteUpdatedDate--><g class="link" data-entity-1="ent0004" data-entity-2="ent0021" data-link-type="composition" data-source-line="349" id="lnk60"><path d="M395.1796,322.2226 C356.4596,343.9026 311.99,368.8 273.29,390.47" fill="none" id="dailyNote-backto-noteUpdatedDate" style="stroke:#000000;stroke-width:1;"/><polygon fill="#000000" points="405.65,316.36,398.4606,315.8011,395.1796,322.2226,402.369,322.7814,405.65,316.36" style="stroke:#000000;stroke-width:1;"/><text fill="#000000" font-family="Verdana" font-size="12" lengthAdjust="spacing" textLength="3.8145" x="348" y="358.0387">&#160;</text></g><!--reverse link dailyNote to noteHabitRef--><g class="link" data-entity-1="ent0004" data-entity-2="ent0022" data-link-type="composition" data-source-line="349" id="lnk61"><path d="M430.5024,326.5216 C417.5624,348.2616 405.27,368.9 392.34,390.62" fill="none" id="dailyNote-backto-noteHabitRef" style="stroke:#000000;stroke-width:1;"/><polygon fill="#000000" points="436.64,316.21,430.134,319.3199,430.5024,326.5216,437.0084,323.4117,436.64,316.21" style="stroke:#000000;stroke-width:1;"/><text fill="#000000" font-family="Verdana" font-size="12" lengthAdjust="spacing" textLength="3.8145" x="418" y="358.0387">&#160;</text></g><!--reverse link goals to goalId--><g class="link" data-entity-1="ent0005" data-entity-2="ent0023" data-link-type="composition" data-source-line="349" id="lnk62"><path d="M2250.986,194.0698 C2291.426,215.7498 2338.23,240.83 2378.66,262.5" fill="none" id="goals-backto-goalId" style="stroke:#000000;stroke-width:1;"/><polygon fill="#000000" points="2240.41,188.4,2243.8081,194.7603,2250.986,194.0698,2247.588,187.7096,2240.41,188.4" style="stroke:#000000;stroke-width:1;"/><text fill="#000000" font-family="Verdana" font-size="12" lengthAdjust="spacing" textLength="3.8145" x="2318" y="230.0687">&#160;</text></g><!--reverse link goals to goalTitle--><g class="link" data-entity-1="ent0005" data-entity-2="ent0024" data-link-type="composition" data-source-line="349" id="lnk63"><path d="M2273.6956,188.5781 C2336.5856,208.7681 2419.85,235.66 2502,262.93 C2503.57,263.45 2505.15,263.98 2506.75,264.51" fill="none" id="goals-backto-goalTitle" style="stroke:#000000;stroke-width:1;"/><polygon fill="#000000" points="2262.27,184.91,2266.7601,190.5526,2273.6956,188.5781,2269.2055,182.9355,2262.27,184.91" style="stroke:#000000;stroke-width:1;"/><text fill="#000000" font-family="Verdana" font-size="12" lengthAdjust="spacing" textLength="3.8145" x="2410" y="230.0687">&#160;</text></g><!--reverse link goals to goalDesc--><g class="link" data-entity-1="ent0005" data-entity-2="ent0025" data-link-type="composition" data-source-line="349" id="lnk64"><path d="M2274.1423,177.4831 C2364.9023,194.5931 2515.56,224.98 2652,262.93 C2653.59,263.37 2655.2,263.83 2656.81,264.3" fill="none" id="goals-backto-goalDesc" style="stroke:#000000;stroke-width:1;"/><polygon fill="#000000" points="2262.35,175.26,2267.5051,180.3023,2274.1423,177.4831,2268.9872,172.4408,2262.35,175.26" style="stroke:#000000;stroke-width:1;"/><text fill="#000000" font-family="Verdana" font-size="12" lengthAdjust="spacing" textLength="3.8145" x="2528" y="230.0687">&#160;</text></g><!--reverse link goals to goalTarget--><g class="link" data-entity-1="ent0005" data-entity-2="ent0026" data-link-type="composition" data-source-line="349" id="lnk65"><path d="M2274.2287,171.5448 C2388.5587,184.9248 2609.46,214.39 2802,262.93 C2803.6,263.34 2805.22,263.76 2806.84,264.19" fill="none" id="goals-backto-goalTarget" style="stroke:#000000;stroke-width:1;"/><polygon fill="#000000" points="2262.31,170.15,2267.8044,174.8203,2274.2287,171.5448,2268.7343,166.8745,2262.31,170.15" style="stroke:#000000;stroke-width:1;"/><text fill="#000000" font-family="Verdana" font-size="12" lengthAdjust="spacing" textLength="3.8145" x="2655" y="230.0687">&#160;</text></g><!--reverse link goals to goalProgress--><g class="link" data-entity-1="ent0005" data-entity-2="ent0027" data-link-type="composition" data-source-line="349" id="lnk66"><path d="M2193.5338,200.1345 C2194.7138,239.0345 2194.03,298.21 2177,315.9 C2131.07,363.61 1685.57,399.38 1510.31,411.71" fill="none" id="goals-backto-goalProgress" style="stroke:#000000;stroke-width:1;"/><polygon fill="#000000" points="2193.17,188.14,2189.3538,194.2585,2193.5338,200.1345,2197.3501,194.016,2193.17,188.14" style="stroke:#000000;stroke-width:1;"/><text fill="#000000" font-family="Verdana" font-size="12" lengthAdjust="spacing" textLength="3.8145" x="2193" y="294.0587">&#160;</text></g><!--reverse link goals to goalDeadline--><g class="link" data-entity-1="ent0005" data-entity-2="ent0028" data-link-type="composition" data-source-line="349" id="lnk67"><path d="M2109.8712,177.2284 C2018.2712,194.2184 1865.3,224.63 1727,262.93 C1725.41,263.37 1723.8,263.83 1722.19,264.3" fill="none" id="goals-backto-goalDeadline" style="stroke:#000000;stroke-width:1;"/><polygon fill="#000000" points="2121.67,175.04,2115.0411,172.2013,2109.8712,177.2284,2116.5001,180.0671,2121.67,175.04" style="stroke:#000000;stroke-width:1;"/><text fill="#000000" font-family="Verdana" font-size="12" lengthAdjust="spacing" textLength="3.8145" x="1906" y="230.0687">&#160;</text></g><!--reverse link goals to goalStatus--><g class="link" data-entity-1="ent0005" data-entity-2="ent0029" data-link-type="composition" data-source-line="349" id="lnk68"><path d="M2110.0531,188.1213 C2046.1331,208.2313 1960.83,235.32 1877,262.93 C1875.43,263.45 1873.85,263.97 1872.25,264.5" fill="none" id="goals-backto-goalStatus" style="stroke:#000000;stroke-width:1;"/><polygon fill="#000000" points="2121.5,184.52,2114.5761,182.505,2110.0531,188.1213,2116.977,190.1363,2121.5,184.52" style="stroke:#000000;stroke-width:1;"/><text fill="#000000" font-family="Verdana" font-size="12" lengthAdjust="spacing" textLength="3.8145" x="2017" y="230.0687">&#160;</text></g><!--reverse link goals to goalCreatedDate--><g class="link" data-entity-1="ent0005" data-entity-2="ent0030" data-link-type="composition" data-source-line="349" id="lnk69"><path d="M2131.935,193.9775 C2090.635,215.6575 2042.66,240.83 2001.37,262.5" fill="none" id="goals-backto-goalCreatedDate" style="stroke:#000000;stroke-width:1;"/><polygon fill="#000000" points="2142.56,188.4,2135.3883,187.6471,2131.935,193.9775,2139.1066,194.7304,2142.56,188.4" style="stroke:#000000;stroke-width:1;"/><text fill="#000000" font-family="Verdana" font-size="12" lengthAdjust="spacing" textLength="3.8145" x="2081" y="230.0687">&#160;</text></g><!--reverse link goals to goalUpdatedDate--><g class="link" data-entity-1="ent0005" data-entity-2="ent0031" data-link-type="composition" data-source-line="349" id="lnk70"><path d="M2166.5947,198.0045 C2151.0647,219.7445 2135.93,240.93 2120.41,262.66" fill="none" id="goals-backto-goalUpdatedDate" style="stroke:#000000;stroke-width:1;"/><polygon fill="#000000" points="2173.57,188.24,2166.8275,190.7972,2166.5947,198.0045,2173.3372,195.4473,2173.57,188.24" style="stroke:#000000;stroke-width:1;"/><text fill="#000000" font-family="Verdana" font-size="12" lengthAdjust="spacing" textLength="3.8145" x="2151" y="230.0687">&#160;</text></g><!--reverse link goals to milestones--><g class="link" data-entity-1="ent0005" data-entity-2="ent0032" data-link-type="aggregation" data-source-line="349" id="lnk71"><path d="M2216.1191,198.1893 C2230.7791,219.9293 2244.96,240.93 2259.62,262.66" fill="none" id="goals-backto-milestones" style="stroke:#000000;stroke-width:1;"/><polygon fill="none" points="2209.41,188.24,2209.4481,195.451,2216.1191,198.1893,2216.081,190.9783,2209.41,188.24" style="stroke:#000000;stroke-width:1;"/><text fill="#000000" font-family="Verdana" font-size="12" lengthAdjust="spacing" textLength="3.8145" x="2239" y="230.0687">&#160;</text></g><!--reverse link milestones to milestoneId--><g class="link" data-entity-1="ent0032" data-entity-2="ent0033" data-link-type="composition" data-source-line="349" id="lnk72"><path d="M2241.1373,324.4398 C2221.0773,343.2998 2204.99,357.88 2199,360.9 C2139.49,390.99 2116.36,373.47 2052,390.9 C2050.41,391.33 2048.8,391.78 2047.18,392.24" fill="none" id="milestones-backto-milestoneId" style="stroke:#000000;stroke-width:1;"/><polygon fill="#000000" points="2249.88,316.22,2242.7687,317.4156,2241.1373,324.4398,2248.2485,323.2441,2249.88,316.22" style="stroke:#000000;stroke-width:1;"/><text fill="#000000" font-family="Verdana" font-size="12" lengthAdjust="spacing" textLength="3.8145" x="2218" y="358.0387">&#160;</text></g><!--reverse link milestones to milestoneTitle--><g class="link" data-entity-1="ent0032" data-entity-2="ent0034" data-link-type="composition" data-source-line="349" id="lnk73"><path d="M2251.8208,325.9981 C2241.2108,340.1781 2234.11,347.85 2219,360.9 C2206.3,371.87 2191.15,381.99 2176.86,390.49" fill="none" id="milestones-backto-milestoneTitle" style="stroke:#000000;stroke-width:1;"/><polygon fill="#000000" points="2259.01,316.39,2252.2127,318.7977,2251.8208,325.9981,2258.6181,323.5904,2259.01,316.39" style="stroke:#000000;stroke-width:1;"/><text fill="#000000" font-family="Verdana" font-size="12" lengthAdjust="spacing" textLength="3.8145" x="2235" y="358.0387">&#160;</text></g><!--reverse link milestones to milestoneDesc--><g class="link" data-entity-1="ent0032" data-entity-2="ent0035" data-link-type="composition" data-source-line="349" id="lnk74"><path d="M2277,328.21 C2277,349.95 2277,368.9 2277,390.62" fill="none" id="milestones-backto-milestoneDesc" style="stroke:#000000;stroke-width:1;"/><polygon fill="#000000" points="2277,316.21,2273,322.21,2277,328.21,2281,322.21,2277,316.21" style="stroke:#000000;stroke-width:1;"/><text fill="#000000" font-family="Verdana" font-size="12" lengthAdjust="spacing" textLength="3.8145" x="2278" y="358.0387">&#160;</text></g><!--reverse link milestones to milestoneTarget--><g class="link" data-entity-1="ent0032" data-entity-2="ent0036" data-link-type="composition" data-source-line="349" id="lnk75"><path d="M2316.9088,323.9279 C2342.7088,345.5979 2370.21,368.69 2396.07,390.41" fill="none" id="milestones-backto-milestoneTarget" style="stroke:#000000;stroke-width:1;"/><polygon fill="#000000" points="2307.72,316.21,2309.7418,323.1319,2316.9088,323.9279,2314.887,317.006,2307.72,316.21" style="stroke:#000000;stroke-width:1;"/><text fill="#000000" font-family="Verdana" font-size="12" lengthAdjust="spacing" textLength="3.8145" x="2358" y="358.0387">&#160;</text></g><!--reverse link milestones to milestoneProgress--><g class="link" data-entity-1="ent0032" data-entity-2="ent0037" data-link-type="composition" data-source-line="349" id="lnk76"><path d="M2349.8641,321.006 C2401.4941,342.686 2463.68,368.8 2515.28,390.47" fill="none" id="milestones-backto-milestoneProgress" style="stroke:#000000;stroke-width:1;"/><polygon fill="#000000" points="2338.8,316.36,2342.7834,322.371,2349.8641,321.006,2345.8807,314.9949,2338.8,316.36" style="stroke:#000000;stroke-width:1;"/><text fill="#000000" font-family="Verdana" font-size="12" lengthAdjust="spacing" textLength="3.8145" x="2437" y="358.0387">&#160;</text></g><!--reverse link milestones to milestoneOrder--><g class="link" data-entity-1="ent0032" data-entity-2="ent0038" data-link-type="composition" data-source-line="349" id="lnk77"><path d="M2358.6901,317.9639 C2490.5301,356.7739 2520.16,352.09 2652,390.9 C2653.58,391.37 2655.18,391.85 2656.79,392.33" fill="none" id="milestones-backto-milestoneOrder" style="stroke:#000000;stroke-width:1;"/><polygon fill="#000000" points="2347.21,314.47,2351.7854,320.0437,2358.6901,317.9639,2354.1147,312.3903,2347.21,314.47" style="stroke:#000000;stroke-width:1;"/><text fill="#000000" font-family="Verdana" font-size="12" lengthAdjust="spacing" textLength="3.8145" x="2534" y="358.0387">&#160;</text></g><!--reverse link milestones to milestoneCompleted--><g class="link" data-entity-1="ent0032" data-entity-2="ent0039" data-link-type="composition" data-source-line="349" id="lnk78"><path d="M2358.7584,317.7386 C2440.8884,338.0886 2456.52,332.07 2540,345.9 C2656.56,365.21 2687.49,361.81 2802,390.9 C2803.6,391.31 2805.21,391.73 2806.84,392.17" fill="none" id="milestones-backto-milestoneCompleted" style="stroke:#000000;stroke-width:1;"/><polygon fill="#000000" points="2347.16,314.66,2351.933,320.0654,2358.7584,317.7386,2353.9854,312.3332,2347.16,314.66" style="stroke:#000000;stroke-width:1;"/><text fill="#000000" font-family="Verdana" font-size="12" lengthAdjust="spacing" textLength="3.8145" x="2642" y="358.0387">&#160;</text></g><!--reverse link persistencia to storageProvider--><g class="link" data-entity-1="ent0006" data-entity-2="ent0040" data-link-type="composition" data-source-line="349" id="lnk79"><path d="M3088.5582,200.051 C3085.6982,213.871 3083.44,219.09 3076,232.93 C3070.28,243.57 3062.15,253.88 3054.16,262.66" fill="none" id="persistencia-backto-storageProvider" style="stroke:#000000;stroke-width:1;"/><polygon fill="#000000" points="3090.99,188.3,3085.8571,193.3649,3088.5582,200.051,3093.6911,194.9861,3090.99,188.3" style="stroke:#000000;stroke-width:1;"/><text fill="#000000" font-family="Verdana" font-size="12" lengthAdjust="spacing" textLength="3.8145" x="3083" y="230.0687">&#160;</text></g><!--link swiftData to storageProvider--><g class="link" data-entity-1="ent0041" data-entity-2="ent0040" data-link-type="extension" data-source-line="349" id="lnk80"><path d="M2954.79,188.18 C2963.9,197.2 2973.78,207.66 2982,217.93 C2993.24,231.99 2994.8907,233.5341 3003.1507,247.3041" fill="none" id="swiftData-to-storageProvider" style="stroke:#000000;stroke-width:1;"/><polygon fill="none" points="3012.41,262.74,3008.296,244.2177,2998.0054,250.3906,3012.41,262.74" style="stroke:#000000;stroke-width:1;"/><text fill="#000000" font-family="Verdana" font-size="12" lengthAdjust="spacing" textLength="70.9922" x="2993" y="230.0687">implements</text></g><!--link swiftData to storageProvider--><g class="link" data-entity-1="ent0041" data-entity-2="ent0040" data-link-type="extension" data-source-line="349" id="lnk81"><path d="M2921.87,188.29 C2920.43,202.44 2921.04,219.72 2929,232.93 C2936.31,245.08 2932.1629,245.1124 2944.2229,252.8024" fill="none" id="swiftData-to-storageProvider-1" style="stroke:#000000;stroke-width:1;stroke-dasharray:1,3;"/><polygon fill="none" points="2959.4,262.48,2947.4488,247.7434,2940.997,257.8614,2959.4,262.48" style="stroke:#000000;stroke-width:1;"/><text fill="#000000" font-family="Verdana" font-size="12" lengthAdjust="spacing" textLength="49.4414" x="2930" y="230.0687">requires</text></g><!--link habit to dailyNote--><g class="link" data-entity-1="ent0003" data-entity-2="ent0004" data-source-line="349" id="lnk82"><path d="M981.88,171.88 C880.34,186.43 687.02,217.5 527,262.93 C525.41,263.38 531.4932,261.6209 529.8732,262.0909" fill="none" id="habit-to-dailyNote" style="stroke:#000000;stroke-width:1;"/><line style="stroke:#000000;stroke-width:1;" x1="522.19" x2="531.9481" y1="264.32" y2="265.6539"/><line style="stroke:#000000;stroke-width:1;" x1="522.19" x2="529.8732" y1="264.32" y2="262.0909"/><text fill="#000000" font-family="Verdana" font-size="12" lengthAdjust="spacing" textLength="21.5566" x="714" y="230.0687">can</text><text fill="#000000" font-family="Verdana" font-size="12" lengthAdjust="spacing" textLength="3.8145" x="735.5566" y="230.0687">&#160;</text><text fill="#000000" font-family="Verdana" font-size="12" lengthAdjust="spacing" textLength="38.3555" x="739.3711" y="230.0687">create</text></g><!--link habitIsCompleted to goalProgress--><g class="link" data-entity-1="ent0012" data-entity-2="ent0027" data-link-type="dependency" data-source-line="349" id="lnk83"><path d="M672.14,314.72 C673.77,315.13 675.39,315.53 677,315.9 C928.12,374.5 1226.2913,401.2763 1361.7613,411.1863" fill="none" id="habitIsCompleted-to-goalProgress" style="stroke:#000000;stroke-width:1;"/><polygon fill="#000000" points="1369.74,411.77,1361.9802,408.1943,1361.5424,414.1783,1369.74,411.77" style="stroke:#000000;stroke-width:1;"/><text fill="#000000" font-family="Verdana" font-size="12" lengthAdjust="spacing" textLength="46.7754" x="907" y="358.0387">triggers</text><text fill="#000000" font-family="Verdana" font-size="12" lengthAdjust="spacing" textLength="3.8145" x="953.7754" y="358.0387">&#160;</text><text fill="#000000" font-family="Verdana" font-size="12" lengthAdjust="spacing" textLength="42.2813" x="957.5898" y="358.0387">update</text></g><?plantuml-src dLTTZjiW47xFAMXUcafTjNslAgL9r8sqVqgsVQs8ORsesBY0TxKzG0_GU-mfzYOzIGVyXnq3SPy2-9jlO6PWlcXH82tGGMWjCaIOf8bc8f-f7omliCGPoWMXYXRem_lPAvOdl2GKVSGokMSPrlJTiXbzcirUeoj112eau5Y1EJf3Ao4f8fJ3edW2RZ5R5WLd2JPUlgz4LeYSvdgH0Eujcf_Z0zE0i7RpDuPo1Rj8D9Klpqg3dUhegVAGtHkMXWrOnb44C_vq9RJnksx6NdGgC5U0_69-lQY2IiMKfh113E0RPrgTPbyUpfBXYI2YTgkXusm9y37YzMn1jqnpSnnjViFGDLK9826tYMI5GOJnDv89oVGJs1JrC6omaXIgWgon3N3IpS9cMsKME0MmEN0tYtYhOF35k329IlehLVY_OGw5PIFU7CYNoVhpXNW4CYuU_JclaPUKi383S6O7KVmvI-y1VGy_uTfeYzD3cCEdM7aOp4haK8hQniQEWkWwSIIKCSiwES_6wcj17AkocmMjx2tPqJiJjdf89Tmk6WwWlRE1UnqBdi6SThKCSiBDiiHOfjGaHTi1L6WPvh-H8eKQjZLUIZY-RbOYsyA4izpcj1u6yNkDTMcSA3i8OgVNWB6QNWCPWqTVmzZiwxATTDbNdWhei37cM2sqmDCAeeLFg8hEnPJIQAt-epvQssj9g3GvfpzBSw_iF6xcVx83jz9jZXu7G2vnQaxqmAgDxVihtgsfHtQdePPC5zutusDZsDwESfmmKnfMfnZXCOErYainmrkhaqPMWDqum5KKDMYPGkHJx80Q8U5b6MY8KtJ3aAZUQISSHfovcAQM8x2wXYCeHob4aFrd8mBk2uCOyv4SyFP_jC0SWff3ZXwmgcZt1ONWS_QhIbnF2tZEw35fHC4qgqeQZDYSf1A6WN7AifKA8_4Rm3gr4CVwCpWaZMLyWE-tY3ZU4GYdI88XMtqtMqqmuj2116wDW_9V6fUgUUd3CETfZpbjctqOs7RvC2oQDmSxcZFt7QonlMO-gOKFdRjC_KO-ijDHS22LetX_KiVf0-aTDGWdUjIaQTsduWUlwQcDUiZTxrR73NlyeNFQyx49CnlBuErHjV6EdcWfGROmsGZ2tUPYkTfUNstsQBtPhpVeVFbvUuiMId21-CjpJktvLDD64MWU1ASlhJSaj1GA9OsaeCgILiY_l_yC7jobKW9EQ6K8ORBfHguaI72EAcqy7r3PrmWjaXBdHDJh2SuE9gJTXWog2iYjP6bA9SlJaJ_DWuT2LrY5Ae4zV_CF?></g></svg>