<?plantuml 1.2026.1beta2?><svg xmlns="http://www.w3.org/2000/svg" xmlns:xlink="http://www.w3.org/1999/xlink" contentStyleType="text/css" data-diagram-type="DESCRIPTION" height="765px" preserveAspectRatio="none" style="width:1303px;height:765px;background:#FEFEFE;" version="1.1" viewBox="0 0 1303 765" width="1303px" zoomAndPan="magnify"><title>Daily Notes - Diagrama de Casos de Uso</title><defs/><g><rect fill="#FEFEFE" height="765" style="stroke:none;stroke-width:1;" width="1303" x="0" y="0"/><g class="title" data-source-line="8"><text fill="#000000" font-family="Verdana" font-size="22" font-weight="bold" lengthAdjust="spacing" textLength="496.9014" x="398.8021" y="35.4209">Daily Notes - Diagrama de Casos de Uso</text></g><!--entity user--><g class="entity" data-qualified-name="user" data-source-line="12" id="ent0002"><ellipse cx="37.6021" cy="337.4794" fill="#E8F4F8" rx="8" ry="8" style="stroke:#0066CC;stroke-width:1;"/><path d="M37.6021,345.4794 L37.6021,372.4794 M24.6021,353.4794 L50.6021,353.4794 M37.6021,372.4794 L24.6021,387.4794 M37.6021,372.4794 L50.6021,387.4794" fill="none" style="stroke:#0066CC;stroke-width:1;"/><text fill="#000000" font-family="Verdana" font-size="14" lengthAdjust="spacing" textLength="53.2041" x="11" y="402.4745">Usuario</text></g><!--entity system--><g class="entity" data-qualified-name="system" data-source-line="13" id="ent0003"><ellipse cx="686.8848" cy="387.4794" fill="#E8F4F8" rx="8" ry="8" style="stroke:#0066CC;stroke-width:1;"/><path d="M686.8848,395.4794 L686.8848,422.4794 M673.8848,403.4794 L699.8848,403.4794 M686.8848,422.4794 L673.8848,437.4794 M686.8848,422.4794 L699.8848,437.4794" fill="none" style="stroke:#0066CC;stroke-width:1;"/><text fill="#000000" font-family="Verdana" font-size="14" lengthAdjust="spacing" textLength="56.3896" x="658.69" y="452.4745">Sistema</text></g><!--entity UC1--><g class="entity" data-qualified-name="UC1" data-source-line="15" id="ent0004"><ellipse cx="686.8857" cy="239.133" fill="#E8F4F8" rx="56.7657" ry="14.5236" style="stroke:#0066CC;stroke-width:1;"/><text fill="#000000" font-family="Verdana" font-size="14" lengthAdjust="spacing" textLength="76.0361" x="648.8676" y="243.7814">Crear Nota</text></g><!--entity UC2--><g class="entity" data-qualified-name="UC2" data-source-line="16" id="ent0005"><ellipse cx="686.8867" cy="680.133" fill="#E8F4F8" rx="51.6467" ry="14.5236" style="stroke:#0066CC;stroke-width:1;"/><text fill="#000000" font-family="Verdana" font-size="14" lengthAdjust="spacing" textLength="68.7969" x="652.4883" y="684.7814">Ver Notas</text></g><!--entity UC3--><g class="entity" data-qualified-name="UC3" data-source-line="17" id="ent0006"><ellipse cx="471.8235" cy="72.133" fill="#E8F4F8" rx="58.8635" ry="14.5236" style="stroke:#0066CC;stroke-width:1;"/><text fill="#000000" font-family="Verdana" font-size="14" lengthAdjust="spacing" textLength="79.0029" x="432.322" y="76.7814">Editar Nota</text></g><!--entity UC4--><g class="entity" data-qualified-name="UC4" data-source-line="18" id="ent0007"><ellipse cx="237.0779" cy="158.1289" fill="#E8F4F8" rx="65.5479" ry="15.5096" style="stroke:#0066CC;stroke-width:1;"/><text fill="#000000" font-family="Verdana" font-size="14" lengthAdjust="spacing" textLength="94.917" x="189.6194" y="162.7774">Eliminar Nota</text></g><!--entity UC5--><g class="entity" data-qualified-name="UC5" data-source-line="19" id="ent0008"><ellipse cx="471.8238" cy="503.1281" fill="#E8F4F8" rx="64.6938" ry="15.3388" style="stroke:#0066CC;stroke-width:1;"/><text fill="#000000" font-family="Verdana" font-size="14" lengthAdjust="spacing" textLength="92.6543" x="425.4967" y="507.7766">Buscar Notas</text></g><!--entity UC6--><g class="entity" data-qualified-name="UC6" data-source-line="20" id="ent0009"><ellipse cx="237.0753" cy="333.1264" fill="#E8F4F8" rx="91.9353" ry="20.7871" style="stroke:#0066CC;stroke-width:1;"/><text fill="#000000" font-family="Verdana" font-size="14" lengthAdjust="spacing" textLength="158.1084" x="158.0211" y="337.7749">Vincular Nota a H&#225;bito</text></g><!--entity UC7--><g class="entity" data-qualified-name="UC7" data-source-line="21" id="ent0010"><ellipse cx="237.0771" cy="592.1248" fill="#E8F4F8" rx="111.8771" ry="24.7754" style="stroke:#0066CC;stroke-width:1;"/><text fill="#000000" font-family="Verdana" font-size="14" lengthAdjust="spacing" textLength="201.9336" x="136.1103" y="596.7732">Ver Nota en Contexto H&#225;bito</text></g><!--entity UC8--><g class="entity" data-qualified-name="UC8" data-source-line="22" id="ent0011"><ellipse cx="471.8202" cy="547.1314" fill="#E8F4F8" rx="92.8602" ry="20.972" style="stroke:#0066CC;stroke-width:1;"/><text fill="#000000" font-family="Verdana" font-size="14" lengthAdjust="spacing" textLength="160.1865" x="391.7269" y="551.7799">Filtrar Notas por Fecha</text></g><!--entity UC9--><g class="entity" data-qualified-name="UC9" data-source-line="23" id="ent0012"><ellipse cx="994.3162" cy="186.1246" fill="#E8F4F8" rx="90.2262" ry="20.4452" style="stroke:#0066CC;stroke-width:1;"/><text fill="#000000" font-family="Verdana" font-size="14" lengthAdjust="spacing" textLength="154.2529" x="917.1898" y="190.7731">Guardar en Core Data</text></g><!--entity UC10--><g class="entity" data-qualified-name="UC10" data-source-line="24" id="ent0013"><ellipse cx="994.3169" cy="551.1328" fill="#E8F4F8" rx="64.5169" ry="15.3034" style="stroke:#0066CC;stroke-width:1;"/><text fill="#000000" font-family="Verdana" font-size="14" lengthAdjust="spacing" textLength="92.1826" x="948.2256" y="555.7812">Cargar Notas</text></g><g class="entity" data-qualified-name="GMN32" data-source-line="51" id="ent0033"><path d="M594.68,288.4294 L594.68,315.6094 L328.16,329.7094 L594.68,323.6094 L594.68,343.8278 A0,0 0 0 0 594.68,343.8278 L779.0941,343.8278 A0,0 0 0 0 779.0941,343.8278 L779.0941,298.4294 L769.0941,288.4294 L594.68,288.4294 A0,0 0 0 0 594.68,288.4294" fill="#FFFFFF" style="stroke:#000000;stroke-width:1;"/><path d="M769.0941,288.4294 L769.0941,298.4294 L779.0941,298.4294 L769.0941,288.4294" fill="#FFFFFF" style="stroke:#000000;stroke-width:1;"/><text fill="#000000" font-family="Verdana" font-size="13" lengthAdjust="spacing" textLength="163.4141" x="600.68" y="305.4963">Permite asociar una nota</text><text fill="#000000" font-family="Verdana" font-size="13" lengthAdjust="spacing" textLength="158.4058" x="600.68" y="320.6291">con un h&#225;bito espec&#237;fico</text><text fill="#000000" font-family="Verdana" font-size="13" lengthAdjust="spacing" textLength="111.2109" x="600.68" y="335.7619">mediante habitId</text></g><g class="entity" data-qualified-name="GMN35" data-source-line="57" id="ent0036"><path d="M1145.55,158.4294 L1145.55,182.1294 L1084.77,186.1294 L1145.55,190.1294 L1145.55,213.8278 A0,0 0 0 0 1145.55,213.8278 L1296.5056,213.8278 A0,0 0 0 0 1296.5056,213.8278 L1296.5056,168.4294 L1286.5056,158.4294 L1145.55,158.4294 A0,0 0 0 0 1145.55,158.4294" fill="#FFFFFF" style="stroke:#000000;stroke-width:1;"/><path d="M1286.5056,158.4294 L1286.5056,168.4294 L1296.5056,168.4294 L1286.5056,158.4294" fill="#FFFFFF" style="stroke:#000000;stroke-width:1;"/><text fill="#000000" font-family="Verdana" font-size="13" lengthAdjust="spacing" textLength="129.9556" x="1151.55" y="175.4963">Persistencia usando</text><text fill="#000000" font-family="Verdana" font-size="13" lengthAdjust="spacing" textLength="93.0186" x="1151.55" y="190.6291">Core Data con</text><text fill="#000000" font-family="Verdana" font-size="13" lengthAdjust="spacing" textLength="106.8311" x="1151.55" y="205.7619">DailyNote Model</text></g><!--link user to UC1--><g class="link" data-entity-1="ent0002" data-entity-2="ent0004" data-link-type="dependency" data-source-line="27" id="lnk14"><path d="M64.4,339.1694 C80.37,323.6494 102.18,305.4394 125.2,295.1294 C298.4,217.5494 525.1097,224.913 627.6497,233.253" fill="none" id="user-to-UC1" style="stroke:#000000;stroke-width:1;"/><polygon fill="#000000" points="633.63,233.7394,624.9839,229.0229,628.6465,233.334,624.3354,236.9966,633.63,233.7394" style="stroke:#000000;stroke-width:1;"/></g><!--link user to UC2--><g class="link" data-entity-1="ent0002" data-entity-2="ent0005" data-link-type="dependency" data-source-line="28" id="lnk15"><path d="M38.63,405.8894 C40.99,465.5194 55.09,578.6394 125.2,634.1294 C282.78,758.8394 543.3954,714.156 641.9254,691.286" fill="none" id="user-to-UC2" style="stroke:#000000;stroke-width:1;"/><polygon fill="#000000" points="647.77,689.9294,638.0987,688.0679,642.8995,691.0599,639.9075,695.8607,647.77,689.9294" style="stroke:#000000;stroke-width:1;"/></g><!--link user to UC3--><g class="link" data-entity-1="ent0002" data-entity-2="ent0006" data-link-type="dependency" data-source-line="29" id="lnk16"><path d="M39.63,328.0794 C43.47,272.3294 59.65,171.5394 125.2,125.1294 C212.77,63.1394 338.1836,61.0757 411.1536,65.9957" fill="none" id="user-to-UC3" style="stroke:#000000;stroke-width:1;"/><polygon fill="#000000" points="417.14,66.3994,408.4295,61.803,412.1513,66.063,407.8913,69.7849,417.14,66.3994" style="stroke:#000000;stroke-width:1;"/></g><!--link user to UC4--><g class="link" data-entity-1="ent0002" data-entity-2="ent0007" data-link-type="dependency" data-source-line="30" id="lnk17"><path d="M42.85,328.0294 C48.67,292.6194 62.34,241.2094 94.2,209.1294 C117.26,185.9194 145.7929,174.608 174.9229,167.678" fill="none" id="user-to-UC4" style="stroke:#000000;stroke-width:1;"/><polygon fill="#000000" points="180.76,166.2894,171.0786,164.4809,175.8958,167.4466,172.9301,172.2637,180.76,166.2894" style="stroke:#000000;stroke-width:1;"/></g><!--link user to UC5--><g class="link" data-entity-1="ent0002" data-entity-2="ent0008" data-link-type="dependency" data-source-line="31" id="lnk18"><path d="M64.67,375.3294 C137.67,398.3094 338.7765,461.5888 425.7765,488.9588" fill="none" id="user-to-UC5" style="stroke:#000000;stroke-width:1;"/><polygon fill="#000000" points="431.5,490.7594,424.1152,484.2429,426.7305,489.2589,421.7144,491.8741,431.5,490.7594" style="stroke:#000000;stroke-width:1;"/></g><!--link user to UC6--><g class="link" data-entity-1="ent0002" data-entity-2="ent0009" data-link-type="dependency" data-source-line="32" id="lnk19"><path d="M64.42,362.6894 C89.41,358.3894 122.557,352.6774 157.117,346.7274" fill="none" id="user-to-UC6" style="stroke:#000000;stroke-width:1;"/><polygon fill="#000000" points="163.03,345.7094,153.4818,343.2944,158.1025,346.5577,154.8392,351.1784,163.03,345.7094" style="stroke:#000000;stroke-width:1;"/></g><!--link user to UC7--><g class="link" data-entity-1="ent0002" data-entity-2="ent0010" data-link-type="dependency" data-source-line="33" id="lnk20"><path d="M43.53,406.1594 C49.81,441.3294 63.78,492.5294 94.2,526.1294 C113.44,547.3794 135.3466,560.0974 161.0066,570.3274" fill="none" id="user-to-UC7" style="stroke:#000000;stroke-width:1;"/><polygon fill="#000000" points="166.58,572.5494,159.7012,565.5008,161.9355,570.6977,156.7386,572.932,166.58,572.5494" style="stroke:#000000;stroke-width:1;"/></g><!--link user to UC8--><g class="link" data-entity-1="ent0002" data-entity-2="ent0011" data-link-type="dependency" data-source-line="34" id="lnk21"><path d="M61.48,406.2594 C76.71,428.8994 98.77,456.0194 125.2,472.1294 C202.93,519.5094 300.5631,536.6428 374.0031,543.1128" fill="none" id="user-to-UC8" style="stroke:#000000;stroke-width:1;"/><polygon fill="#000000" points="379.98,543.6394,371.3658,538.865,374.9993,543.2006,370.6637,546.8341,379.98,543.6394" style="stroke:#000000;stroke-width:1;"/></g><!--link UC1 to UC9--><g class="link" data-entity-1="ent0004" data-entity-2="ent0012" data-link-type="dependency" data-source-line="37" id="lnk22"><path d="M734.94,230.9694 C784.72,222.3294 857.9783,209.6149 915.5683,199.6249" fill="none" id="UC1-to-UC9" style="stroke:#000000;stroke-width:1;stroke-dasharray:7,7;"/><polygon fill="#000000" points="921.48,198.5994,911.9288,196.1965,916.5536,199.454,913.2961,204.0788,921.48,198.5994" style="stroke:#000000;stroke-width:1;"/><text fill="#000000" font-family="Verdana" font-size="13" lengthAdjust="spacing" textLength="63.0068" x="810.09" y="204.1963">&#171;include&#187;</text></g><!--link UC3 to UC9--><g class="link" data-entity-1="ent0006" data-entity-2="ent0012" data-link-type="dependency" data-source-line="38" id="lnk23"><path d="M530.18,74.4894 C609.17,79.0094 755.16,91.8994 874.09,128.1294 C904.7,137.4594 931.974,150.8374 955.304,163.7874" fill="none" id="UC3-to-UC9" style="stroke:#000000;stroke-width:1;stroke-dasharray:7,7;"/><polygon fill="#000000" points="960.55,166.6994,954.6223,158.8341,956.1783,164.2728,950.7397,165.8288,960.55,166.6994" style="stroke:#000000;stroke-width:1;"/><text fill="#000000" font-family="Verdana" font-size="13" lengthAdjust="spacing" textLength="63.0068" x="655.39" y="76.1963">&#171;include&#187;</text></g><!--link UC4 to UC9--><g class="link" data-entity-1="ent0007" data-entity-2="ent0012" data-link-type="dependency" data-source-line="39" id="lnk24"><path d="M302.15,160.5094 C437.13,165.5094 745.0041,176.927 898.9641,182.637" fill="none" id="UC4-to-UC9" style="stroke:#000000;stroke-width:1;stroke-dasharray:7,7;"/><polygon fill="#000000" points="904.96,182.8594,896.1144,178.5286,899.9634,182.6741,895.8179,186.5231,904.96,182.8594" style="stroke:#000000;stroke-width:1;"/><text fill="#000000" font-family="Verdana" font-size="13" lengthAdjust="spacing" textLength="63.0068" x="655.39" y="168.1963">&#171;include&#187;</text></g><!--link UC2 to UC10--><g class="link" data-entity-1="ent0005" data-entity-2="ent0013" data-link-type="dependency" data-source-line="40" id="lnk25"><path d="M735.5,674.8394 C774.17,669.2794 829.43,658.4094 874.09,638.1294 C914.92,619.5994 951.1962,589.7697 972.8762,570.1997" fill="none" id="UC2-to-UC10" style="stroke:#000000;stroke-width:1;stroke-dasharray:7,7;"/><polygon fill="#000000" points="977.33,566.1794,967.969,569.2407,973.6185,569.5297,973.3295,575.1791,977.33,566.1794" style="stroke:#000000;stroke-width:1;"/><text fill="#000000" font-family="Verdana" font-size="13" lengthAdjust="spacing" textLength="63.0068" x="810.09" y="634.1963">&#171;include&#187;</text></g><!--link UC5 to UC10--><g class="link" data-entity-1="ent0008" data-entity-2="ent0013" data-link-type="dependency" data-source-line="41" id="lnk26"><path d="M532.64,508.6494 C611.06,515.8794 752.87,528.9494 874.09,540.1294 C893.45,541.9194 908.5953,543.3194 927.6053,545.0694" fill="none" id="UC5-to-UC10" style="stroke:#000000;stroke-width:1;stroke-dasharray:7,7;"/><polygon fill="#000000" points="933.58,545.6194,924.9846,540.8112,928.6011,545.161,924.2512,548.7775,933.58,545.6194" style="stroke:#000000;stroke-width:1;"/><text fill="#000000" font-family="Verdana" font-size="13" lengthAdjust="spacing" textLength="63.0068" x="655.39" y="510.1963">&#171;include&#187;</text></g><!--link UC8 to UC10--><g class="link" data-entity-1="ent0011" data-entity-2="ent0013" data-link-type="dependency" data-source-line="42" id="lnk27"><path d="M542.15,561.1894 C559.25,564.0694 577.57,566.6694 594.68,568.1294 C715.98,578.5094 852.6455,567.2812 930.1555,558.8112" fill="none" id="UC8-to-UC10" style="stroke:#000000;stroke-width:1;stroke-dasharray:7,7;"/><polygon fill="#000000" points="936.12,558.1594,926.7387,555.1607,931.1496,558.7025,927.6078,563.1134,936.12,558.1594" style="stroke:#000000;stroke-width:1;"/><text fill="#000000" font-family="Verdana" font-size="13" lengthAdjust="spacing" textLength="63.0068" x="655.39" y="564.1963">&#171;include&#187;</text></g><!--link UC6 to UC1--><g class="link" data-entity-1="ent0009" data-entity-2="ent0004" data-link-type="dependency" data-source-line="44" id="lnk28"><path d="M317.93,322.9694 C384.46,313.7194 481.44,298.4194 564.68,278.1294 C594.96,270.7494 622.9876,261.6537 647.1576,253.1837" fill="none" id="UC6-to-UC1" style="stroke:#000000;stroke-width:1;stroke-dasharray:7,7;"/><polygon fill="#000000" points="652.82,251.1994,643.0036,250.4009,648.1013,252.853,645.6493,257.9507,652.82,251.1994" style="stroke:#000000;stroke-width:1;"/><text fill="#000000" font-family="Verdana" font-size="13" lengthAdjust="spacing" textLength="61.1851" x="441.32" y="274.1963">&#171;extend&#187;</text></g><!--link UC7 to UC2--><g class="link" data-entity-1="ent0010" data-entity-2="ent0005" data-link-type="dependency" data-source-line="45" id="lnk29"><path d="M333.29,605.0594 C398.72,614.6294 487.4,628.9594 564.68,646.1294 C594.12,652.6794 621.2944,660.3109 645.3944,667.5609" fill="none" id="UC7-to-UC2" style="stroke:#000000;stroke-width:1;stroke-dasharray:7,7;"/><polygon fill="#000000" points="651.14,669.2894,643.6738,662.8663,646.352,667.849,641.3692,670.5271,651.14,669.2894" style="stroke:#000000;stroke-width:1;"/><text fill="#000000" font-family="Verdana" font-size="13" lengthAdjust="spacing" textLength="61.1851" x="441.32" y="607.1963">&#171;extend&#187;</text></g><!--link system to UC9--><g class="link" data-entity-1="ent0003" data-entity-2="ent0012" data-link-type="dependency" data-source-line="47" id="lnk30"><path d="M715.24,401.6394 C733.68,390.8794 758.34,375.8794 779.09,361.1294 C852.1,309.2494 927.9303,244.0484 966.1703,210.3184" fill="none" id="system-to-UC9" style="stroke:#000000;stroke-width:1;"/><polygon fill="#000000" points="970.67,206.3494,961.2745,209.3031,966.9203,209.6569,966.5665,215.3026,970.67,206.3494" style="stroke:#000000;stroke-width:1;"/></g><!--link system to UC10--><g class="link" data-entity-1="ent0003" data-entity-2="ent0013" data-link-type="dependency" data-source-line="48" id="lnk31"><path d="M715.34,424.9394 C752.23,435.8194 819.48,457.0694 874.09,482.1294 C909.3,498.2894 942.6423,518.4014 966.0823,533.3614" fill="none" id="system-to-UC10" style="stroke:#000000;stroke-width:1;"/><polygon fill="#000000" points="971.14,536.5894,965.7054,528.3756,966.9253,533.8994,961.4015,535.1192,971.14,536.5894" style="stroke:#000000;stroke-width:1;"/></g><?plantuml-src XPDBRXin38RtEWMRBhfoO3j-5e4NcTXj5os25kcUaMXRY2mPaWPeZjC3z1IvM2cDaigEZM8sGtq_7oB5Tt5BEuAzGMr5UDHsZnvty83oSUDTQrNZZFFmVhLCNwL06Ps_EPOjPwlHQlP6vhmYNoJz_cJID9Ma3IGnqFzZlGXFH1DHHqDmYzeymJSNAK0FRZLks0z14JGON4W_zy49OMWT8JhmUhEDeBGd6RMpGkHoMTEYrmumf9o-dFxG8H97uzFmb7w5A1N1VJD8nnUD9_GfFrvKR9ZPJ-f8gD5LHakbumc_KGUDtcbx0eyplcc3n1EH9rrIRMLh2WU4py-_7tHqjN1wK1sGXSRPIB-uFIVKiwnUQHFzIrROStDM9BS7rSspy1CtKh4mH_LfG8Tt6FIxlg7V_Bk4-03VoQ3aYV0Sop2IauTURv6yQcDO6rUrCQgDSMrCQcDQ6xEZx6Ne8atuydAHB_OHhg-vhwPLj5Y8DCHpP7IM30lX1XoZyNaqEuT46dXX6V7yoAhiD2rWU0X4zuZBlUU7vg0lXEKrAXlYrhbf07VaTvgFUPkavecr5e5ro4WwooPikpS35FOad_-ijNGCTwGqygk2BJBzeWJNa1pfRPfvboQanbjEmYk8LgKWhoyevM8xRtjQTlZg59dNc7y1?></g></svg>