<?plantuml 1.2026.1beta2?><svg xmlns="http://www.w3.org/2000/svg" xmlns:xlink="http://www.w3.org/1999/xlink" contentStyleType="text/css" data-diagram-type="DESCRIPTION" height="708px" preserveAspectRatio="none" style="width:1364px;height:708px;background:#FEFEFE;" version="1.1" viewBox="0 0 1364 708" width="1364px" zoomAndPan="magnify"><title>Goals - Diagrama de Casos de Uso</title><defs/><g><rect fill="#FEFEFE" height="708" style="stroke:none;stroke-width:1;" width="1364" x="0" y="0"/><g class="title" data-source-line="8"><text fill="#000000" font-family="Verdana" font-size="22" font-weight="bold" lengthAdjust="spacing" textLength="423.3066" x="466.2132" y="35.4209">Goals - Diagrama de Casos de Uso</text></g><!--entity user--><g class="entity" data-qualified-name="user" data-source-line="12" id="ent0002"><ellipse cx="873.1921" cy="65.6094" fill="#E8F4F8" rx="8" ry="8" style="stroke:#0066CC;stroke-width:1;"/><path d="M873.1921,73.6094 L873.1921,100.6094 M860.1921,81.6094 L886.1921,81.6094 M873.1921,100.6094 L860.1921,115.6094 M873.1921,100.6094 L886.1921,115.6094" fill="none" style="stroke:#0066CC;stroke-width:1;"/><text fill="#000000" font-family="Verdana" font-size="14" lengthAdjust="spacing" textLength="53.2041" x="846.59" y="130.6045">Usuario</text></g><!--entity system--><g class="entity" data-qualified-name="system" data-source-line="13" id="ent0003"><ellipse cx="39.1948" cy="203.9094" fill="#E8F4F8" rx="8" ry="8" style="stroke:#0066CC;stroke-width:1;"/><path d="M39.1948,211.9094 L39.1948,238.9094 M26.1948,219.9094 L52.1948,219.9094 M39.1948,238.9094 L26.1948,253.9094 M39.1948,238.9094 L52.1948,253.9094" fill="none" style="stroke:#0066CC;stroke-width:1;"/><text fill="#000000" font-family="Verdana" font-size="14" lengthAdjust="spacing" textLength="56.3896" x="11" y="268.9045">Sistema</text></g><!--entity UC1--><g class="entity" data-qualified-name="UC1" data-source-line="15" id="ent0004"><ellipse cx="696.1873" cy="402.5508" fill="#E8F4F8" rx="68.1073" ry="16.0215" style="stroke:#0066CC;stroke-width:1;"/><text fill="#000000" font-family="Verdana" font-size="14" lengthAdjust="spacing" textLength="101.5684" x="645.4031" y="407.1993">Crear Objetivo</text></g><!--entity UC2--><g class="entity" data-qualified-name="UC2" data-source-line="16" id="ent0005"><ellipse cx="821.1851" cy="319.7444" fill="#E8F4F8" rx="65.3251" ry="15.465" style="stroke:#0066CC;stroke-width:1;"/><text fill="#000000" font-family="Verdana" font-size="14" lengthAdjust="spacing" textLength="94.3291" x="774.0206" y="324.3928">Ver Objetivos</text></g><!--entity UC3--><g class="entity" data-qualified-name="UC3" data-source-line="17" id="ent0006"><ellipse cx="918.1909" cy="486.8335" fill="#E8F4F8" rx="69.2709" ry="16.2542" style="stroke:#0066CC;stroke-width:1;"/><text fill="#000000" font-family="Verdana" font-size="14" lengthAdjust="spacing" textLength="104.5352" x="865.9233" y="491.482">Editar Objetivo</text></g><!--entity UC4--><g class="entity" data-qualified-name="UC4" data-source-line="18" id="ent0007"><ellipse cx="1020.1913" cy="319.7516" fill="#E8F4F8" rx="75.7113" ry="17.5423" style="stroke:#0066CC;stroke-width:1;"/><text fill="#000000" font-family="Verdana" font-size="14" lengthAdjust="spacing" textLength="120.4492" x="959.9667" y="324.4001">Eliminar Objetivo</text></g><!--entity UC5--><g class="entity" data-qualified-name="UC5" data-source-line="19" id="ent0008"><ellipse cx="1180.1882" cy="486.827" fill="#E8F4F8" rx="83.0382" ry="19.0076" style="stroke:#0066CC;stroke-width:1;"/><text fill="#000000" font-family="Verdana" font-size="14" lengthAdjust="spacing" textLength="137.7852" x="1111.2956" y="491.4755">Marcar Completado</text></g><!--entity UC6--><g class="entity" data-qualified-name="UC6" data-source-line="20" id="ent0009"><ellipse cx="1287.1915" cy="552.5377" fill="#E8F4F8" rx="71.5415" ry="16.7083" style="stroke:#0066CC;stroke-width:1;"/><text fill="#000000" font-family="Verdana" font-size="14" lengthAdjust="spacing" textLength="110.2363" x="1232.0733" y="557.1861">Crear Milestone</text></g><!--entity UC7--><g class="entity" data-qualified-name="UC7" data-source-line="21" id="ent0010"><ellipse cx="269.1857" cy="552.5405" fill="#E8F4F8" rx="63.8057" ry="15.1611" style="stroke:#0066CC;stroke-width:1;"/><text fill="#000000" font-family="Verdana" font-size="14" lengthAdjust="spacing" textLength="90.2754" x="224.048" y="557.189">Ver Progreso</text></g><!--entity UC8--><g class="entity" data-qualified-name="UC8" data-source-line="22" id="ent0011"><ellipse cx="185.1871" cy="233.5588" fill="#E8F4F8" rx="82.7471" ry="18.9494" style="stroke:#0066CC;stroke-width:1;"/><text fill="#000000" font-family="Verdana" font-size="14" lengthAdjust="spacing" textLength="137.1084" x="116.6329" y="238.2072">Vincular con H&#225;bito</text></g><!--entity UC9--><g class="entity" data-qualified-name="UC9" data-source-line="23" id="ent0012"><ellipse cx="178.191" cy="402.5536" fill="#E8F4F8" rx="85.921" ry="19.5842" style="stroke:#0066CC;stroke-width:1;"/><text fill="#000000" font-family="Verdana" font-size="14" lengthAdjust="spacing" textLength="144.4434" x="105.9693" y="407.202">Sincronizar Progreso</text></g><!--entity UC10--><g class="entity" data-qualified-name="UC10" data-source-line="24" id="ent0013"><ellipse cx="839.1887" cy="673.9491" fill="#E8F4F8" rx="89.8487" ry="20.3697" style="stroke:#0066CC;stroke-width:1;"/><text fill="#000000" font-family="Verdana" font-size="14" lengthAdjust="spacing" textLength="153.3984" x="762.4895" y="678.5976">Persistir en Core Data</text></g><!--entity UC11--><g class="entity" data-qualified-name="UC11" data-source-line="25" id="ent0014"><ellipse cx="180.1926" cy="673.9479" fill="#E8F4F8" rx="75.8926" ry="17.5785" style="stroke:#0066CC;stroke-width:1;"/><text fill="#000000" font-family="Verdana" font-size="14" lengthAdjust="spacing" textLength="120.8867" x="119.7492" y="678.5963">Calcular M&#233;tricas</text></g><g class="entity" data-qualified-name="GMN37" data-source-line="57" id="ent0038"><path d="M303.11,205.8594 L303.11,229.5594 L268.08,233.5594 L303.11,237.5594 L303.11,261.2578 A0,0 0 0 0 303.11,261.2578 L479.2721,261.2578 A0,0 0 0 0 479.2721,261.2578 L479.2721,215.8594 L469.2721,205.8594 L303.11,205.8594 A0,0 0 0 0 303.11,205.8594" fill="#FFFFFF" style="stroke:#000000;stroke-width:1;"/><path d="M469.2721,205.8594 L469.2721,215.8594 L479.2721,215.8594 L469.2721,205.8594" fill="#FFFFFF" style="stroke:#000000;stroke-width:1;"/><text fill="#000000" font-family="Verdana" font-size="13" lengthAdjust="spacing" textLength="119.2598" x="309.11" y="222.9263">Asocia un objetivo</text><text fill="#000000" font-family="Verdana" font-size="13" lengthAdjust="spacing" textLength="155.1621" x="309.11" y="238.0591">con un h&#225;bito mediante</text><text fill="#000000" font-family="Verdana" font-size="13" lengthAdjust="spacing" textLength="45.2524" x="309.11" y="253.1919">habitId</text></g><g class="entity" data-qualified-name="GMN40" data-source-line="63" id="ent0041"><path d="M299.4,367.2894 L299.4,398.5494 L264.38,402.5494 L299.4,406.5494 L299.4,437.8206 A0,0 0 0 0 299.4,437.8206 L450.9967,437.8206 A0,0 0 0 0 450.9967,437.8206 L450.9967,377.2894 L440.9967,367.2894 L299.4,367.2894 A0,0 0 0 0 299.4,367.2894" fill="#FFFFFF" style="stroke:#000000;stroke-width:1;"/><path d="M440.9967,367.2894 L440.9967,377.2894 L450.9967,377.2894 L440.9967,367.2894" fill="#FFFFFF" style="stroke:#000000;stroke-width:1;"/><text fill="#000000" font-family="Verdana" font-size="13" lengthAdjust="spacing" textLength="129.2764" x="305.4" y="384.3563">Sincroniza contador</text><text fill="#000000" font-family="Verdana" font-size="13" lengthAdjust="spacing" textLength="128.0449" x="305.4" y="399.4891">de completados del</text><text fill="#000000" font-family="Verdana" font-size="13" lengthAdjust="spacing" textLength="130.5967" x="305.4" y="414.6219">h&#225;bito con progreso</text><text fill="#000000" font-family="Verdana" font-size="13" lengthAdjust="spacing" textLength="76.1655" x="305.4" y="429.7547">del objetivo</text></g><g class="entity" data-qualified-name="GMN43" data-source-line="70" id="ent0044"><path d="M290.59,646.2494 L290.59,669.9494 L256.57,673.9494 L290.59,677.9494 L290.59,701.6478 A0,0 0 0 0 290.59,701.6478 L445.7985,701.6478 A0,0 0 0 0 445.7985,701.6478 L445.7985,656.2494 L435.7985,646.2494 L290.59,646.2494 A0,0 0 0 0 290.59,646.2494" fill="#FFFFFF" style="stroke:#000000;stroke-width:1;"/><path d="M435.7985,646.2494 L435.7985,656.2494 L445.7985,656.2494 L435.7985,646.2494" fill="#FFFFFF" style="stroke:#000000;stroke-width:1;"/><text fill="#000000" font-family="Verdana" font-size="13" lengthAdjust="spacing" textLength="134.2085" x="296.59" y="663.3163">Calcula: % Progreso,</text><text fill="#000000" font-family="Verdana" font-size="13" lengthAdjust="spacing" textLength="101.6006" x="296.59" y="678.4491">D&#237;as Restantes,</text><text fill="#000000" font-family="Verdana" font-size="13" lengthAdjust="spacing" textLength="122.5542" x="296.59" y="693.5819">Verifica Milestones</text></g><!--link user to UC1--><g class="link" data-entity-1="ent0002" data-entity-2="ent0004" data-link-type="dependency" data-source-line="28" id="lnk15"><path d="M849.19,134.1694 C823.47,175.1594 781.81,242.6494 748.19,302.1994 C731.64,331.5294 716.4053,361.2288 706.5253,380.8788" fill="none" id="user-to-UC1" style="stroke:#000000;stroke-width:1;"/><polygon fill="#000000" points="703.83,386.2394,711.4466,379.9954,706.0761,381.7723,704.2992,376.4017,703.83,386.2394" style="stroke:#000000;stroke-width:1;"/></g><!--link user to UC2--><g class="link" data-entity-1="ent0002" data-entity-2="ent0005" data-link-type="dependency" data-source-line="29" id="lnk16"><path d="M864.31,134.2494 C852.62,184.2694 833.9845,264.0066 826.0045,298.1766" fill="none" id="user-to-UC2" style="stroke:#000000;stroke-width:1;"/><polygon fill="#000000" points="824.64,304.0194,830.582,296.1649,825.7771,299.1504,822.7916,294.3455,824.64,304.0194" style="stroke:#000000;stroke-width:1;"/></g><!--link user to UC3--><g class="link" data-entity-1="ent0002" data-entity-2="ent0006" data-link-type="dependency" data-source-line="30" id="lnk17"><path d="M879.06,134.1494 C880.49,143.8394 881.96,154.2494 883.19,163.9094 C898.28,281.5594 911.7076,417.9867 916.1576,464.4167" fill="none" id="user-to-UC3" style="stroke:#000000;stroke-width:1;"/><polygon fill="#000000" points="916.73,470.3894,919.8531,461.0488,916.253,465.4122,911.8896,461.8121,916.73,470.3894" style="stroke:#000000;stroke-width:1;"/></g><!--link user to UC4--><g class="link" data-entity-1="ent0002" data-entity-2="ent0007" data-link-type="dependency" data-source-line="31" id="lnk18"><path d="M900.19,118.8794 C913.88,131.2394 930.12,147.3794 942.19,163.9094 C975.76,209.8394 1000.0921,266.7625 1011.6721,296.3325" fill="none" id="user-to-UC4" style="stroke:#000000;stroke-width:1;"/><polygon fill="#000000" points="1013.86,301.9194,1014.3027,292.0805,1012.0368,297.2636,1006.8536,294.9977,1013.86,301.9194" style="stroke:#000000;stroke-width:1;"/></g><!--link user to UC5--><g class="link" data-entity-1="ent0002" data-entity-2="ent0008" data-link-type="dependency" data-source-line="32" id="lnk19"><path d="M900.12,111.7394 C949.99,141.8294 1056.79,213.1494 1113.19,302.1994 C1148.06,357.2494 1166.9608,427.163 1174.9108,461.613" fill="none" id="user-to-UC5" style="stroke:#000000;stroke-width:1;"/><polygon fill="#000000" points="1176.26,467.4594,1178.1338,457.7904,1175.1357,462.5874,1170.3387,459.5893,1176.26,467.4594" style="stroke:#000000;stroke-width:1;"/></g><!--link user to UC6--><g class="link" data-entity-1="ent0002" data-entity-2="ent0009" data-link-type="dependency" data-source-line="33" id="lnk20"><path d="M900.28,104.0394 C942.49,117.2094 1024.85,147.2294 1080.19,194.9094 C1191.02,290.3894 1203.13,334.8894 1264.19,467.8194 C1274.52,490.2794 1279.8996,512.4407 1283.2696,529.6907" fill="none" id="user-to-UC6" style="stroke:#000000;stroke-width:1;"/><polygon fill="#000000" points="1284.42,535.5794,1286.6201,525.9794,1283.4613,530.6721,1278.7686,527.5133,1284.42,535.5794" style="stroke:#000000;stroke-width:1;"/></g><!--link user to UC7--><g class="link" data-entity-1="ent0002" data-entity-2="ent0010" data-link-type="dependency" data-source-line="34" id="lnk21"><path d="M846.17,113.3194 C794.3,146.6394 678.19,223.9594 591.19,302.1994 C530.69,356.6194 531.64,386.8694 468.19,437.8194 C412.97,482.1694 343.7671,517.2921 303.4171,536.1221" fill="none" id="user-to-UC7" style="stroke:#000000;stroke-width:1;"/><polygon fill="#000000" points="297.98,538.6594,307.8272,538.4781,302.5109,536.5449,304.4441,531.2287,297.98,538.6594" style="stroke:#000000;stroke-width:1;"/></g><!--link user to UC8--><g class="link" data-entity-1="ent0002" data-entity-2="ent0011" data-link-type="dependency" data-source-line="35" id="lnk22"><path d="M846.13,98.9094 C761.9,107.5594 497.33,137.7594 285.19,194.9094 C264.24,200.5494 247.1192,206.6669 228.6592,214.0669" fill="none" id="user-to-UC8" style="stroke:#000000;stroke-width:1;"/><polygon fill="#000000" points="223.09,216.2994,232.9321,216.6634,227.731,214.439,229.9555,209.2378,223.09,216.2994" style="stroke:#000000;stroke-width:1;"/></g><!--link UC1 to UC10--><g class="link" data-entity-1="ent0004" data-entity-2="ent0013" data-link-type="dependency" data-source-line="38" id="lnk23"><path d="M690.98,418.7794 C681.5,449.2894 664.65,519.2694 690.19,569.2494 C711.63,611.2094 753.3954,637.0298 788.9654,653.3298" fill="none" id="UC1-to-UC10" style="stroke:#000000;stroke-width:1;stroke-dasharray:7,7;"/><polygon fill="#000000" points="794.42,655.8294,787.9045,648.4437,789.8745,653.7464,784.5718,655.7164,794.42,655.8294" style="stroke:#000000;stroke-width:1;"/><text fill="#000000" font-family="Verdana" font-size="13" lengthAdjust="spacing" textLength="63.0068" x="691.19" y="557.1063">&#171;include&#187;</text></g><!--link UC3 to UC10--><g class="link" data-entity-1="ent0006" data-entity-2="ent0013" data-link-type="dependency" data-source-line="39" id="lnk24"><path d="M911.6,503.2894 C897.28,536.8394 865.7549,610.7108 849.9449,647.7608" fill="none" id="UC3-to-UC10" style="stroke:#000000;stroke-width:1;stroke-dasharray:7,7;"/><polygon fill="#000000" points="847.59,653.2794,854.8014,646.5715,849.5524,648.6806,847.4433,643.4316,847.59,653.2794" style="stroke:#000000;stroke-width:1;"/><text fill="#000000" font-family="Verdana" font-size="13" lengthAdjust="spacing" textLength="63.0068" x="897.19" y="557.1063">&#171;include&#187;</text></g><!--link UC4 to UC10--><g class="link" data-entity-1="ent0007" data-entity-2="ent0013" data-link-type="dependency" data-source-line="40" id="lnk25"><path d="M1020.95,337.4994 C1022.04,380.0894 1019.75,494.4394 969.19,569.2494 C944.14,606.3294 906.8891,633.3897 877.3491,651.4497" fill="none" id="UC4-to-UC10" style="stroke:#000000;stroke-width:1;stroke-dasharray:7,7;"/><polygon fill="#000000" points="872.23,654.5794,881.9951,653.2976,876.4959,651.9713,877.8222,646.4721,872.23,654.5794" style="stroke:#000000;stroke-width:1;"/><text fill="#000000" font-family="Verdana" font-size="13" lengthAdjust="spacing" textLength="63.0068" x="1010.19" y="491.3963">&#171;include&#187;</text></g><!--link UC5 to UC10--><g class="link" data-entity-1="ent0008" data-entity-2="ent0013" data-link-type="dependency" data-source-line="41" id="lnk26"><path d="M1162.55,505.7894 C1128.04,540.8994 1054.85,615.2894 1053.19,616.2494 C1011.04,640.6694 964.0659,653.6963 921.4259,661.7463" fill="none" id="UC5-to-UC10" style="stroke:#000000;stroke-width:1;stroke-dasharray:7,7;"/><polygon fill="#000000" points="915.53,662.8594,925.1158,665.1203,920.4432,661.9318,923.6317,657.2592,915.53,662.8594" style="stroke:#000000;stroke-width:1;"/><text fill="#000000" font-family="Verdana" font-size="13" lengthAdjust="spacing" textLength="63.0068" x="1131.19" y="557.1063">&#171;include&#187;</text></g><!--link UC6 to UC10--><g class="link" data-entity-1="ent0009" data-entity-2="ent0013" data-link-type="dependency" data-source-line="42" id="lnk27"><path d="M1258.27,568.2294 C1229.31,582.3794 1183.15,603.4694 1141.19,616.2494 C1066.3,639.0594 983.9785,653.4928 922.2785,662.3928" fill="none" id="UC6-to-UC10" style="stroke:#000000;stroke-width:1;stroke-dasharray:7,7;"/><polygon fill="#000000" points="916.34,663.2494,925.8189,665.9235,921.2888,662.5355,924.6767,658.0054,916.34,663.2494" style="stroke:#000000;stroke-width:1;"/><text fill="#000000" font-family="Verdana" font-size="13" lengthAdjust="spacing" textLength="63.0068" x="1187.19" y="612.3163">&#171;include&#187;</text></g><!--link UC2 to UC10--><g class="link" data-entity-1="ent0005" data-entity-2="ent0013" data-link-type="dependency" data-source-line="44" id="lnk28"><path d="M817.16,335.4594 C810.8,357.9394 797.59,401.9994 782.19,437.8194 C776.23,451.6994 769.86,453.1594 766.19,467.8194 C762.1,484.2094 762.74,489.2994 766.19,505.8294 C777.98,562.2394 806.9062,617.7096 824.3862,648.0696" fill="none" id="UC2-to-UC10" style="stroke:#000000;stroke-width:1;stroke-dasharray:7,7;"/><polygon fill="#000000" points="827.38,653.2694,826.3558,643.4739,824.8852,648.9363,819.4228,647.4656,827.38,653.2694" style="stroke:#000000;stroke-width:1;"/><text fill="#000000" font-family="Verdana" font-size="13" lengthAdjust="spacing" textLength="63.0068" x="767.19" y="491.3963">&#171;include&#187;</text></g><!--link UC7 to UC10--><g class="link" data-entity-1="ent0010" data-entity-2="ent0013" data-link-type="dependency" data-source-line="45" id="lnk29"><path d="M304.97,565.4794 C347.35,579.2594 420.27,601.8794 484.19,616.2494 C578.73,637.4994 683.2218,653.0426 755.5018,662.6026" fill="none" id="UC7-to-UC10" style="stroke:#000000;stroke-width:1;stroke-dasharray:7,7;"/><polygon fill="#000000" points="761.45,663.3894,753.0522,658.2438,756.4932,662.7338,752.0032,666.1747,761.45,663.3894" style="stroke:#000000;stroke-width:1;"/><text fill="#000000" font-family="Verdana" font-size="13" lengthAdjust="spacing" textLength="63.0068" x="485.19" y="612.3163">&#171;include&#187;</text></g><!--link UC7 to UC11--><g class="link" data-entity-1="ent0010" data-entity-2="ent0014" data-link-type="dependency" data-source-line="46" id="lnk30"><path d="M258.64,567.7094 C242.06,589.9494 213.5946,628.1279 196.0346,651.6979" fill="none" id="UC7-to-UC11" style="stroke:#000000;stroke-width:1;stroke-dasharray:7,7;"/><polygon fill="#000000" points="192.45,656.5094,201.0346,651.6819,195.4372,652.4998,194.6193,646.9024,192.45,656.5094" style="stroke:#000000;stroke-width:1;"/><text fill="#000000" font-family="Verdana" font-size="13" lengthAdjust="spacing" textLength="63.0068" x="234.19" y="612.3163">&#171;include&#187;</text></g><!--link UC8 to UC1--><g class="link" data-entity-1="ent0011" data-entity-2="ent0004" data-link-type="dependency" data-source-line="48" id="lnk31"><path d="M221.51,250.8894 C240.18,258.5894 263.51,267.1794 285.19,272.1994 C421.77,303.8494 472.74,241.6894 599.19,302.1994 C609.58,307.1694 654.4193,355.594 678.5793,382.114" fill="none" id="UC8-to-UC1" style="stroke:#000000;stroke-width:1;stroke-dasharray:7,7;"/><polygon fill="#000000" points="682.62,386.5494,679.5159,377.2025,679.2528,382.8532,673.602,382.5901,682.62,386.5494" style="stroke:#000000;stroke-width:1;"/><text fill="#000000" font-family="Verdana" font-size="13" lengthAdjust="spacing" textLength="61.1851" x="637.19" y="324.3163">&#171;extend&#187;</text></g><!--link UC9 to UC7--><g class="link" data-entity-1="ent0012" data-entity-2="ent0010" data-link-type="dependency" data-source-line="49" id="lnk32"><path d="M189.72,422.2994 C208.18,452.3194 240.8378,505.418 257.3378,532.258" fill="none" id="UC9-to-UC7" style="stroke:#000000;stroke-width:1;stroke-dasharray:7,7;"/><polygon fill="#000000" points="260.48,537.3694,259.1742,527.6075,257.8615,533.1099,252.359,531.7971,260.48,537.3694" style="stroke:#000000;stroke-width:1;"/><text fill="#000000" font-family="Verdana" font-size="13" lengthAdjust="spacing" textLength="61.1851" x="241.19" y="491.3963">&#171;extend&#187;</text></g><!--link UC8 to UC9--><g class="link" data-entity-1="ent0011" data-entity-2="ent0012" data-link-type="dependency" data-source-line="50" id="lnk33"><path d="M184.43,252.7494 C183.1,284.6194 180.6017,344.2347 179.2417,376.6247" fill="none" id="UC8-to-UC9" style="stroke:#000000;stroke-width:1;stroke-dasharray:7,7;"/><polygon fill="#000000" points="178.99,382.6194,183.364,373.7951,179.1998,377.6238,175.3711,373.4595,178.99,382.6194" style="stroke:#000000;stroke-width:1;"/><text fill="#000000" font-family="Verdana" font-size="13" lengthAdjust="spacing" textLength="63.0068" x="184.19" y="324.3163">&#171;include&#187;</text></g><!--link system to UC10--><g class="link" data-entity-1="ent0003" data-entity-2="ent0013" data-link-type="dependency" data-source-line="52" id="lnk34"><path d="M67.88,261.6794 C73.31,265.7194 79.19,269.4494 85.19,272.1994 C155.34,304.3494 181.17,284.1794 256.19,302.1994 C352.03,325.2294 384.48,315.2594 468.19,367.2894 C597.43,447.5994 578.01,529.7594 703.19,616.2494 C728.66,633.8494 754.7923,645.4536 781.2223,654.9336" fill="none" id="system-to-UC10" style="stroke:#000000;stroke-width:1;"/><polygon fill="#000000" points="786.87,656.9594,779.749,650.1556,782.1636,655.2713,777.048,657.6859,786.87,656.9594" style="stroke:#000000;stroke-width:1;"/></g><!--link system to UC11--><g class="link" data-entity-1="ent0003" data-entity-2="ent0014" data-link-type="dependency" data-source-line="53" id="lnk35"><path d="M43.12,272.6694 C48.03,314.0094 57.96,381.6294 75.19,437.8194 C101.35,523.0894 147.6617,612.9685 168.0817,650.8285" fill="none" id="system-to-UC11" style="stroke:#000000;stroke-width:1;"/><polygon fill="#000000" points="170.93,656.1094,170.1782,646.2893,168.5565,651.7087,163.137,650.0869,170.93,656.1094" style="stroke:#000000;stroke-width:1;"/></g><!--link system to UC9--><g class="link" data-entity-1="ent0003" data-entity-2="ent0012" data-link-type="dependency" data-source-line="54" id="lnk36"><path d="M67.66,268.7494 C96.41,303.2994 135.9207,350.7685 158.8607,378.3185" fill="none" id="system-to-UC9" style="stroke:#000000;stroke-width:1;"/><polygon fill="#000000" points="162.7,382.9294,160.0149,373.4536,159.5006,379.087,153.8672,378.5727,162.7,382.9294" style="stroke:#000000;stroke-width:1;"/></g><?plantuml-src ZLHDRzim3BthLt0PXbsM8cdpMHG1DYVPTWXMjEZkYiqcMcKnaEHXsx_fSOVzYlonKRQJA4cD3RwOV8-FjFJeLtwDES96IsM4Ur9c8wtCOIdJfvMbmcG9QRBmUZuBJyIGgIVxuPGs6yrxyz4PZMo6jgPqEeD1aaIKmc4g7VvRQqTyGKruvJN2HvBQGHkcIgwuGaA6a4X7BhmyE68URS0JBCbxoY5J5bElo0XH3igSGbf585tePklilN8UMOspxcTu5QAU1HwIRaYt4elImfVbD_JgExKY_BB4l-81TJ5yLSApJFc6-bv5q2fNfe7IBoaBQLCc99HlD7gP7L46qPGBfT5vCXWJXlinRosjBBgZyb65AfCMcXLICl1f-xnK_eWrBbdtpB9ar2_vibQtKz9kqJe-LsK13Gzj4QRIooDYVRHILrqNsz_UAWPRGho5EzGovQj3jxkrK6gXtPw4sZYuZ8EhEEZ5GJyE1d4mZ8FHIVVQ7I9OuU9YKdtXDTpSy3de8iF9H8HhReHwpL2_6HeqGI9Ohh5i-1zGzrnnjCDA27zuD5bPDAw1uIcmgnYVYbKRjBkcpadSFOx7GXZo25QjrXxeiJn-WFUEKYMXC43rEd0oc98pwygNa6EcfF78o5fovdCcU3O8SkUYOsOTV1kamW9PplAF8zrlLFYFw21OzmWjDxN5Iwu-3DJSZ3yIe7RrDRpPByaxJa-tVzZpTxoVONONKhoJwf5jVzXRjnV_2m00?></g></svg>